Italic.ufo
<glyph name="exclam" format="2">
  <advance width="784"/>
  <unicode hex="0021"/>
  <outline>
    <contour>
      <point x="740" y="2048" type="line"/>
      <point x="476" y="576" type="line"/>
      <point x="244" y="576" type="line"/>
      <point x="468" y="2048" type="line"/>
    </contour>
    <contour>
      <point x="292" y="-16" type="qcurve"/>
      <point x="216" y="-16"/>
      <point x="114" y="89"/>
      <point x="112" y="164" type="qcurve"/>
      <point x="111" y="239"/>
      <point x="219" y="340"/>
      <point x="292" y="340" type="qcurve"/>
      <point x="366" y="340"/>
      <point x="474" y="236"/>
      <point x="472" y="164" type="qcurve"/>
      <point x="471" y="114"/>
      <point x="422" y="32"/>
      <point x="341" y="-16"/>
    </contour>
  </outline>
</glyph>
<glyph name="numbersign" format="2">
  <advance width="1776"/>
  <unicode hex="0023"/>
  <outline>
    <contour>
      <point x="1004" y="0" type="line"/>
      <point x="1376" y="2048" type="line"/>
      <point x="1576" y="2048" type="line"/>
      <point x="1204" y="0" type="line"/>
    </contour>
    <contour>
      <point x="82" y="568" type="line"/>
      <point x="118" y="768" type="line"/>
      <point x="1646" y="768" type="line"/>
      <point x="1610" y="568" type="line"/>
    </contour>
    <contour>
      <point x="284" y="0" type="line"/>
      <point x="656" y="2048" type="line"/>
      <point x="856" y="2048" type="line"/>
      <point x="484" y="0" type="line"/>
    </contour>
    <contour>
      <point x="214" y="1280" type="line"/>
      <point x="250" y="1480" type="line"/>
      <point x="1778" y="1480" type="line"/>
      <point x="1742" y="1280" type="line"/>
    </contour>
  </outline>
</glyph>
<glyph name="percent" format="2">
  <advance width="2288"/>
  <unicode hex="0025"/>
  <outline>
    <contour>
      <point x="1192" y="384" type="qcurve"/>
      <point x="1212" y="492" type="line"/>
      <point x="1233" y="604"/>
      <point x="1356" y="791"/>
      <point x="1552" y="904"/>
      <point x="1680" y="904" type="qcurve"/>
      <point x="1810" y="904"/>
      <point x="1969" y="791"/>
      <point x="2029" y="604"/>
      <point x="2008" y="492" type="qcurve"/>
      <point x="1988" y="384" type="line"/>
      <point x="1968" y="273"/>
      <point x="1846" y="85"/>
      <point x="1652" y="-28"/>
      <point x="1524" y="-28" type="qcurve"/>
      <point x="1394" y="-28"/>
      <point x="1233" y="85"/>
      <point x="1172" y="273"/>
    </contour>
    <contour>
      <point x="1416" y="492" type="qcurve"/>
      <point x="1396" y="384" type="line"/>
      <point x="1379" y="291"/>
      <point x="1444" y="144"/>
      <point x="1552" y="144" type="qcurve"/>
      <point x="1657" y="144"/>
      <point x="1767" y="291"/>
      <point x="1784" y="384" type="qcurve"/>
      <point x="1804" y="492" type="line"/>
      <point x="1821" y="585"/>
      <point x="1760" y="732"/>
      <point x="1652" y="732" type="qcurve"/>
      <point x="1547" y="732"/>
      <point x="1433" y="585"/>
    </contour>
    <contour>
      <point x="368" y="1556" type="qcurve"/>
      <point x="384" y="1664" type="line"/>
      <point x="401" y="1776"/>
      <point x="525" y="1963"/>
      <point x="724" y="2076"/>
      <point x="852" y="2076" type="qcurve"/>
      <point x="982" y="2076"/>
      <point x="1138" y="1963"/>
      <point x="1197" y="1776"/>
      <point x="1180" y="1664" type="qcurve"/>
      <point x="1164" y="1556" type="line"/>
      <point x="1148" y="1444"/>
      <point x="1025" y="1256"/>
      <point x="828" y="1144"/>
      <point x="700" y="1144" type="qcurve"/>
      <point x="570" y="1144"/>
      <point x="412" y="1256"/>
      <point x="352" y="1444"/>
    </contour>
    <contour>
      <point x="588" y="1664" type="qcurve"/>
      <point x="572" y="1556" type="line"/>
      <point x="558" y="1462"/>
      <point x="620" y="1316"/>
      <point x="728" y="1316" type="qcurve"/>
      <point x="833" y="1316"/>
      <point x="946" y="1462"/>
      <point x="960" y="1556" type="qcurve"/>
      <point x="976" y="1664" type="line"/>
      <point x="990" y="1757"/>
      <point x="932" y="1904"/>
      <point x="824" y="1904" type="qcurve"/>
      <point x="719" y="1904"/>
      <point x="602" y="1757"/>
    </contour>
    <contour>
      <point x="178" y="0" type="line"/>
      <point x="1926" y="2048" type="line"/>
      <point x="2166" y="2048" type="line"/>
      <point x="418" y="0" type="line"/>
    </contour>
  </outline>
</glyph>
<glyph name="ampersand" format="2">
  <advance width="1800"/>
  <unicode hex="0026"/>
  <outline>
    <contour>
      <point x="664" y="-28" type="qcurve"/>
      <point x="462" y="-28"/>
      <point x="194" y="120"/>
      <point x="80" y="378"/>
      <point x="108" y="544" type="qcurve"/>
      <point x="138" y="736"/>
      <point x="422" y="999"/>
      <point x="632" y="1128" type="qcurve"/>
      <point x="964" y="1348" type="line"/>
      <point x="1060" y="1405"/>
      <point x="1186" y="1535"/>
      <point x="1204" y="1640" type="qcurve"/>
      <point x="1216" y="1718"/>
      <point x="1103" y="1864"/>
      <point x="992" y="1864" type="qcurve"/>
      <point x="914" y="1864"/>
      <point x="782" y="1785"/>
      <point x="695" y="1664"/>
      <point x="684" y="1600" type="qcurve"/>
      <point x="672" y="1528"/>
      <point x="728" y="1382"/>
      <point x="828" y="1229"/>
      <point x="880" y="1148" type="qcurve"/>
      <point x="1628" y="0" type="line"/>
      <point x="1344" y="0" type="line"/>
      <point x="724" y="936" type="line"/>
      <point x="638" y="1066"/>
      <point x="499" y="1278"/>
      <point x="429" y="1484"/>
      <point x="448" y="1604" type="qcurve"/>
      <point x="470" y="1742"/>
      <point x="627" y="1951"/>
      <point x="870" y="2068"/>
      <point x="1020" y="2068" type="qcurve"/>
      <point x="1174" y="2068"/>
      <point x="1377" y="1949"/>
      <point x="1464" y="1754"/>
      <point x="1444" y="1640" type="qcurve"/>
      <point x="1420" y="1493"/>
      <point x="1236" y="1278"/>
      <point x="1096" y="1184" type="qcurve"/>
      <point x="640" y="880" type="line"/>
      <point x="485" y="777"/>
      <point x="354" y="586"/>
      <point x="348" y="544" type="qcurve"/>
      <point x="332" y="448"/>
      <point x="405" y="282"/>
      <point x="570" y="180"/>
      <point x="692" y="180" type="qcurve"/>
      <point x="808" y="180"/>
      <point x="1044" y="279"/>
      <point x="1253" y="467"/>
      <point x="1401" y="731"/>
      <point x="1428" y="896" type="qcurve"/>
      <point x="1656" y="896" type="line"/>
      <point x="1622" y="692"/>
      <point x="1491" y="437"/>
      <point x="1354" y="292"/>
      <point x="1312" y="252" type="qcurve"/>
      <point x="1297" y="237"/>
      <point x="1263" y="207"/>
      <point x="1248" y="192" type="qcurve"/>
      <point x="1131" y="81"/>
      <point x="811" y="-28"/>
    </contour>
  </outline>
</glyph>
<glyph name="quotesingle" format="2">
  <advance width="624"/>
  <unicode hex="0027"/>
  <outline>
    <contour>
      <point x="632" y="2048" type="line"/>
      <point x="516" y="1344" type="line"/>
      <point x="296" y="1344" type="line"/>
      <point x="412" y="2048" type="line"/>
    </contour>
  </outline>
</glyph>
<glyph name="parenleft" format="2">
  <advance width="1020"/>
  <unicode hex="0028"/>
  <outline>
    <contour>
      <point x="316" y="864" type="qcurve"/>
      <point x="379" y="1242"/>
      <point x="680" y="1877"/>
      <point x="908" y="2144" type="qcurve"/>
      <point x="1116" y="2144" type="line"/>
      <point x="1028" y="2045"/>
      <point x="855" y="1756"/>
      <point x="704" y="1411"/>
      <point x="590" y="1043"/>
      <point x="560" y="864" type="qcurve"/>
      <point x="520" y="626"/>
      <point x="531" y="136"/>
      <point x="618" y="-284"/>
      <point x="692" y="-416" type="qcurve"/>
      <point x="484" y="-416" type="line"/>
      <point x="346" y="-149"/>
      <point x="253" y="486"/>
    </contour>
  </outline>
</glyph>
<glyph name="parenright" format="2">
  <advance width="1020"/>
  <unicode hex="0029"/>
  <outline>
    <contour>
      <point x="736" y="864" type="qcurve"/>
      <point x="673" y="486"/>
      <point x="372" y="-149"/>
      <point x="144" y="-416" type="qcurve"/>
      <point x="-64" y="-416" type="line"/>
      <point x="25" y="-317"/>
      <point x="197" y="-28"/>
      <point x="348" y="317"/>
      <point x="462" y="686"/>
      <point x="492" y="864" type="qcurve"/>
      <point x="532" y="1102"/>
      <point x="521" y="1592"/>
      <point x="434" y="2012"/>
      <point x="360" y="2144" type="qcurve"/>
      <point x="568" y="2144" type="line"/>
      <point x="706" y="1877"/>
      <point x="799" y="1242"/>
    </contour>
  </outline>
</glyph>
<glyph name="asterisk" format="2">
  <advance width="1408"/>
  <unicode hex="002A"/>
  <outline>
    <contour>
      <point x="628" y="896" type="line"/>
      <point x="720" y="1336" type="line"/>
      <point x="312" y="1100" type="line"/>
      <point x="244" y="1268" type="line"/>
      <point x="664" y="1472" type="line"/>
      <point x="304" y="1676" type="line"/>
      <point x="428" y="1844" type="line"/>
      <point x="764" y="1608" type="line"/>
      <point x="820" y="2048" type="line"/>
      <point x="1012" y="2048" type="line"/>
      <point x="924" y="1608" type="line"/>
      <point x="1328" y="1844" type="line"/>
      <point x="1400" y="1676" type="line"/>
      <point x="980" y="1472" type="line"/>
      <point x="1340" y="1268" type="line"/>
      <point x="1216" y="1100" type="line"/>
      <point x="880" y="1336" type="line"/>
      <point x="820" y="896" type="line"/>
    </contour>
  </outline>
</glyph>
<glyph name="plus" format="2">
  <advance width="1856"/>
  <unicode hex="002B"/>
  <outline>
    <contour>
      <point x="712" y="140" type="line"/>
      <point x="930" y="1460" type="line"/>
      <point x="1156" y="1460" type="line"/>
      <point x="938" y="140" type="line"/>
    </contour>
    <contour>
      <point x="254" y="688" type="line"/>
      <point x="292" y="912" type="line"/>
      <point x="1612" y="912" type="line"/>
      <point x="1574" y="688" type="line"/>
    </contour>
  </outline>
</glyph>
<glyph name="comma" format="2">
  <advance width="788"/>
  <unicode hex="002C"/>
  <outline>
    <contour>
      <point x="488" y="280" type="line"/>
      <point x="452" y="172" type="line"/>
      <point x="416" y="58"/>
      <point x="304" y="-202"/>
      <point x="194" y="-432"/>
      <point x="160" y="-500" type="qcurve"/>
      <point x="-20" y="-500" type="line"/>
      <point x="2" y="-436"/>
      <point x="78" y="-226"/>
      <point x="164" y="32"/>
      <point x="200" y="168" type="qcurve"/>
      <point x="232" y="280" type="line"/>
    </contour>
  </outline>
</glyph>
<glyph name="hyphenminus" format="2">
  <advance width="1296"/>
  <unicode hex="002D"/>
  <outline>
    <contour>
      <point x="1132" y="988" type="line"/>
      <point x="1096" y="768" type="line"/>
      <point x="200" y="768" type="line"/>
      <point x="236" y="988" type="line"/>
    </contour>
  </outline>
</glyph>
<glyph name="period" format="2">
  <advance width="776"/>
  <unicode hex="002E"/>
  <outline>
    <contour>
      <point x="288" y="-16" type="qcurve"/>
      <point x="212" y="-16"/>
      <point x="110" y="89"/>
      <point x="108" y="164" type="qcurve"/>
      <point x="107" y="239"/>
      <point x="215" y="340"/>
      <point x="288" y="340" type="qcurve"/>
      <point x="362" y="340"/>
      <point x="470" y="236"/>
      <point x="468" y="164" type="qcurve"/>
      <point x="467" y="114"/>
      <point x="418" y="32"/>
      <point x="337" y="-16"/>
    </contour>
  </outline>
</glyph>
<glyph name="slash" format="2">
  <advance width="1004"/>
  <unicode hex="002F"/>
  <outline>
    <contour>
      <point x="1168" y="2144" type="line"/>
      <point x="104" y="-308" type="line"/>
      <point x="-112" y="-308" type="line"/>
      <point x="952" y="2144" type="line"/>
    </contour>
  </outline>
</glyph>
<glyph name="zero" format="2">
  <advance width="1760"/>
  <unicode hex="0030"/>
  <outline>
    <contour>
      <point x="748" y="-28" type="qcurve"/>
      <point x="522" y="-28"/>
      <point x="246" y="219"/>
      <point x="158" y="690"/>
      <point x="212" y="1024" type="qcurve"/>
      <point x="266" y="1356"/>
      <point x="512" y="1827"/>
      <point x="872" y="2076"/>
      <point x="1096" y="2076" type="qcurve"/>
      <point x="1320" y="2076"/>
      <point x="1599" y="1826"/>
      <point x="1692" y="1356"/>
      <point x="1636" y="1024" type="qcurve"/>
      <point x="1580" y="690"/>
      <point x="1334" y="220"/>
      <point x="974" y="-28"/>
    </contour>
    <contour>
      <point x="784" y="192" type="qcurve"/>
      <point x="1009" y="192"/>
      <point x="1330" y="625"/>
      <point x="1396" y="1024" type="qcurve"/>
      <point x="1440" y="1290"/>
      <point x="1388" y="1664"/>
      <point x="1208" y="1860"/>
      <point x="1060" y="1860" type="qcurve"/>
      <point x="838" y="1860"/>
      <point x="518" y="1423"/>
      <point x="452" y="1024" type="qcurve"/>
      <point x="408" y="758"/>
      <point x="458" y="386"/>
      <point x="636" y="192"/>
    </contour>
  </outline>
</glyph>
<glyph name="one" format="2">
  <advance width="1244"/>
  <unicode hex="0031"/>
  <unicode hex="E06C"/>
  <outline>
    <contour>
      <point x="1080" y="2048" type="line"/>
      <point x="740" y="0" type="line"/>
      <point x="492" y="0" type="line"/>
      <point x="772" y="1688" type="line"/>
      <point x="756" y="1688" type="line"/>
      <point x="737" y="1660"/>
      <point x="610" y="1589"/>
      <point x="417" y="1536"/>
      <point x="300" y="1536" type="qcurve"/>
      <point x="332" y="1744" type="line"/>
      <point x="451" y="1744"/>
      <point x="638" y="1829"/>
      <point x="770" y="1945"/>
      <point x="849" y="2039"/>
      <point x="860" y="2048" type="qcurve"/>
    </contour>
  </outline>
</glyph>
<glyph name="two" format="2">
  <advance width="1704"/>
  <unicode hex="0032"/>
  <outline>
    <contour>
      <point x="84" y="0" type="line"/>
      <point x="116" y="180" type="line"/>
      <point x="912" y="920" type="line"/>
      <point x="1052" y="1050"/>
      <point x="1239" y="1244"/>
      <point x="1344" y="1414"/>
      <point x="1360" y="1508" type="qcurve"/>
      <point x="1387" y="1670"/>
      <point x="1200" y="1860"/>
      <point x="1032" y="1860" type="qcurve"/>
      <point x="914" y="1860"/>
      <point x="720" y="1763"/>
      <point x="592" y="1588"/>
      <point x="572" y="1472" type="qcurve"/>
      <point x="336" y="1472" type="line"/>
      <point x="366" y="1652"/>
      <point x="581" y="1924"/>
      <point x="896" y="2076"/>
      <point x="1076" y="2076" type="qcurve"/>
      <point x="1256" y="2076"/>
      <point x="1506" y="1924"/>
      <point x="1618" y="1666"/>
      <point x="1592" y="1508" type="qcurve"/>
      <point x="1572" y="1394"/>
      <point x="1454" y="1180"/>
      <point x="1211" y="917"/>
      <point x="1004" y="728" type="qcurve"/>
      <point x="464" y="236" type="line"/>
      <point x="460" y="220" type="line"/>
      <point x="1412" y="220" type="line"/>
      <point x="1376" y="0" type="line"/>
    </contour>
  </outline>
</glyph>
<glyph name="four" format="2">
  <advance width="1808"/>
  <unicode hex="0034"/>
  <unicode hex="E06E"/>
  <outline>
    <contour>
      <point x="108" y="420" type="line"/>
      <point x="140" y="624" type="line"/>
      <point x="1196" y="2048" type="line"/>
      <point x="1440" y="2048" type="line"/>
      <point x="408" y="656" type="line"/>
      <point x="408" y="640" type="line"/>
      <point x="1624" y="640" type="line"/>
      <point x="1588" y="420" type="line"/>
    </contour>
    <contour>
      <point x="1000" y="0" type="line"/>
      <point x="1080" y="480" type="line"/>
      <point x="1096" y="576" type="line"/>
      <point x="1212" y="1280" type="line"/>
      <point x="1448" y="1280" type="line"/>
      <point x="1236" y="0" type="line"/>
    </contour>
  </outline>
</glyph>
<glyph name="six" format="2">
  <advance width="1616"/>
  <unicode hex="0036"/>
  <unicode hex="E06F"/>
  <outline>
    <contour>
      <point x="144" y="648" type="qcurve"/>
      <point x="160" y="748"/>
      <point x="249" y="953"/>
      <point x="420" y="1202"/>
      <point x="560" y="1368" type="qcurve"/>
      <point x="1132" y="2048" type="line"/>
      <point x="1404" y="2048" type="line"/>
      <point x="732" y="1256" type="line"/>
      <point x="771" y="1271"/>
      <point x="850" y="1288"/>
      <point x="892" y="1288" type="qcurve"/>
      <point x="1078" y="1288"/>
      <point x="1340" y="1116"/>
      <point x="1458" y="818"/>
      <point x="1428" y="628" type="qcurve"/>
      <point x="1398" y="438"/>
      <point x="1182" y="142"/>
      <point x="862" y="-28"/>
      <point x="676" y="-28" type="qcurve"/>
      <point x="488" y="-28"/>
      <point x="227" y="147"/>
      <point x="112" y="452"/>
    </contour>
    <contour>
      <point x="376" y="632" type="qcurve"/>
      <point x="356" y="502"/>
      <point x="427" y="302"/>
      <point x="592" y="188"/>
      <point x="712" y="188" type="qcurve"/>
      <point x="832" y="188"/>
      <point x="1034" y="301"/>
      <point x="1170" y="500"/>
      <point x="1192" y="628" type="qcurve"/>
      <point x="1214" y="758"/>
      <point x="1142" y="956"/>
      <point x="976" y="1068"/>
      <point x="856" y="1068" type="qcurve"/>
      <point x="738" y="1068"/>
      <point x="536" y="958"/>
      <point x="398" y="762"/>
    </contour>
  </outline>
</glyph>
<glyph name="seven" format="2">
  <advance width="1608"/>
  <unicode hex="0037"/>
  <outline>
    <contour>
      <point x="148" y="0" type="line"/>
      <point x="1364" y="1812" type="line"/>
      <point x="1368" y="1828" type="line"/>
      <point x="312" y="1828" type="line"/>
      <point x="348" y="2048" type="line"/>
      <point x="1660" y="2048" type="line"/>
      <point x="1620" y="1816" type="line"/>
      <point x="408" y="0" type="line"/>
    </contour>
  </outline>
</glyph>
<glyph name="eight" format="2">
  <advance width="1736"/>
  <unicode hex="0038"/>
  <outline>
    <contour>
      <point x="752" y="-28" type="qcurve"/>
      <point x="542" y="-28"/>
      <point x="245" y="127"/>
      <point x="108" y="393"/>
      <point x="136" y="560" type="qcurve"/>
      <point x="157" y="686"/>
      <point x="295" y="900"/>
      <point x="494" y="1044"/>
      <point x="608" y="1064" type="qcurve"/>
      <point x="608" y="1072" type="line"/>
      <point x="467" y="1111"/>
      <point x="344" y="1380"/>
      <point x="376" y="1548" type="qcurve"/>
      <point x="406" y="1703"/>
      <point x="600" y="1941"/>
      <point x="892" y="2076"/>
      <point x="1068" y="2076" type="qcurve"/>
      <point x="1250" y="2076"/>
      <point x="1514" y="1929"/>
      <point x="1639" y="1676"/>
      <point x="1612" y="1516" type="qcurve"/>
      <point x="1583" y="1345"/>
      <point x="1355" y="1108"/>
      <point x="1208" y="1072" type="qcurve"/>
      <point x="1208" y="1064" type="line"/>
      <point x="1316" y="1042"/>
      <point x="1475" y="888"/>
      <point x="1547" y="661"/>
      <point x="1524" y="528" type="qcurve"/>
      <point x="1497" y="365"/>
      <point x="1281" y="114"/>
      <point x="952" y="-28"/>
    </contour>
    <contour>
      <point x="760" y="192" type="qcurve"/>
      <point x="905" y="192"/>
      <point x="1129" y="287"/>
      <point x="1270" y="458"/>
      <point x="1288" y="572" type="qcurve"/>
      <point x="1306" y="686"/>
      <point x="1220" y="857"/>
      <point x="1038" y="952"/>
      <point x="912" y="952" type="qcurve"/>
      <point x="778" y="952"/>
      <point x="550" y="846"/>
      <point x="399" y="660"/>
      <point x="380" y="540" type="qcurve"/>
      <point x="363" y="433"/>
      <point x="443" y="276"/>
      <point x="625" y="192"/>
    </contour>
    <contour>
      <point x="920" y="1164" type="qcurve"/>
      <point x="1037" y="1164"/>
      <point x="1230" y="1258"/>
      <point x="1357" y="1424"/>
      <point x="1376" y="1532" type="qcurve"/>
      <point x="1395" y="1636"/>
      <point x="1328" y="1783"/>
      <point x="1176" y="1860"/>
      <point x="1064" y="1860" type="qcurve"/>
      <point x="943" y="1860"/>
      <point x="750" y="1770"/>
      <point x="626" y="1608"/>
      <point x="608" y="1500" type="qcurve"/>
      <point x="591" y="1395"/>
      <point x="661" y="1244"/>
      <point x="814" y="1164"/>
    </contour>
  </outline>
</glyph>
<glyph name="nine" format="2">
  <advance width="1616"/>
  <unicode hex="0039"/>
  <unicode hex="E070"/>
  <outline>
    <contour>
      <point x="272" y="1420" type="qcurve"/>
      <point x="302" y="1610"/>
      <point x="518" y="1906"/>
      <point x="838" y="2076"/>
      <point x="1024" y="2076" type="qcurve"/>
      <point x="1212" y="2076"/>
      <point x="1473" y="1901"/>
      <point x="1588" y="1596"/>
      <point x="1556" y="1400" type="qcurve"/>
      <point x="1540" y="1300"/>
      <point x="1451" y="1095"/>
      <point x="1280" y="846"/>
      <point x="1140" y="680" type="qcurve"/>
      <point x="568" y="0" type="line"/>
      <point x="296" y="0" type="line"/>
      <point x="968" y="792" type="line"/>
      <point x="929" y="777"/>
      <point x="850" y="760"/>
      <point x="808" y="760" type="qcurve"/>
      <point x="622" y="760"/>
      <point x="360" y="932"/>
      <point x="242" y="1230"/>
    </contour>
    <contour>
      <point x="508" y="1420" type="qcurve"/>
      <point x="486" y="1290"/>
      <point x="558" y="1092"/>
      <point x="724" y="980"/>
      <point x="844" y="980" type="qcurve"/>
      <point x="962" y="980"/>
      <point x="1164" y="1090"/>
      <point x="1302" y="1286"/>
      <point x="1324" y="1416" type="qcurve"/>
      <point x="1344" y="1546"/>
      <point x="1273" y="1746"/>
      <point x="1108" y="1860"/>
      <point x="988" y="1860" type="qcurve"/>
      <point x="868" y="1860"/>
      <point x="666" y="1747"/>
      <point x="530" y="1548"/>
    </contour>
  </outline>
</glyph>
<glyph name="colon" format="2">
  <advance width="776"/>
  <unicode hex="003A"/>
  <outline>
    <contour>
      <point x="288" y="-16" type="qcurve"/>
      <point x="212" y="-16"/>
      <point x="110" y="89"/>
      <point x="108" y="164" type="qcurve"/>
      <point x="107" y="239"/>
      <point x="215" y="340"/>
      <point x="288" y="340" type="qcurve"/>
      <point x="362" y="340"/>
      <point x="470" y="236"/>
      <point x="468" y="164" type="qcurve"/>
      <point x="467" y="114"/>
      <point x="418" y="32"/>
      <point x="337" y="-16"/>
    </contour>
    <contour>
      <point x="476" y="1124" type="qcurve"/>
      <point x="400" y="1124"/>
      <point x="298" y="1229"/>
      <point x="296" y="1304" type="qcurve"/>
      <point x="295" y="1379"/>
      <point x="403" y="1480"/>
      <point x="476" y="1480" type="qcurve"/>
      <point x="550" y="1480"/>
      <point x="658" y="1376"/>
      <point x="656" y="1304" type="qcurve"/>
      <point x="655" y="1254"/>
      <point x="606" y="1172"/>
      <point x="525" y="1124"/>
    </contour>
  </outline>
</glyph>
<glyph name="semicolon" format="2">
  <advance width="788"/>
  <unicode hex="003B"/>
  <outline>
    <contour>
      <point x="488" y="280" type="line"/>
      <point x="452" y="172" type="line"/>
      <point x="416" y="58"/>
      <point x="304" y="-202"/>
      <point x="194" y="-432"/>
      <point x="160" y="-500" type="qcurve"/>
      <point x="-20" y="-500" type="line"/>
      <point x="2" y="-436"/>
      <point x="78" y="-226"/>
      <point x="164" y="32"/>
      <point x="200" y="168" type="qcurve"/>
      <point x="232" y="280" type="line"/>
    </contour>
    <contour>
      <point x="484" y="1124" type="qcurve"/>
      <point x="408" y="1124"/>
      <point x="306" y="1229"/>
      <point x="304" y="1304" type="qcurve"/>
      <point x="303" y="1379"/>
      <point x="411" y="1480"/>
      <point x="484" y="1480" type="qcurve"/>
      <point x="558" y="1480"/>
      <point x="666" y="1376"/>
      <point x="664" y="1304" type="qcurve"/>
      <point x="663" y="1254"/>
      <point x="614" y="1172"/>
      <point x="533" y="1124"/>
    </contour>
  </outline>
</glyph>
<glyph name="less" format="2">
  <advance width="1856"/>
  <unicode hex="003C"/>
  <outline>
    <contour>
      <point x="274" y="720" type="line"/>
      <point x="302" y="880" type="line"/>
      <point x="1698" y="1536" type="line"/>
      <point x="1658" y="1280" type="line"/>
      <point x="590" y="804" type="line"/>
      <point x="598" y="820" type="line"/>
      <point x="594" y="780" type="line"/>
      <point x="586" y="796" type="line"/>
      <point x="1498" y="320" type="line"/>
      <point x="1454" y="64" type="line"/>
    </contour>
  </outline>
</glyph>
<glyph name="equal" format="2">
  <advance width="1856"/>
  <unicode hex="003D"/>
  <outline>
    <contour>
      <point x="348" y="988" type="line"/>
      <point x="384" y="1204" type="line"/>
      <point x="1616" y="1204" type="line"/>
      <point x="1580" y="988" type="line"/>
    </contour>
    <contour>
      <point x="250" y="396" type="line"/>
      <point x="286" y="612" type="line"/>
      <point x="1518" y="612" type="line"/>
      <point x="1482" y="396" type="line"/>
    </contour>
  </outline>
</glyph>
<glyph name="greater" format="2">
  <advance width="1856"/>
  <unicode hex="003E"/>
  <outline>
    <contour>
      <point x="1612" y="720" type="line"/>
      <point x="216" y="64" type="line"/>
      <point x="260" y="320" type="line"/>
      <point x="1324" y="796" type="line"/>
      <point x="1316" y="780" type="line"/>
      <point x="1320" y="820" type="line"/>
      <point x="1328" y="804" type="line"/>
      <point x="420" y="1280" type="line"/>
      <point x="460" y="1536" type="line"/>
      <point x="1640" y="880" type="line"/>
    </contour>
  </outline>
</glyph>
<glyph name="question" format="2">
  <advance width="1428"/>
  <unicode hex="003F"/>
  <outline>
    <contour>
      <point x="492" y="576" type="line"/>
      <point x="496" y="600" type="line"/>
      <point x="529" y="787"/>
      <point x="644" y="1009"/>
      <point x="807" y="1146"/>
      <point x="912" y="1204" type="qcurve"/>
      <point x="976" y="1240"/>
      <point x="1087" y="1339"/>
      <point x="1164" y="1468"/>
      <point x="1176" y="1548" type="qcurve"/>
      <point x="1200" y="1695"/>
      <point x="1033" y="1868"/>
      <point x="892" y="1868" type="qcurve"/>
      <point x="810" y="1868"/>
      <point x="645" y="1800"/>
      <point x="518" y="1654"/>
      <point x="492" y="1536" type="qcurve"/>
      <point x="240" y="1536" type="line"/>
      <point x="276" y="1706"/>
      <point x="477" y="1948"/>
      <point x="762" y="2076"/>
      <point x="924" y="2076" type="qcurve"/>
      <point x="1100" y="2076"/>
      <point x="1338" y="1936"/>
      <point x="1442" y="1692"/>
      <point x="1416" y="1536" type="qcurve"/>
      <point x="1398" y="1426"/>
      <point x="1301" y="1248"/>
      <point x="1152" y="1108"/>
      <point x="1056" y="1056" type="qcurve"/>
      <point x="960" y="1002"/>
      <point x="834" y="883"/>
      <point x="758" y="720"/>
      <point x="736" y="600" type="qcurve"/>
      <point x="732" y="576" type="line"/>
    </contour>
    <contour>
      <point x="552" y="-16" type="qcurve"/>
      <point x="476" y="-16"/>
      <point x="374" y="89"/>
      <point x="372" y="164" type="qcurve"/>
      <point x="371" y="239"/>
      <point x="479" y="340"/>
      <point x="552" y="340" type="qcurve"/>
      <point x="626" y="340"/>
      <point x="734" y="236"/>
      <point x="732" y="164" type="qcurve"/>
      <point x="731" y="114"/>
      <point x="682" y="32"/>
      <point x="601" y="-16"/>
    </contour>
  </outline>
</glyph>
<glyph name="at" format="2">
  <advance width="2636"/>
  <unicode hex="0040"/>
  <outline>
    <contour>
      <point x="1180" y="-540" type="qcurve"/>
      <point x="874" y="-540"/>
      <point x="432" y="-373"/>
      <point x="165" y="-49"/>
      <point x="79" y="421"/>
      <point x="128" y="724" type="qcurve"/>
      <point x="176" y="1017"/>
      <point x="420" y="1479"/>
      <point x="793" y="1802"/>
      <point x="1279" y="1972"/>
      <point x="1568" y="1972" type="qcurve"/>
      <point x="1849" y="1972"/>
      <point x="2241" y="1789"/>
      <point x="2474" y="1478"/>
      <point x="2553" y="1090"/>
      <point x="2520" y="884" type="qcurve"/>
      <point x="2496" y="739"/>
      <point x="2419" y="441"/>
      <point x="2287" y="192"/>
      <point x="2075" y="40"/>
      <point x="1916" y="40" type="qcurve"/>
      <point x="1846" y="40"/>
      <point x="1684" y="84"/>
      <point x="1570" y="186"/>
      <point x="1572" y="272" type="qcurve"/>
      <point x="1560" y="272" type="line"/>
      <point x="1528" y="214"/>
      <point x="1412" y="110"/>
      <point x="1242" y="48"/>
      <point x="1128" y="52" type="qcurve"/>
      <point x="999" y="57"/>
      <point x="820" y="164"/>
      <point x="718" y="349"/>
      <point x="692" y="594"/>
      <point x="716" y="736" type="qcurve"/>
      <point x="739" y="871"/>
      <point x="855" y="1095"/>
      <point x="1026" y="1263"/>
      <point x="1234" y="1364"/>
      <point x="1348" y="1376" type="qcurve"/>
      <point x="1450" y="1386"/>
      <point x="1608" y="1349"/>
      <point x="1702" y="1276"/>
      <point x="1708" y="1232" type="qcurve"/>
      <point x="1720" y="1232" type="line"/>
      <point x="1740" y="1344" type="line"/>
      <point x="1952" y="1344" type="line"/>
      <point x="1800" y="440" type="line"/>
      <point x="1788" y="356"/>
      <point x="1862" y="228"/>
      <point x="1952" y="228" type="qcurve"/>
      <point x="2054" y="228"/>
      <point x="2185" y="368"/>
      <point x="2274" y="660"/>
      <point x="2312" y="888" type="qcurve"/>
      <point x="2335" y="1022"/>
      <point x="2305" y="1283"/>
      <point x="2196" y="1511"/>
      <point x="2000" y="1685"/>
      <point x="1715" y="1784"/>
      <point x="1524" y="1784" type="qcurve"/>
      <point x="1289" y="1784"/>
      <point x="893" y="1639"/>
      <point x="589" y="1362"/>
      <point x="389" y="967"/>
      <point x="348" y="716" type="qcurve"/>
      <point x="306" y="461"/>
      <point x="375" y="65"/>
      <point x="596" y="-207"/>
      <point x="964" y="-348"/>
      <point x="1220" y="-348" type="qcurve"/>
      <point x="1330" y="-348"/>
      <point x="1550" y="-306"/>
      <point x="1722" y="-256"/>
      <point x="1760" y="-244" type="qcurve"/>
      <point x="1788" y="-428" type="line"/>
      <point x="1720" y="-454"/>
      <point x="1512" y="-506"/>
      <point x="1282" y="-540"/>
    </contour>
    <contour>
      <point x="1196" y="256" type="qcurve"/>
      <point x="1330" y="256"/>
      <point x="1512" y="364"/>
      <point x="1624" y="582"/>
      <point x="1652" y="748" type="qcurve"/>
      <point x="1680" y="916"/>
      <point x="1627" y="1104"/>
      <point x="1476" y="1180"/>
      <point x="1356" y="1180" type="qcurve"/>
      <point x="1242" y="1180"/>
      <point x="1062" y="1061"/>
      <point x="944" y="864"/>
      <point x="924" y="748" type="qcurve"/>
      <point x="904" y="620"/>
      <point x="935" y="395"/>
      <point x="1066" y="256"/>
    </contour>
  </outline>
</glyph>
<glyph name="A" format="2">
  <advance width="1904"/>
  <unicode hex="0041"/>
  <outline>
    <contour>
      <point x="204" y="0" type="line"/>
      <point x="-56" y="0" type="line"/>
      <point x="1036" y="2048" type="line"/>
      <point x="1292" y="2048" type="line"/>
      <point x="1704" y="0" type="line"/>
      <point x="1444" y="0" type="line"/>
      <point x="1120" y="1724" type="line"/>
      <point x="1104" y="1724" type="line"/>
    </contour>
    <contour>
      <point x="432" y="800" type="line"/>
      <point x="1480" y="800" type="line"/>
      <point x="1444" y="580" type="line"/>
      <point x="396" y="580" type="line"/>
    </contour>
  </outline>
</glyph>
<glyph name="B" format="2">
  <advance width="1832"/>
  <unicode hex="0042"/>
  <outline>
    <contour>
      <point x="120" y="0" type="line"/>
      <point x="460" y="2048" type="line"/>
      <point x="1176" y="2048" type="line"/>
      <point x="1390" y="2048"/>
      <point x="1644" y="1901"/>
      <point x="1738" y="1654"/>
      <point x="1712" y="1504" type="qcurve"/>
      <point x="1679" y="1306"/>
      <point x="1447" y="1112"/>
      <point x="1312" y="1076" type="qcurve"/>
      <point x="1308" y="1056" type="line"/>
      <point x="1400" y="1050"/>
      <point x="1570" y="930"/>
      <point x="1662" y="706"/>
      <point x="1636" y="544" type="qcurve"/>
      <point x="1610" y="390"/>
      <point x="1428" y="144"/>
      <point x="1102" y="0"/>
      <point x="860" y="0" type="qcurve"/>
    </contour>
    <contour>
      <point x="404" y="220" type="line"/>
      <point x="896" y="220" type="line"/>
      <point x="1139" y="220"/>
      <point x="1376" y="409"/>
      <point x="1400" y="544" type="qcurve"/>
      <point x="1416" y="648"/>
      <point x="1339" y="825"/>
      <point x="1162" y="932"/>
      <point x="1028" y="932" type="qcurve"/>
      <point x="524" y="932" type="line"/>
    </contour>
    <contour>
      <point x="560" y="1148" type="line"/>
      <point x="1020" y="1148" type="line"/>
      <point x="1132" y="1148"/>
      <point x="1328" y="1236"/>
      <point x="1460" y="1396"/>
      <point x="1476" y="1504" type="qcurve"/>
      <point x="1500" y="1639"/>
      <point x="1344" y="1828"/>
      <point x="1140" y="1828" type="qcurve"/>
      <point x="672" y="1828" type="line"/>
    </contour>
  </outline>
</glyph>
<glyph name="D" format="2">
  <advance width="2024"/>
  <unicode hex="0044"/>
  <outline>
    <contour>
      <point x="760" y="0" type="qcurve"/>
      <point x="120" y="0" type="line"/>
      <point x="460" y="2048" type="line"/>
      <point x="1112" y="2048" type="line"/>
      <point x="1410" y="2048"/>
      <point x="1797" y="1798"/>
      <point x="1950" y="1334"/>
      <point x="1896" y="1012" type="qcurve"/>
      <point x="1844" y="696"/>
      <point x="1545" y="243"/>
      <point x="1072" y="0"/>
    </contour>
    <contour>
      <point x="405" y="220" type="line"/>
      <point x="768" y="220" type="line"/>
      <point x="1022" y="220"/>
      <point x="1391" y="420"/>
      <point x="1618" y="790"/>
      <point x="1660" y="1044" type="qcurve"/>
      <point x="1702" y="1288"/>
      <point x="1603" y="1639"/>
      <point x="1316" y="1828"/>
      <point x="1076" y="1828" type="qcurve"/>
      <point x="671" y="1828" type="line"/>
    </contour>
  </outline>
</glyph>
<glyph name="E" format="2">
  <advance width="1684"/>
  <unicode hex="0045"/>
  <outline>
    <contour>
      <point x="120" y="0" type="line"/>
      <point x="460" y="2048" type="line"/>
      <point x="1696" y="2048" type="line"/>
      <point x="1660" y="1828" type="line"/>
      <point x="672" y="1828" type="line"/>
      <point x="556" y="1136" type="line"/>
      <point x="1480" y="1136" type="line"/>
      <point x="1444" y="916" type="line"/>
      <point x="520" y="916" type="line"/>
      <point x="404" y="220" type="line"/>
      <point x="1408" y="220" type="line"/>
      <point x="1372" y="0" type="line"/>
    </contour>
  </outline>
</glyph>
<glyph name="F" format="2">
  <advance width="1652"/>
  <unicode hex="0046"/>
  <outline>
    <contour>
      <point x="120" y="0" type="line"/>
      <point x="460" y="2048" type="line"/>
      <point x="1688" y="2048" type="line"/>
      <point x="1652" y="1828" type="line"/>
      <point x="672" y="1828" type="line"/>
      <point x="556" y="1136" type="line"/>
      <point x="1444" y="1136" type="line"/>
      <point x="1408" y="916" type="line"/>
      <point x="520" y="916" type="line"/>
      <point x="368" y="0" type="line"/>
    </contour>
  </outline>
</glyph>
<glyph name="G" format="2">
  <advance width="2112"/>
  <unicode hex="0047"/>
  <unicode hex="E002"/>
  <outline>
    <contour>
      <point x="950" y="-28" type="qcurve"/>
      <point x="678" y="-28"/>
      <point x="310" y="228"/>
      <point x="159" y="700"/>
      <point x="212" y="1024" type="qcurve"/>
      <point x="252" y="1267"/>
      <point x="450" y="1656"/>
      <point x="739" y="1930"/>
      <point x="1094" y="2076"/>
      <point x="1290" y="2076" type="qcurve"/>
      <point x="1452" y="2076"/>
      <point x="1720" y="1979"/>
      <point x="1917" y="1802"/>
      <point x="2028" y="1557"/>
      <point x="2032" y="1408" type="qcurve"/>
      <point x="1776" y="1408" type="line"/>
      <point x="1762" y="1509"/>
      <point x="1684" y="1670"/>
      <point x="1557" y="1784"/>
      <point x="1383" y="1844"/>
      <point x="1272" y="1844" type="qcurve"/>
      <point x="1090" y="1844"/>
      <point x="747" y="1656"/>
      <point x="496" y="1290"/>
      <point x="452" y="1024" type="qcurve"/>
      <point x="408" y="758"/>
      <point x="515" y="392"/>
      <point x="778" y="204"/>
      <point x="968" y="204" type="qcurve"/>
      <point x="1151" y="204"/>
      <point x="1465" y="365"/>
      <point x="1678" y="648"/>
      <point x="1708" y="830" type="qcurve"/>
      <point x="1736" y="804" type="line"/>
      <point x="1144" y="804" type="line"/>
      <point x="1180" y="1024" type="line"/>
      <point x="1980" y="1024" type="line"/>
      <point x="1810" y="0" type="line"/>
      <point x="1602" y="0" type="line"/>
      <point x="1614" y="250" type="line"/>
      <point x="1604" y="250" type="line"/>
      <point x="1465" y="116"/>
      <point x="1153" y="-28"/>
    </contour>
  </outline>
</glyph>
<glyph name="H" format="2">
  <advance width="2084"/>
  <unicode hex="0048"/>
  <outline>
    <contour>
      <point x="120" y="0" type="line"/>
      <point x="460" y="2048" type="line"/>
      <point x="708" y="2048" type="line"/>
      <point x="556" y="1136" type="line"/>
      <point x="1648" y="1136" type="line"/>
      <point x="1800" y="2048" type="line"/>
      <point x="2048" y="2048" type="line"/>
      <point x="1708" y="0" type="line"/>
      <point x="1460" y="0" type="line"/>
      <point x="1612" y="916" type="line"/>
      <point x="520" y="916" type="line"/>
      <point x="368" y="0" type="line"/>
    </contour>
  </outline>
</glyph>
<glyph name="I" format="2">
  <advance width="1248"/>
  <unicode hex="0049"/>
  <unicode hex="E00C"/>
  <outline>
    <contour>
      <point x="312" y="1828" type="line"/>
      <point x="348" y="2048" type="line"/>
      <point x="1324" y="2048" type="line"/>
      <point x="1288" y="1828" type="line"/>
    </contour>
    <contour>
      <point x="8" y="0" type="line"/>
      <point x="44" y="220" type="line"/>
      <point x="1020" y="220" type="line"/>
      <point x="984" y="0" type="line"/>
    </contour>
    <contour>
      <point x="960" y="2048" type="line"/>
      <point x="620" y="0" type="line"/>
      <point x="372" y="0" type="line"/>
      <point x="712" y="2048" type="line"/>
    </contour>
  </outline>
</glyph>
<glyph name="J" format="2">
  <advance width="1528"/>
  <unicode hex="004A"/>
  <outline>
    <contour>
      <point x="1244" y="2048" type="line"/>
      <point x="1492" y="2048" type="line"/>
      <point x="1248" y="576" type="line"/>
      <point x="1216" y="380"/>
      <point x="1037" y="111"/>
      <point x="760" y="-28"/>
      <point x="580" y="-28" type="qcurve"/>
      <point x="408" y="-28"/>
      <point x="160" y="96"/>
      <point x="44" y="324"/>
      <point x="68" y="480" type="qcurve"/>
      <point x="304" y="480" type="line"/>
      <point x="292" y="390"/>
      <point x="354" y="261"/>
      <point x="489" y="192"/>
      <point x="584" y="192" type="qcurve"/>
      <point x="694" y="192"/>
      <point x="867" y="285"/>
      <point x="982" y="464"/>
      <point x="1004" y="592" type="qcurve"/>
    </contour>
    <contour>
      <point x="792" y="2048" type="line"/>
      <point x="1401" y="2048" type="line"/>
      <point x="1361" y="1828" type="line"/>
      <point x="752" y="1828" type="line"/>
    </contour>
  </outline>
</glyph>
<glyph name="K" format="2">
  <advance width="1836"/>
  <unicode hex="004B"/>
  <outline>
    <contour>
      <point x="120" y="0" type="line"/>
      <point x="460" y="2048" type="line"/>
      <point x="708" y="2048" type="line"/>
      <point x="540" y="1032" type="line"/>
      <point x="564" y="1032" type="line"/>
      <point x="1652" y="2048" type="line"/>
      <point x="1976" y="2048" type="line"/>
      <point x="964" y="1124" type="line"/>
      <point x="1636" y="0" type="line"/>
      <point x="1336" y="0" type="line"/>
      <point x="784" y="952" type="line"/>
      <point x="480" y="664" type="line"/>
      <point x="368" y="0" type="line"/>
    </contour>
  </outline>
</glyph>
<glyph name="L" format="2">
  <advance width="1584"/>
  <unicode hex="004C"/>
  <outline>
    <contour>
      <point x="120" y="0" type="line"/>
      <point x="460" y="2048" type="line"/>
      <point x="708" y="2048" type="line"/>
      <point x="404" y="220" type="line"/>
      <point x="1356" y="220" type="line"/>
      <point x="1320" y="0" type="line"/>
    </contour>
  </outline>
</glyph>
<glyph name="M" format="2">
  <advance width="2504"/>
  <unicode hex="004D"/>
  <outline>
    <contour>
      <point x="460" y="2048" type="line"/>
      <point x="756" y="2048" type="line"/>
      <point x="1172" y="348" type="line"/>
      <point x="1196" y="348" type="line"/>
      <point x="2172" y="2048" type="line"/>
      <point x="2468" y="2048" type="line"/>
      <point x="2128" y="0" type="line"/>
      <point x="1896" y="0" type="line"/>
      <point x="2156" y="1556" type="line"/>
      <point x="2136" y="1556" type="line"/>
      <point x="1236" y="0" type="line"/>
      <point x="1012" y="0" type="line"/>
      <point x="632" y="1556" type="line"/>
      <point x="612" y="1556" type="line"/>
      <point x="352" y="0" type="line"/>
      <point x="120" y="0" type="line"/>
    </contour>
  </outline>
</glyph>
<glyph name="N" format="2">
  <advance width="2120"/>
  <unicode hex="004E"/>
  <outline>
    <contour>
      <point x="2084" y="2048" type="line"/>
      <point x="1744" y="0" type="line"/>
      <point x="1504" y="0" type="line"/>
      <point x="656" y="1608" type="line"/>
      <point x="636" y="1608" type="line"/>
      <point x="368" y="0" type="line"/>
      <point x="120" y="0" type="line"/>
      <point x="460" y="2048" type="line"/>
      <point x="700" y="2048" type="line"/>
      <point x="1552" y="436" type="line"/>
      <point x="1572" y="436" type="line"/>
      <point x="1840" y="2048" type="line"/>
    </contour>
  </outline>
</glyph>
<glyph name="S" format="2">
  <advance width="1796"/>
  <unicode hex="0053"/>
  <outline>
    <contour>
      <point x="1492" y="1520" type="line"/>
      <point x="1492" y="1685"/>
      <point x="1274" y="1856"/>
      <point x="1088" y="1856" type="qcurve"/>
      <point x="952" y="1856"/>
      <point x="734" y="1768"/>
      <point x="596" y="1614"/>
      <point x="580" y="1516" type="qcurve"/>
      <point x="567" y="1434"/>
      <point x="627" y="1317"/>
      <point x="738" y="1240"/>
      <point x="866" y="1191"/>
      <point x="920" y="1176" type="qcurve"/>
      <point x="1120" y="1120" type="line"/>
      <point x="1195" y="1099"/>
      <point x="1379" y="1025"/>
      <point x="1539" y="898"/>
      <point x="1624" y="700"/>
      <point x="1600" y="556" type="qcurve"/>
      <point x="1572" y="390"/>
      <point x="1355" y="122"/>
      <point x="1000" y="-36"/>
      <point x="764" y="-36" type="qcurve"/>
      <point x="544" y="-36"/>
      <point x="245" y="106"/>
      <point x="104" y="360"/>
      <point x="120" y="528" type="qcurve"/>
      <point x="376" y="528" type="line"/>
      <point x="366" y="412"/>
      <point x="478" y="261"/>
      <point x="678" y="188"/>
      <point x="800" y="188" type="qcurve"/>
      <point x="942" y="188"/>
      <point x="1183" y="281"/>
      <point x="1342" y="448"/>
      <point x="1360" y="560" type="qcurve"/>
      <point x="1378" y="662"/>
      <point x="1286" y="790"/>
      <point x="1112" y="870"/>
      <point x="1008" y="900" type="qcurve"/>
      <point x="768" y="972" type="line"/>
      <point x="540" y="1041"/>
      <point x="303" y="1297"/>
      <point x="336" y="1504" type="qcurve"/>
      <point x="366" y="1676"/>
      <point x="596" y="1933"/>
      <point x="936" y="2076"/>
      <point x="1132" y="2076" type="qcurve"/>
      <point x="1330" y="2076"/>
      <point x="1612" y="1933"/>
      <point x="1750" y="1682"/>
      <point x="1732" y="1520" type="qcurve"/>
    </contour>
  </outline>
</glyph>
<glyph name="T" format="2">
  <advance width="1808"/>
  <unicode hex="0054"/>
  <outline>
    <contour>
      <point x="312" y="1828" type="line"/>
      <point x="348" y="2048" type="line"/>
      <point x="1884" y="2048" type="line"/>
      <point x="1848" y="1828" type="line"/>
      <point x="1204" y="1828" type="line"/>
      <point x="900" y="0" type="line"/>
      <point x="652" y="0" type="line"/>
      <point x="956" y="1828" type="line"/>
    </contour>
  </outline>
</glyph>
<glyph name="U" format="2">
  <advance width="2088"/>
  <unicode hex="0055"/>
  <outline>
    <contour>
      <point x="1804" y="2048" type="line"/>
      <point x="2052" y="2048" type="line"/>
      <point x="1828" y="692" type="line"/>
      <point x="1793" y="482"/>
      <point x="1541" y="153"/>
      <point x="1151" y="-36"/>
      <point x="910" y="-36" type="qcurve"/>
      <point x="669" y="-36"/>
      <point x="343" y="153"/>
      <point x="201" y="482"/>
      <point x="236" y="692" type="qcurve"/>
      <point x="460" y="2048" type="line"/>
      <point x="708" y="2048" type="line"/>
      <point x="486" y="712" type="line"/>
      <point x="462" y="562"/>
      <point x="556" y="329"/>
      <point x="779" y="196"/>
      <point x="950" y="196" type="qcurve"/>
      <point x="1121" y="196"/>
      <point x="1389" y="329"/>
      <point x="1558" y="562"/>
      <point x="1582" y="712" type="qcurve"/>
    </contour>
  </outline>
</glyph>
<glyph name="V" format="2">
  <advance width="1904"/>
  <unicode hex="0056"/>
  <outline>
    <contour>
      <point x="544" y="2048" type="line"/>
      <point x="868" y="324" type="line"/>
      <point x="892" y="324" type="line"/>
      <point x="1784" y="2048" type="line"/>
      <point x="2044" y="2048" type="line"/>
      <point x="952" y="0" type="line"/>
      <point x="696" y="0" type="line"/>
      <point x="284" y="2048" type="line"/>
    </contour>
  </outline>
</glyph>
<glyph name="W" format="2">
  <advance width="2672"/>
  <unicode hex="0057"/>
  <outline>
    <contour>
      <point x="492" y="0" type="line"/>
      <point x="272" y="2048" type="line"/>
      <point x="524" y="2048" type="line"/>
      <point x="676" y="380" type="line"/>
      <point x="696" y="380" type="line"/>
      <point x="1408" y="2048" type="line"/>
      <point x="1688" y="2048" type="line"/>
      <point x="1848" y="380" type="line"/>
      <point x="1868" y="380" type="line"/>
      <point x="2572" y="2048" type="line"/>
      <point x="2824" y="2048" type="line"/>
      <point x="1924" y="0" type="line"/>
      <point x="1668" y="0" type="line"/>
      <point x="1488" y="1632" type="line"/>
      <point x="1472" y="1632" type="line"/>
      <point x="748" y="0" type="line"/>
    </contour>
  </outline>
</glyph>
<glyph name="X" format="2">
  <advance width="1808"/>
  <unicode hex="0058"/>
  <outline>
    <contour>
      <point x="580" y="2048" type="line"/>
      <point x="968" y="1196" type="line"/>
      <point x="984" y="1196" type="line"/>
      <point x="1652" y="2048" type="line"/>
      <point x="1944" y="2048" type="line"/>
      <point x="1132" y="1024" type="line"/>
      <point x="1604" y="0" type="line"/>
      <point x="1312" y="0" type="line"/>
      <point x="924" y="836" type="line"/>
      <point x="908" y="836" type="line"/>
      <point x="240" y="0" type="line"/>
      <point x="-52" y="0" type="line"/>
      <point x="780" y="1024" type="line"/>
      <point x="288" y="2048" type="line"/>
    </contour>
  </outline>
</glyph>
<glyph name="Y" format="2">
  <advance width="1872"/>
  <unicode hex="0059"/>
  <outline>
    <contour>
      <point x="284" y="2048" type="line"/>
      <point x="568" y="2048" type="line"/>
      <point x="980" y="1092" type="line"/>
      <point x="1004" y="1092" type="line"/>
      <point x="1728" y="2048" type="line"/>
      <point x="2012" y="2048" type="line"/>
      <point x="1072" y="844" type="line"/>
      <point x="932" y="0" type="line"/>
      <point x="684" y="0" type="line"/>
      <point x="824" y="844" type="line"/>
    </contour>
  </outline>
</glyph>
<glyph name="Z" format="2">
  <advance width="1760"/>
  <unicode hex="005A"/>
  <outline>
    <contour>
      <point x="52" y="0" type="line"/>
      <point x="84" y="180" type="line"/>
      <point x="1460" y="1828" type="line"/>
      <point x="344" y="1828" type="line"/>
      <point x="380" y="2048" type="line"/>
      <point x="1792" y="2048" type="line"/>
      <point x="1764" y="1868" type="line"/>
      <point x="384" y="220" type="line"/>
      <point x="1500" y="220" type="line"/>
      <point x="1464" y="0" type="line"/>
    </contour>
  </outline>
</glyph>
<glyph name="bracketleft" format="2">
  <advance width="1020"/>
  <unicode hex="005B"/>
  <outline>
    <contour>
      <point x="136" y="-416" type="line"/>
      <point x="560" y="2144" type="line"/>
      <point x="1152" y="2144" type="line"/>
      <point x="1120" y="1948" type="line"/>
      <point x="752" y="1948" type="line"/>
      <point x="392" y="-220" type="line"/>
      <point x="760" y="-220" type="line"/>
      <point x="728" y="-416" type="line"/>
    </contour>
  </outline>
</glyph>
<glyph name="backslash" format="2">
  <advance width="1000"/>
  <unicode hex="005C"/>
  <outline>
    <contour>
      <point x="546" y="-308" type="line"/>
      <point x="292" y="2144" type="line"/>
      <point x="502" y="2144" type="line"/>
      <point x="756" y="-308" type="line"/>
    </contour>
  </outline>
</glyph>
<glyph name="bracketright" format="2">
  <advance width="1020"/>
  <unicode hex="005D"/>
  <outline>
    <contour>
      <point x="916" y="2144" type="line"/>
      <point x="492" y="-416" type="line"/>
      <point x="-100" y="-416" type="line"/>
      <point x="-68" y="-220" type="line"/>
      <point x="300" y="-220" type="line"/>
      <point x="660" y="1948" type="line"/>
      <point x="292" y="1948" type="line"/>
      <point x="324" y="2144" type="line"/>
    </contour>
  </outline>
</glyph>
<glyph name="asciicircum" format="2">
  <advance width="1320"/>
  <unicode hex="005E"/>
  <outline>
    <contour>
      <point x="816" y="1872" type="line"/>
      <point x="888" y="1872" type="line"/>
      <point x="872" y="1772" type="line"/>
      <point x="800" y="1772" type="line"/>
    </contour>
    <contour>
      <point x="172" y="1120" type="line"/>
      <point x="724" y="1984" type="line"/>
      <point x="996" y="1984" type="line"/>
      <point x="1268" y="1120" type="line"/>
      <point x="1040" y="1120" type="line"/>
      <point x="828" y="1812" type="line"/>
      <point x="852" y="1812" type="line"/>
      <point x="420" y="1120" type="line"/>
    </contour>
  </outline>
</glyph>
<glyph name="grave" format="2">
  <advance width="1400"/>
  <unicode hex="0060"/>
  <outline>
    <contour>
      <point x="912" y="1744" type="line"/>
      <point x="680" y="2208" type="line"/>
      <point x="956" y="2208" type="line"/>
      <point x="1120" y="1744" type="line"/>
    </contour>
  </outline>
</glyph>
<glyph name="b" format="2">
  <advance width="1748"/>
  <unicode hex="0062"/>
  <outline>
    <contour>
      <point x="120" y="0" type="line"/>
      <point x="460" y="2048" type="line"/>
      <point x="696" y="2048" type="line"/>
      <point x="572" y="1292" type="line"/>
      <point x="592" y="1292" type="line"/>
      <point x="624" y="1332"/>
      <point x="738" y="1457"/>
      <point x="930" y="1556"/>
      <point x="1080" y="1556" type="qcurve"/>
      <point x="1274" y="1556"/>
      <point x="1537" y="1362"/>
      <point x="1644" y="1006"/>
      <point x="1604" y="764" type="qcurve"/>
      <point x="1564" y="520"/>
      <point x="1339" y="163"/>
      <point x="1012" y="-32"/>
      <point x="820" y="-32" type="qcurve"/>
      <point x="672" y="-32"/>
      <point x="511" y="67"/>
      <point x="436" y="194"/>
      <point x="416" y="236" type="qcurve"/>
      <point x="388" y="236" type="line"/>
      <point x="348" y="0" type="line"/>
    </contour>
    <contour>
      <point x="480" y="768" type="qcurve"/>
      <point x="452" y="594"/>
      <point x="510" y="329"/>
      <point x="682" y="180"/>
      <point x="824" y="180" type="qcurve"/>
      <point x="972" y="180"/>
      <point x="1196" y="337"/>
      <point x="1340" y="604"/>
      <point x="1368" y="768" type="qcurve"/>
      <point x="1394" y="930"/>
      <point x="1339" y="1191"/>
      <point x="1166" y="1344"/>
      <point x="1016" y="1344" type="qcurve"/>
      <point x="872" y="1344"/>
      <point x="651" y="1199"/>
      <point x="508" y="940"/>
    </contour>
  </outline>
</glyph>
<glyph name="e" format="2">
  <advance width="1644"/>
  <unicode hex="0065"/>
  <outline>
    <contour>
      <point x="728" y="-32" type="qcurve"/>
      <point x="507" y="-32"/>
      <point x="219" y="165"/>
      <point x="105" y="520"/>
      <point x="144" y="756" type="qcurve"/>
      <point x="183" y="992"/>
      <point x="415" y="1353"/>
      <point x="761" y="1556"/>
      <point x="968" y="1556" type="qcurve"/>
      <point x="1088" y="1556"/>
      <point x="1310" y="1476"/>
      <point x="1472" y="1297"/>
      <point x="1536" y="1003"/>
      <point x="1500" y="788" type="qcurve"/>
      <point x="1484" y="688" type="line"/>
      <point x="300" y="688" type="line"/>
      <point x="332" y="892" type="line"/>
      <point x="1276" y="892" type="line"/>
      <point x="1299" y="1022"/>
      <point x="1230" y="1226"/>
      <point x="1061" y="1344"/>
      <point x="932" y="1344" type="qcurve"/>
      <point x="799" y="1344"/>
      <point x="569" y="1201"/>
      <point x="415" y="984"/>
      <point x="396" y="872" type="qcurve"/>
      <point x="368" y="696" type="line"/>
      <point x="338" y="505"/>
      <point x="417" y="279"/>
      <point x="615" y="180"/>
      <point x="764" y="180" type="qcurve"/>
      <point x="859" y="180"/>
      <point x="1019" y="233"/>
      <point x="1145" y="340"/>
      <point x="1188" y="420" type="qcurve"/>
      <point x="1424" y="420" type="line"/>
      <point x="1349" y="240"/>
      <point x="1150" y="65"/>
      <point x="885" y="-32"/>
    </contour>
  </outline>
</glyph>
<glyph name="g" format="2">
  <advance width="1716"/>
  <unicode hex="0067"/>
  <outline>
    <contour>
      <point x="556" y="-608" type="curve" smooth="yes"/>
      <point x="927" y="-608"/>
      <point x="1249" y="-440"/>
      <point x="1319" y="-44" type="curve"/>
      <point x="1598" y="1536" type="line"/>
      <point x="1370" y="1536" type="line"/>
      <point x="1327" y="1292" type="line"/>
      <point x="1303" y="1292" type="line"/>
      <point x="1265" y="1372"/>
      <point x="1201" y="1556"/>
      <point x="901" y="1556" type="curve"/>
      <point x="513" y="1556"/>
      <point x="193" y="1260"/>
      <point x="110" y="788" type="curve"/>
      <point x="25" y="308"/>
      <point x="255" y="24"/>
      <point x="627" y="24" type="curve"/>
      <point x="927" y="24"/>
      <point x="1054" y="200"/>
      <point x="1121" y="284" type="curve"/>
      <point x="1141" y="284" type="line"/>
      <point x="1086" y="-28" type="line"/>
      <point x="1041" y="-284"/>
      <point x="857" y="-400"/>
      <point x="592" y="-400" type="curve"/>
      <point x="372" y="-400"/>
      <point x="238" y="-321"/>
      <point x="234" y="-162" type="curve"/>
      <point x="-14" y="-162" type="line"/>
      <point x="-36" y="-448"/>
      <point x="188" y="-608"/>
    </contour>
    <contour>
      <point x="697" y="236" type="curve" smooth="yes"/>
      <point x="401" y="236"/>
      <point x="288" y="460"/>
      <point x="345" y="780" type="curve"/>
      <point x="400" y="1092"/>
      <point x="592" y="1344"/>
      <point x="892" y="1344" type="curve"/>
      <point x="1180" y="1344"/>
      <point x="1291" y="1112"/>
      <point x="1233" y="780" type="curve"/>
      <point x="1173" y="440"/>
      <point x="981" y="236"/>
    </contour>
  </outline>
</glyph>
<glyph name="i" format="2">
  <advance width="668"/>
  <unicode hex="0069"/>
  <outline>
    <contour>
      <point x="88" y="0" type="line"/>
      <point x="344" y="1536" type="line"/>
      <point x="580" y="1536" type="line"/>
      <point x="324" y="0" type="line"/>
    </contour>
    <contour>
      <point x="534" y="1796" type="qcurve"/>
      <point x="465" y="1796"/>
      <point x="366" y="1890"/>
      <point x="366" y="1956" type="qcurve"/>
      <point x="366" y="2022"/>
      <point x="465" y="2116"/>
      <point x="534" y="2116" type="qcurve"/>
      <point x="603" y="2116"/>
      <point x="702" y="2022"/>
      <point x="702" y="1956" type="qcurve"/>
      <point x="702" y="1890"/>
      <point x="603" y="1796"/>
    </contour>
  </outline>
</glyph>
<glyph name="j" format="2">
  <advance width="668"/>
  <unicode hex="006A"/>
  <outline>
    <contour>
      <point x="344" y="1536" type="line"/>
      <point x="580" y="1536" type="line"/>
      <point x="308" y="-112" type="line"/>
      <point x="284" y="-254"/>
      <point x="151" y="-462"/>
      <point x="-64" y="-576"/>
      <point x="-212" y="-576" type="qcurve"/>
      <point x="-224" y="-576"/>
      <point x="-248" y="-576"/>
      <point x="-260" y="-576" type="qcurve"/>
      <point x="-224" y="-356" type="line"/>
      <point x="-212" y="-356"/>
      <point x="-192" y="-356"/>
      <point x="-180" y="-356" type="qcurve"/>
      <point x="-72" y="-356"/>
      <point x="51" y="-229"/>
      <point x="72" y="-112" type="qcurve"/>
    </contour>
    <contour>
      <point x="526" y="1792" type="qcurve"/>
      <point x="457" y="1792"/>
      <point x="358" y="1886"/>
      <point x="358" y="1952" type="qcurve"/>
      <point x="358" y="2018"/>
      <point x="457" y="2112"/>
      <point x="526" y="2112" type="qcurve"/>
      <point x="595" y="2112"/>
      <point x="694" y="2018"/>
      <point x="694" y="1952" type="qcurve"/>
      <point x="694" y="1886"/>
      <point x="595" y="1792"/>
    </contour>
  </outline>
</glyph>
<glyph name="k" format="2">
  <advance width="1532"/>
  <unicode hex="006B"/>
  <outline>
    <contour>
      <point x="400" y="560" type="line"/>
      <point x="444" y="852" type="line"/>
      <point x="492" y="852" type="line"/>
      <point x="1280" y="1536" type="line"/>
      <point x="1572" y="1536" type="line"/>
      <point x="736" y="812" type="line"/>
      <point x="716" y="812" type="line"/>
    </contour>
    <contour>
      <point x="88" y="0" type="line"/>
      <point x="428" y="2048" type="line"/>
      <point x="664" y="2048" type="line"/>
      <point x="324" y="0" type="line"/>
    </contour>
    <contour>
      <point x="1064" y="0" type="line"/>
      <point x="592" y="760" type="line"/>
      <point x="784" y="924" type="line"/>
      <point x="1364" y="0" type="line"/>
    </contour>
  </outline>
</glyph>
<glyph name="l" format="2">
  <advance width="728"/>
  <unicode hex="006C"/>
  <unicode hex="E050"/>
  <outline>
    <contour>
      <point x="428" y="2048" type="line"/>
      <point x="664" y="2048" type="line"/>
      <point x="392" y="400" type="line"/>
      <point x="374" y="289"/>
      <point x="406" y="197"/>
      <point x="484" y="200" type="qcurve"/>
      <point x="529" y="203"/>
      <point x="570" y="210"/>
      <point x="588" y="216" type="qcurve"/>
      <point x="604" y="12" type="line"/>
      <point x="571" y="3"/>
      <point x="475" y="-12"/>
      <point x="424" y="-12" type="qcurve"/>
      <point x="256" y="-12"/>
      <point x="117" y="171"/>
      <point x="144" y="336" type="qcurve"/>
    </contour>
  </outline>
</glyph>
<glyph name="m" format="2">
  <advance width="2448"/>
  <unicode hex="006D"/>
  <outline>
    <contour>
      <point x="88" y="0" type="line"/>
      <point x="344" y="1536" type="line"/>
      <point x="572" y="1536" type="line"/>
      <point x="532" y="1296" type="line"/>
      <point x="552" y="1296" type="line"/>
      <point x="621" y="1419"/>
      <point x="858" y="1556"/>
      <point x="1008" y="1556" type="qcurve"/>
      <point x="1158" y="1556"/>
      <point x="1340" y="1419"/>
      <point x="1376" y="1296" type="qcurve"/>
      <point x="1392" y="1296" type="line"/>
      <point x="1470" y="1416"/>
      <point x="1731" y="1556"/>
      <point x="1896" y="1556" type="qcurve"/>
      <point x="2100" y="1556"/>
      <point x="2321" y="1298"/>
      <point x="2276" y="1028" type="qcurve"/>
      <point x="2104" y="0" type="line"/>
      <point x="1868" y="0" type="line"/>
      <point x="2040" y="1028" type="line"/>
      <point x="2067" y="1199"/>
      <point x="1906" y="1344"/>
      <point x="1780" y="1344" type="qcurve"/>
      <point x="1618" y="1344"/>
      <point x="1408" y="1150"/>
      <point x="1384" y="1000" type="qcurve"/>
      <point x="1216" y="0" type="line"/>
      <point x="976" y="0" type="line"/>
      <point x="1152" y="1052" type="line"/>
      <point x="1173" y="1184"/>
      <point x="1031" y="1344"/>
      <point x="896" y="1344" type="qcurve"/>
      <point x="804" y="1344"/>
      <point x="628" y="1245"/>
      <point x="502" y="1072"/>
      <point x="484" y="960" type="qcurve"/>
      <point x="324" y="0" type="line"/>
    </contour>
  </outline>
</glyph>
<glyph name="n" format="2">
  <advance width="1648"/>
  <unicode hex="006E"/>
  <outline>
    <contour>
      <point x="476" y="924" type="qcurve"/>
      <point x="324" y="0" type="line"/>
      <point x="88" y="0" type="line"/>
      <point x="344" y="1536" type="line"/>
      <point x="572" y="1536" type="line"/>
      <point x="532" y="1296" type="line"/>
      <point x="552" y="1296" type="line"/>
      <point x="624" y="1413"/>
      <point x="870" y="1556"/>
      <point x="1044" y="1556" type="qcurve"/>
      <point x="1198" y="1556"/>
      <point x="1411" y="1429"/>
      <point x="1500" y="1172"/>
      <point x="1468" y="976" type="qcurve"/>
      <point x="1304" y="0" type="line"/>
      <point x="1068" y="0" type="line"/>
      <point x="1228" y="960" type="line"/>
      <point x="1258" y="1140"/>
      <point x="1105" y="1344"/>
      <point x="940" y="1344" type="qcurve"/>
      <point x="826" y="1344"/>
      <point x="633" y="1246"/>
      <point x="500" y="1058"/>
    </contour>
  </outline>
</glyph>
<glyph name="q" format="2">
  <advance width="1714"/>
  <unicode hex="0071"/>
  <outline>
    <contour>
      <point x="1040" y="-576" type="line"/>
      <point x="1174" y="236" type="line"/>
      <point x="1154" y="236" type="line"/>
      <point x="1121" y="194"/>
      <point x="1004" y="67"/>
      <point x="810" y="-32"/>
      <point x="662" y="-32" type="qcurve"/>
      <point x="470" y="-32"/>
      <point x="208" y="163"/>
      <point x="102" y="520"/>
      <point x="142" y="764" type="qcurve"/>
      <point x="182" y="1006"/>
      <point x="406" y="1362"/>
      <point x="734" y="1556"/>
      <point x="928" y="1556" type="qcurve"/>
      <point x="1078" y="1556"/>
      <point x="1237" y="1457"/>
      <point x="1309" y="1332"/>
      <point x="1328" y="1292" type="qcurve"/>
      <point x="1356" y="1292" type="line"/>
      <point x="1398" y="1536" type="line"/>
      <point x="1626" y="1536" type="line"/>
      <point x="1276" y="-576" type="line"/>
    </contour>
    <contour>
      <point x="728" y="180" type="qcurve"/>
      <point x="871" y="180"/>
      <point x="1092" y="329"/>
      <point x="1237" y="594"/>
      <point x="1266" y="768" type="qcurve"/>
      <point x="1295" y="940"/>
      <point x="1237" y="1199"/>
      <point x="1066" y="1344"/>
      <point x="922" y="1344" type="qcurve"/>
      <point x="772" y="1344"/>
      <point x="547" y="1191"/>
      <point x="405" y="930"/>
      <point x="378" y="768" type="qcurve"/>
      <point x="351" y="604"/>
      <point x="408" y="337"/>
      <point x="581" y="180"/>
    </contour>
  </outline>
</glyph>
<glyph name="s" format="2">
  <advance width="1472"/>
  <unicode hex="0073"/>
  <outline>
    <contour>
      <point x="1324" y="1138" type="line"/>
      <point x="1321" y="1387"/>
      <point x="1144" y="1556"/>
      <point x="829" y="1556" type="curve"/>
      <point x="494" y="1556"/>
      <point x="242" y="1366"/>
      <point x="210" y="1106" type="curve"/>
      <point x="184" y="900"/>
      <point x="308" y="754"/>
      <point x="566" y="692" type="curve"/>
      <point x="790" y="638" type="line"/>
      <point x="962" y="597"/>
      <point x="1030" y="525"/>
      <point x="1016" y="416" type="curve"/>
      <point x="998" y="269"/>
      <point x="847" y="176"/>
      <point x="626" y="176" type="curve"/>
      <point x="431" y="176"/>
      <point x="330" y="249"/>
      <point x="320" y="400" type="curve"/>
      <point x="74" y="400" type="line"/>
      <point x="79" y="121"/>
      <point x="265" y="-32"/>
      <point x="605" y="-32" type="curve"/>
      <point x="990" y="-32"/>
      <point x="1229" y="163"/>
      <point x="1262" y="428" type="curve"/>
      <point x="1288" y="642"/>
      <point x="1171" y="777"/>
      <point x="905" y="844" type="curve"/>
      <point x="684" y="900" type="line"/>
      <point x="509" y="944"/>
      <point x="434" y="1015"/>
      <point x="447" y="1118" type="curve"/>
      <point x="463" y="1248"/>
      <point x="611" y="1352"/>
      <point x="804" y="1352" type="curve"/>
      <point x="986" y="1352"/>
      <point x="1074" y="1267"/>
      <point x="1090" y="1138" type="curve"/>
    </contour>
  </outline>
</glyph>
<glyph name="t" format="2">
  <advance width="1024"/>
  <unicode hex="0074"/>
  <outline>
    <contour>
      <point x="1012" y="1536" type="line"/>
      <point x="980" y="1336" type="line"/>
      <point x="184" y="1336" type="line"/>
      <point x="216" y="1536" type="line"/>
    </contour>
    <contour>
      <point x="508" y="1904" type="line"/>
      <point x="744" y="1904" type="line"/>
      <point x="500" y="440" type="line"/>
      <point x="484" y="340"/>
      <point x="527" y="241"/>
      <point x="616" y="208"/>
      <point x="668" y="208" type="qcurve"/>
      <point x="707" y="208"/>
      <point x="757" y="217"/>
      <point x="772" y="220" type="qcurve"/>
      <point x="788" y="8" type="line"/>
      <point x="761" y="-1"/>
      <point x="670" y="-20"/>
      <point x="604" y="-20" type="qcurve"/>
      <point x="504" y="-20"/>
      <point x="328" y="66"/>
      <point x="234" y="242"/>
      <point x="256" y="376" type="qcurve"/>
    </contour>
  </outline>
</glyph>
<glyph name="v" format="2">
  <advance width="1568"/>
  <unicode hex="0076"/>
  <outline>
    <contour>
      <point x="1600" y="1536" type="line"/>
      <point x="776" y="0" type="line"/>
      <point x="536" y="0" type="line"/>
      <point x="224" y="1536" type="line"/>
      <point x="470" y="1536" type="line"/>
      <point x="690" y="312" type="line"/>
      <point x="706" y="312" type="line"/>
      <point x="1334" y="1536" type="line"/>
    </contour>
  </outline>
</glyph>
<glyph name="w" format="2">
  <advance width="2288"/>
  <unicode hex="0077"/>
  <outline>
    <contour>
      <point x="436" y="0" type="line"/>
      <point x="224" y="1536" type="line"/>
      <point x="472" y="1536" type="line"/>
      <point x="608" y="360" type="line"/>
      <point x="624" y="360" type="line"/>
      <point x="1148" y="1536" type="line"/>
      <point x="1400" y="1536" type="line"/>
      <point x="1528" y="364" type="line"/>
      <point x="1544" y="364" type="line"/>
      <point x="2072" y="1536" type="line"/>
      <point x="2320" y="1536" type="line"/>
      <point x="1596" y="0" type="line"/>
      <point x="1364" y="0" type="line"/>
      <point x="1224" y="1180" type="line"/>
      <point x="1200" y="1180" type="line"/>
      <point x="668" y="0" type="line"/>
    </contour>
  </outline>
</glyph>
<glyph name="x" format="2">
  <advance width="1520"/>
  <unicode hex="0078"/>
  <outline>
    <contour>
      <point x="520" y="1536" type="line"/>
      <point x="784" y="908" type="line"/>
      <point x="1256" y="1536" type="line"/>
      <point x="1528" y="1536" type="line"/>
      <point x="904" y="768" type="line"/>
      <point x="1272" y="0" type="line"/>
      <point x="1000" y="0" type="line"/>
      <point x="732" y="596" type="line"/>
      <point x="264" y="0" type="line"/>
      <point x="-8" y="0" type="line"/>
      <point x="608" y="768" type="line"/>
      <point x="248" y="1536" type="line"/>
    </contour>
  </outline>
</glyph>
<glyph name="y" format="2">
  <advance width="1568"/>
  <unicode hex="0079"/>
  <outline>
    <contour>
      <point x="146" y="-576" type="qcurve"/>
      <point x="86" y="-576"/>
      <point x="-5" y="-557"/>
      <point x="-22" y="-548" type="qcurve"/>
      <point x="74" y="-340" type="line"/>
      <point x="156" y="-362"/>
      <point x="285" y="-345"/>
      <point x="402" y="-236"/>
      <point x="466" y="-120" type="qcurve"/>
      <point x="532" y="0" type="line"/>
      <point x="224" y="1536" type="line"/>
      <point x="470" y="1536" type="line"/>
      <point x="690" y="308" type="line"/>
      <point x="706" y="308" type="line"/>
      <point x="1334" y="1536" type="line"/>
      <point x="1600" y="1536" type="line"/>
      <point x="658" y="-222" type="line"/>
      <point x="592" y="-345"/>
      <point x="434" y="-501"/>
      <point x="250" y="-576"/>
    </contour>
  </outline>
</glyph>
<glyph name="z" format="2">
  <advance width="1524"/>
  <unicode hex="007A"/>
  <outline>
    <contour>
      <point x="44" y="0" type="line"/>
      <point x="76" y="180" type="line"/>
      <point x="1132" y="1300" type="line"/>
      <point x="1136" y="1316" type="line"/>
      <point x="292" y="1316" type="line"/>
      <point x="328" y="1536" type="line"/>
      <point x="1476" y="1536" type="line"/>
      <point x="1444" y="1348" type="line"/>
      <point x="412" y="236" type="line"/>
      <point x="408" y="220" type="line"/>
      <point x="1284" y="220" type="line"/>
      <point x="1248" y="0" type="line"/>
    </contour>
  </outline>
</glyph>
<glyph name="braceleft" format="2">
  <advance width="1020"/>
  <unicode hex="007B"/>
  <outline>
    <contour>
      <point x="120" y="860" type="qcurve"/>
      <point x="140" y="984" type="line"/>
      <point x="308" y="984"/>
      <point x="465" y="1122"/>
      <point x="492" y="1288" type="qcurve"/>
      <point x="544" y="1608" type="line"/>
      <point x="567" y="1746"/>
      <point x="653" y="1948"/>
      <point x="794" y="2080"/>
      <point x="1005" y="2144"/>
      <point x="1152" y="2144" type="qcurve"/>
      <point x="1120" y="1948" type="line"/>
      <point x="1004" y="1948"/>
      <point x="858" y="1876"/>
      <point x="778" y="1726"/>
      <point x="760" y="1608" type="qcurve"/>
      <point x="692" y="1208" type="line"/>
      <point x="680" y="1130"/>
      <point x="618" y="1002"/>
      <point x="494" y="910"/>
      <point x="282" y="860"/>
    </contour>
    <contour>
      <point x="728" y="-416" type="line"/>
      <point x="581" y="-416"/>
      <point x="392" y="-352"/>
      <point x="293" y="-220"/>
      <point x="274" y="-18"/>
      <point x="296" y="120" type="qcurve"/>
      <point x="348" y="440" type="line"/>
      <point x="375" y="605"/>
      <point x="268" y="744"/>
      <point x="100" y="744" type="qcurve"/>
      <point x="120" y="868" type="line"/>
      <point x="282" y="868"/>
      <point x="477" y="818"/>
      <point x="571" y="726"/>
      <point x="592" y="598"/>
      <point x="580" y="520" type="qcurve"/>
      <point x="512" y="120" type="line"/>
      <point x="492" y="2"/>
      <point x="523" y="-148"/>
      <point x="644" y="-220"/>
      <point x="760" y="-220" type="qcurve"/>
    </contour>
    <contour>
      <point x="96" y="744" type="line"/>
      <point x="136" y="984" type="line"/>
      <point x="372" y="984" type="line"/>
      <point x="332" y="744" type="line"/>
    </contour>
  </outline>
</glyph>
<glyph name="bar" format="2">
  <advance width="920"/>
  <unicode hex="007C"/>
  <outline>
    <contour>
      <point x="880" y="2708" type="line"/>
      <point x="324" y="-660" type="line"/>
      <point x="124" y="-660" type="line"/>
      <point x="680" y="2708" type="line"/>
    </contour>
  </outline>
</glyph>
<glyph name="braceright" format="2">
  <advance width="1020"/>
  <unicode hex="007D"/>
  <outline>
    <contour>
      <point x="932" y="868" type="qcurve"/>
      <point x="912" y="744" type="line"/>
      <point x="744" y="744"/>
      <point x="587" y="606"/>
      <point x="560" y="440" type="qcurve"/>
      <point x="508" y="120" type="line"/>
      <point x="486" y="-18"/>
      <point x="399" y="-220"/>
      <point x="258" y="-352"/>
      <point x="47" y="-416"/>
      <point x="-100" y="-416" type="qcurve"/>
      <point x="-68" y="-220" type="line"/>
      <point x="48" y="-220"/>
      <point x="194" y="-148"/>
      <point x="274" y="2"/>
      <point x="292" y="120" type="qcurve"/>
      <point x="360" y="520" type="line"/>
      <point x="372" y="598"/>
      <point x="434" y="726"/>
      <point x="558" y="818"/>
      <point x="770" y="868"/>
    </contour>
    <contour>
      <point x="324" y="2144" type="line"/>
      <point x="471" y="2144"/>
      <point x="660" y="2080"/>
      <point x="759" y="1948"/>
      <point x="779" y="1746"/>
      <point x="756" y="1608" type="qcurve"/>
      <point x="704" y="1288" type="line"/>
      <point x="677" y="1123"/>
      <point x="784" y="984"/>
      <point x="952" y="984" type="qcurve"/>
      <point x="932" y="860" type="line"/>
      <point x="770" y="860"/>
      <point x="575" y="910"/>
      <point x="481" y="1002"/>
      <point x="460" y="1130"/>
      <point x="472" y="1208" type="qcurve"/>
      <point x="540" y="1608" type="line"/>
      <point x="560" y="1726"/>
      <point x="529" y="1876"/>
      <point x="408" y="1948"/>
      <point x="292" y="1948" type="qcurve"/>
    </contour>
    <contour>
      <point x="956" y="984" type="line"/>
      <point x="916" y="744" type="line"/>
      <point x="680" y="744" type="line"/>
      <point x="720" y="984" type="line"/>
    </contour>
  </outline>
</glyph>
<glyph name="asciitilde" format="2">
  <advance width="1856"/>
  <unicode hex="007E"/>
  <outline>
    <contour>
      <point x="204" y="608" type="line"/>
      <point x="230" y="774"/>
      <point x="373" y="976"/>
      <point x="566" y="1068"/>
      <point x="668" y="1068" type="qcurve"/>
      <point x="770" y="1068"/>
      <point x="926" y="979"/>
      <point x="1020" y="884" type="qcurve"/>
      <point x="1083" y="821"/>
      <point x="1170" y="768"/>
      <point x="1224" y="768" type="qcurve"/>
      <point x="1311" y="768"/>
      <point x="1430" y="892"/>
      <point x="1448" y="1012" type="qcurve"/>
      <point x="1664" y="1012" type="line"/>
      <point x="1640" y="846"/>
      <point x="1498" y="649"/>
      <point x="1304" y="562"/>
      <point x="1202" y="562" type="qcurve"/>
      <point x="1100" y="562"/>
      <point x="949" y="652"/>
      <point x="854" y="746" type="qcurve"/>
      <point x="791" y="809"/>
      <point x="698" y="852"/>
      <point x="644" y="852" type="qcurve"/>
      <point x="563" y="852"/>
      <point x="441" y="740"/>
      <point x="420" y="608" type="qcurve"/>
    </contour>
  </outline>
</glyph>
<glyph name="exclamdown" format="2">
  <advance width="784"/>
  <unicode hex="00A1"/>
  <outline>
    <contour>
      <point x="492" y="1544" type="qcurve"/>
      <point x="569" y="1544"/>
      <point x="671" y="1439"/>
      <point x="672" y="1364" type="qcurve"/>
      <point x="674" y="1289"/>
      <point x="566" y="1188"/>
      <point x="492" y="1188" type="qcurve"/>
      <point x="419" y="1188"/>
      <point x="311" y="1292"/>
      <point x="312" y="1364" type="qcurve"/>
      <point x="313" y="1414"/>
      <point x="362" y="1496"/>
      <point x="443" y="1544"/>
    </contour>
    <contour>
      <point x="44" y="-520" type="line"/>
      <point x="308" y="952" type="line"/>
      <point x="540" y="952" type="line"/>
      <point x="316" y="-520" type="line"/>
    </contour>
  </outline>
</glyph>
<glyph name="cent" format="2">
  <advance width="1572"/>
  <unicode hex="00A2"/>
  <outline>
    <contour>
      <point x="594" y="0" type="line"/>
      <point x="972" y="2048" type="line"/>
      <point x="1136" y="2048" type="line"/>
      <point x="758" y="0" type="line"/>
    </contour>
    <contour>
      <point x="752" y="230" type="qcurve"/>
      <point x="536" y="230"/>
      <point x="258" y="434"/>
      <point x="150" y="792"/>
      <point x="188" y="1022" type="qcurve"/>
      <point x="226" y="1256"/>
      <point x="458" y="1615"/>
      <point x="804" y="1818"/>
      <point x="1012" y="1818" type="qcurve"/>
      <point x="1254" y="1818"/>
      <point x="1545" y="1554"/>
      <point x="1540" y="1338" type="qcurve"/>
      <point x="1304" y="1338" type="line"/>
      <point x="1294" y="1443"/>
      <point x="1135" y="1606"/>
      <point x="980" y="1606" type="qcurve"/>
      <point x="842" y="1606"/>
      <point x="610" y="1463"/>
      <point x="452" y="1204"/>
      <point x="424" y="1030" type="qcurve"/>
      <point x="394" y="852"/>
      <point x="464" y="588"/>
      <point x="648" y="442"/>
      <point x="788" y="442" type="qcurve"/>
      <point x="880" y="442"/>
      <point x="1040" y="506"/>
      <point x="1164" y="626"/>
      <point x="1200" y="710" type="qcurve"/>
      <point x="1436" y="710" type="line"/>
      <point x="1392" y="574"/>
      <point x="1198" y="357"/>
      <point x="922" y="230"/>
    </contour>
  </outline>
</glyph>
<glyph name="sterling" format="2">
  <advance width="1776"/>
  <unicode hex="00A3"/>
  <outline>
    <contour>
      <point x="1412" y="0" type="line"/>
      <point x="56" y="0" type="line"/>
      <point x="92" y="220" type="line"/>
      <point x="1448" y="220" type="line"/>
    </contour>
    <contour>
      <point x="1112" y="900" type="line"/>
      <point x="180" y="900" type="line"/>
      <point x="220" y="1128" type="line"/>
      <point x="1152" y="1128" type="line"/>
    </contour>
    <contour>
      <point x="720" y="1428" type="qcurve"/>
      <point x="608" y="560" type="line"/>
      <point x="593" y="434"/>
      <point x="502" y="221"/>
      <point x="412" y="164" type="qcurve"/>
      <point x="172" y="220" type="line"/>
      <point x="232" y="220"/>
      <point x="315" y="340"/>
      <point x="364" y="500"/>
      <point x="372" y="560" type="qcurve"/>
      <point x="488" y="1428" type="line"/>
      <point x="516" y="1646"/>
      <point x="739" y="1934"/>
      <point x="1048" y="2076"/>
      <point x="1204" y="2076" type="qcurve"/>
      <point x="1394" y="2076"/>
      <point x="1652" y="1899"/>
      <point x="1740" y="1620"/>
      <point x="1696" y="1532" type="qcurve"/>
      <point x="1456" y="1532" type="line"/>
      <point x="1486" y="1636"/>
      <point x="1418" y="1781"/>
      <point x="1270" y="1856"/>
      <point x="1180" y="1856" type="qcurve"/>
      <point x="1084" y="1856"/>
      <point x="892" y="1765"/>
      <point x="746" y="1576"/>
    </contour>
  </outline>
</glyph>
<glyph name="currency" format="2">
  <advance width="2036"/>
  <unicode hex="00A4"/>
  <outline>
    <contour>
      <point x="880" y="-28" type="qcurve"/>
      <point x="711" y="-28"/>
      <point x="437" y="103"/>
      <point x="252" y="339"/>
      <point x="178" y="653"/>
      <point x="208" y="836" type="qcurve"/>
      <point x="238" y="1019"/>
      <point x="415" y="1332"/>
      <point x="678" y="1566"/>
      <point x="995" y="1696"/>
      <point x="1164" y="1696" type="qcurve"/>
      <point x="1334" y="1696"/>
      <point x="1610" y="1566"/>
      <point x="1797" y="1332"/>
      <point x="1874" y="1019"/>
      <point x="1844" y="836" type="qcurve"/>
      <point x="1814" y="653"/>
      <point x="1634" y="339"/>
      <point x="1369" y="103"/>
      <point x="1050" y="-28"/>
    </contour>
    <contour>
      <point x="916" y="192" type="qcurve"/>
      <point x="1039" y="192"/>
      <point x="1270" y="293"/>
      <point x="1463" y="471"/>
      <point x="1594" y="704"/>
      <point x="1616" y="836" type="qcurve"/>
      <point x="1646" y="1014"/>
      <point x="1534" y="1306"/>
      <point x="1292" y="1480"/>
      <point x="1128" y="1480" type="qcurve"/>
      <point x="964" y="1480"/>
      <point x="666" y="1306"/>
      <point x="458" y="1014"/>
      <point x="428" y="836" type="qcurve"/>
      <point x="398" y="660"/>
      <point x="510" y="367"/>
      <point x="752" y="192"/>
    </contour>
    <contour>
      <point x="1676" y="1272" type="line"/>
      <point x="1544" y="1440" type="line"/>
      <point x="1868" y="1724" type="line"/>
      <point x="2004" y="1556" type="line"/>
    </contour>
    <contour>
      <point x="1576" y="-20" type="line"/>
      <point x="1348" y="264" type="line"/>
      <point x="1536" y="428" type="line"/>
      <point x="1768" y="148" type="line"/>
    </contour>
    <contour>
      <point x="192" y="-20" type="line"/>
      <point x="60" y="148" type="line"/>
      <point x="384" y="428" type="line"/>
      <point x="520" y="264" type="line"/>
    </contour>
    <contour>
      <point x="524" y="1272" type="line"/>
      <point x="296" y="1556" type="line"/>
      <point x="484" y="1724" type="line"/>
      <point x="716" y="1440" type="line"/>
    </contour>
  </outline>
</glyph>
<glyph name="yen" format="2">
  <advance width="1544"/>
  <unicode hex="00A5"/>
  <outline>
    <contour>
      <point x="528" y="2048" type="line"/>
      <point x="864" y="908" type="line"/>
      <point x="656" y="828" type="line"/>
      <point x="252" y="2048" type="line"/>
    </contour>
    <contour>
      <point x="728" y="908" type="line"/>
      <point x="1440" y="2048" type="line"/>
      <point x="1716" y="2048" type="line"/>
      <point x="904" y="828" type="line"/>
    </contour>
    <contour>
      <point x="948" y="1076" type="line"/>
      <point x="768" y="0" type="line"/>
      <point x="520" y="0" type="line"/>
      <point x="700" y="1076" type="line"/>
    </contour>
    <contour>
      <point x="1384" y="1020" type="line"/>
      <point x="1356" y="840" type="line"/>
      <point x="212" y="840" type="line"/>
      <point x="240" y="1020" type="line"/>
    </contour>
    <contour>
      <point x="1320" y="624" type="line"/>
      <point x="1292" y="444" type="line"/>
      <point x="148" y="444" type="line"/>
      <point x="176" y="624" type="line"/>
    </contour>
  </outline>
</glyph>
<glyph name="brokenbar" format="2">
  <advance width="748"/>
  <unicode hex="00A6"/>
  <outline>
    <contour>
      <point x="228" y="552" type="line"/>
      <point x="448" y="552" type="line"/>
      <point x="292" y="-384" type="line"/>
      <point x="72" y="-384" type="line"/>
    </contour>
    <contour>
      <point x="696" y="2048" type="line"/>
      <point x="540" y="1116" type="line"/>
      <point x="320" y="1116" type="line"/>
      <point x="476" y="2048" type="line"/>
    </contour>
  </outline>
</glyph>
<glyph name="section" format="2">
  <advance width="1552"/>
  <unicode hex="00A7"/>
  <outline>
    <contour>
      <point x="1404" y="1564" type="qcurve"/>
      <point x="1176" y="1564" type="line"/>
      <point x="1197" y="1693"/>
      <point x="1093" y="1864"/>
      <point x="952" y="1864" type="qcurve"/>
      <point x="862" y="1864"/>
      <point x="737" y="1798"/>
      <point x="666" y="1698"/>
      <point x="656" y="1648" type="qcurve"/>
      <point x="641" y="1558"/>
      <point x="762" y="1414"/>
      <point x="828" y="1372" type="qcurve"/>
      <point x="1180" y="1144" type="line"/>
      <point x="1215" y="1122"/>
      <point x="1302" y="1048"/>
      <point x="1377" y="941"/>
      <point x="1413" y="797"/>
      <point x="1396" y="704" type="qcurve"/>
      <point x="1384" y="630"/>
      <point x="1283" y="482"/>
      <point x="1136" y="368"/>
      <point x="1056" y="344" type="qcurve"/>
      <point x="1056" y="340" type="line"/>
      <point x="1119" y="277"/>
      <point x="1159" y="112"/>
      <point x="1144" y="16" type="qcurve"/>
      <point x="1120" y="-132"/>
      <point x="944" y="-323"/>
      <point x="696" y="-416"/>
      <point x="564" y="-416" type="qcurve"/>
      <point x="406" y="-416"/>
      <point x="181" y="-291"/>
      <point x="78" y="-60"/>
      <point x="104" y="100" type="qcurve"/>
      <point x="336" y="100" type="line"/>
      <point x="312" y="-47"/>
      <point x="465" y="-204"/>
      <point x="600" y="-204" type="qcurve"/>
      <point x="711" y="-204"/>
      <point x="898" y="-95"/>
      <point x="916" y="16" type="qcurve"/>
      <point x="928" y="92"/>
      <point x="877" y="194"/>
      <point x="788" y="264"/>
      <point x="744" y="292" type="qcurve"/>
      <point x="396" y="516" type="line"/>
      <point x="360" y="539"/>
      <point x="272" y="613"/>
      <point x="198" y="722"/>
      <point x="161" y="867"/>
      <point x="176" y="960" type="qcurve"/>
      <point x="188" y="1032"/>
      <point x="284" y="1182"/>
      <point x="430" y="1300"/>
      <point x="516" y="1324" type="qcurve"/>
      <point x="516" y="1332" type="line"/>
      <point x="465" y="1395"/>
      <point x="413" y="1552"/>
      <point x="428" y="1648" type="qcurve"/>
      <point x="450" y="1772"/>
      <point x="608" y="1965"/>
      <point x="846" y="2076"/>
      <point x="988" y="2076" type="qcurve"/>
      <point x="1142" y="2076"/>
      <point x="1344" y="1945"/>
      <point x="1428" y="1714"/>
    </contour>
    <contour>
      <point x="1176" y="704" type="qcurve"/>
      <point x="1191" y="791"/>
      <point x="1098" y="922"/>
      <point x="1032" y="964" type="qcurve"/>
      <point x="680" y="1192" type="line"/>
      <point x="640" y="1218"/>
      <point x="516" y="1168"/>
      <point x="410" y="1044"/>
      <point x="396" y="960" type="qcurve"/>
      <point x="381" y="864"/>
      <point x="478" y="741"/>
      <point x="544" y="696" type="qcurve"/>
      <point x="880" y="480" type="line"/>
      <point x="918" y="456"/>
      <point x="1050" y="504"/>
      <point x="1164" y="622"/>
    </contour>
  </outline>
</glyph>
<glyph name="dieresis" format="2">
  <advance width="1664"/>
  <unicode hex="00A8"/>
  <outline>
    <contour>
      <point x="726" y="1792" type="qcurve"/>
      <point x="660" y="1792"/>
      <point x="572" y="1899"/>
      <point x="582" y="1968" type="qcurve"/>
      <point x="591" y="2031"/>
      <point x="693" y="2112"/>
      <point x="750" y="2112" type="qcurve"/>
      <point x="825" y="2112"/>
      <point x="910" y="2011"/>
      <point x="898" y="1936" type="qcurve"/>
      <point x="889" y="1879"/>
      <point x="792" y="1792"/>
    </contour>
    <contour>
      <point x="1302" y="1792" type="qcurve"/>
      <point x="1236" y="1792"/>
      <point x="1146" y="1896"/>
      <point x="1158" y="1968" type="qcurve"/>
      <point x="1169" y="2031"/>
      <point x="1269" y="2112"/>
      <point x="1326" y="2112" type="qcurve"/>
      <point x="1401" y="2112"/>
      <point x="1486" y="2011"/>
      <point x="1474" y="1936" type="qcurve"/>
      <point x="1465" y="1879"/>
      <point x="1368" y="1792"/>
    </contour>
  </outline>
</glyph>
<glyph name="copyright" format="2">
  <advance width="2576"/>
  <unicode hex="00A9"/>
  <outline>
    <contour>
      <point x="746" y="1024" type="qcurve"/>
      <point x="773" y="1188"/>
      <point x="978" y="1458"/>
      <point x="1274" y="1618"/>
      <point x="1438" y="1618" type="qcurve"/>
      <point x="1580" y="1618"/>
      <point x="1801" y="1496"/>
      <point x="1925" y="1285"/>
      <point x="1922" y="1152" type="qcurve"/>
      <point x="1680" y="1152" type="line"/>
      <point x="1677" y="1256"/>
      <point x="1539" y="1386"/>
      <point x="1420" y="1386" type="qcurve"/>
      <point x="1322" y="1386"/>
      <point x="1131" y="1294"/>
      <point x="995" y="1131"/>
      <point x="978" y="1024" type="qcurve"/>
      <point x="963" y="931"/>
      <point x="1024" y="765"/>
      <point x="1161" y="662"/>
      <point x="1260" y="662" type="qcurve"/>
      <point x="1376" y="662"/>
      <point x="1579" y="794"/>
      <point x="1618" y="896" type="qcurve"/>
      <point x="1860" y="896" type="line"/>
      <point x="1819" y="763"/>
      <point x="1635" y="552"/>
      <point x="1384" y="430"/>
      <point x="1242" y="430" type="qcurve"/>
      <point x="1078" y="430"/>
      <point x="835" y="590"/>
      <point x="719" y="860"/>
    </contour>
    <contour>
      <point x="1158" y="-32" type="qcurve"/>
      <point x="940" y="-32"/>
      <point x="584" y="132"/>
      <point x="340" y="423"/>
      <point x="239" y="806"/>
      <point x="276" y="1024" type="qcurve"/>
      <point x="313" y="1243"/>
      <point x="541" y="1626"/>
      <point x="880" y="1916"/>
      <point x="1290" y="2080"/>
      <point x="1508" y="2080" type="qcurve"/>
      <point x="1727" y="2080"/>
      <point x="2082" y="1916"/>
      <point x="2323" y="1626"/>
      <point x="2423" y="1243"/>
      <point x="2388" y="1024" type="qcurve"/>
      <point x="2353" y="806"/>
      <point x="2126" y="423"/>
      <point x="1787" y="132"/>
      <point x="1377" y="-32"/>
    </contour>
    <contour>
      <point x="1196" y="200" type="qcurve"/>
      <point x="1367" y="200"/>
      <point x="1688" y="328"/>
      <point x="1952" y="555"/>
      <point x="2129" y="854"/>
      <point x="2156" y="1024" type="qcurve"/>
      <point x="2184" y="1195"/>
      <point x="2105" y="1494"/>
      <point x="1916" y="1720"/>
      <point x="1639" y="1848"/>
      <point x="1468" y="1848" type="qcurve"/>
      <point x="1299" y="1848"/>
      <point x="980" y="1720"/>
      <point x="716" y="1493"/>
      <point x="537" y="1194"/>
      <point x="508" y="1024" type="qcurve"/>
      <point x="480" y="855"/>
      <point x="558" y="556"/>
      <point x="747" y="329"/>
      <point x="1025" y="200"/>
    </contour>
  </outline>
</glyph>
<glyph name="ordfeminine" format="2">
  <advance width="1264"/>
  <unicode hex="00AA"/>
  <outline>
    <contour>
      <point x="868" y="1184" type="qcurve"/>
      <point x="948" y="1652" type="line"/>
      <point x="960" y="1739"/>
      <point x="897" y="1828"/>
      <point x="816" y="1828" type="qcurve"/>
      <point x="726" y="1828"/>
      <point x="612" y="1758"/>
      <point x="600" y="1692" type="qcurve"/>
      <point x="368" y="1712" type="line"/>
      <point x="392" y="1850"/>
      <point x="653" y="2032"/>
      <point x="848" y="2032" type="qcurve"/>
      <point x="1028" y="2032"/>
      <point x="1218" y="1841"/>
      <point x="1188" y="1652" type="qcurve"/>
      <point x="1116" y="1220" type="line"/>
      <point x="1104" y="1154"/>
      <point x="1099" y="1032"/>
      <point x="1108" y="972" type="qcurve"/>
      <point x="864" y="972" type="line"/>
      <point x="858" y="1020"/>
      <point x="859" y="1130"/>
    </contour>
    <contour>
      <point x="996" y="1584" type="line"/>
      <point x="968" y="1424" type="line"/>
      <point x="768" y="1424" type="line"/>
      <point x="648" y="1424"/>
      <point x="525" y="1332"/>
      <point x="516" y="1272" type="qcurve"/>
      <point x="507" y="1215"/>
      <point x="572" y="1152"/>
      <point x="656" y="1152" type="qcurve"/>
      <point x="712" y="1152"/>
      <point x="835" y="1202"/>
      <point x="924" y="1274"/>
      <point x="928" y="1308" type="qcurve"/>
      <point x="928" y="1148" type="line"/>
      <point x="886" y="1082"/>
      <point x="705" y="952"/>
      <point x="564" y="952" type="qcurve"/>
      <point x="399" y="952"/>
      <point x="248" y="1123"/>
      <point x="272" y="1264" type="qcurve"/>
      <point x="296" y="1417"/>
      <point x="559" y="1584"/>
      <point x="796" y="1584" type="qcurve"/>
    </contour>
  </outline>
</glyph>
<glyph name="logicalnot" format="2">
  <advance width="1520"/>
  <unicode hex="00AC"/>
  <outline>
    <contour>
      <point x="1392" y="1108" type="line"/>
      <point x="1352" y="872" type="line"/>
      <point x="204" y="872" type="line"/>
      <point x="244" y="1108" type="line"/>
    </contour>
    <contour>
      <point x="1376" y="1000" type="line"/>
      <point x="1296" y="516" type="line"/>
      <point x="1020" y="516" type="line"/>
      <point x="1100" y="1000" type="line"/>
    </contour>
  </outline>
</glyph>
<glyph name="registered" format="2">
  <advance width="1888"/>
  <unicode hex="00AE"/>
  <outline>
    <contour>
      <point x="692" y="916" type="line"/>
      <point x="814" y="1654" type="line"/>
      <point x="1188" y="1654" type="line"/>
      <point x="1233" y="1654"/>
      <point x="1331" y="1603"/>
      <point x="1391" y="1498"/>
      <point x="1376" y="1418" type="qcurve"/>
      <point x="1362" y="1337"/>
      <point x="1264" y="1224"/>
      <point x="1145" y="1166"/>
      <point x="1096" y="1166" type="qcurve"/>
      <point x="826" y="1166" type="line"/>
      <point x="846" y="1286" type="line"/>
      <point x="1066" y="1286" type="line"/>
      <point x="1098" y="1286"/>
      <point x="1188" y="1352"/>
      <point x="1198" y="1418" type="qcurve"/>
      <point x="1208" y="1486"/>
      <point x="1138" y="1534"/>
      <point x="1110" y="1534" type="qcurve"/>
      <point x="956" y="1534" type="line"/>
      <point x="854" y="916" type="line"/>
    </contour>
    <contour>
      <point x="1196" y="1264" type="line"/>
      <point x="1322" y="916" type="line"/>
      <point x="1144" y="916" type="line"/>
      <point x="1022" y="1264" type="line"/>
    </contour>
    <contour>
      <point x="1028" y="476" type="qcurve"/>
      <point x="862" y="476"/>
      <point x="572" y="600"/>
      <point x="352" y="820"/>
      <point x="228" y="1110"/>
      <point x="228" y="1276" type="qcurve"/>
      <point x="228" y="1442"/>
      <point x="352" y="1732"/>
      <point x="571" y="1952"/>
      <point x="862" y="2076"/>
      <point x="1028" y="2076" type="qcurve"/>
      <point x="1193" y="2076"/>
      <point x="1484" y="1952"/>
      <point x="1704" y="1732"/>
      <point x="1828" y="1442"/>
      <point x="1828" y="1276" type="qcurve"/>
      <point x="1828" y="1110"/>
      <point x="1703" y="820"/>
      <point x="1483" y="600"/>
      <point x="1193" y="476"/>
    </contour>
    <contour>
      <point x="1028" y="668" type="qcurve"/>
      <point x="1196" y="668"/>
      <point x="1472" y="832"/>
      <point x="1637" y="1108"/>
      <point x="1636" y="1276" type="qcurve"/>
      <point x="1636" y="1444"/>
      <point x="1471" y="1720"/>
      <point x="1196" y="1884"/>
      <point x="1028" y="1884" type="qcurve"/>
      <point x="860" y="1884"/>
      <point x="584" y="1720"/>
      <point x="421" y="1444"/>
      <point x="420" y="1276" type="qcurve"/>
      <point x="420" y="1108"/>
      <point x="583" y="832"/>
      <point x="860" y="668"/>
    </contour>
  </outline>
</glyph>
<glyph name="macron" format="2">
  <advance width="1264"/>
  <unicode hex="00AF"/>
  <outline>
    <contour>
      <point x="1312" y="2048" type="line"/>
      <point x="1280" y="1848" type="line"/>
      <point x="344" y="1848" type="line"/>
      <point x="376" y="2048" type="line"/>
    </contour>
  </outline>
</glyph>
<glyph name="degree" format="2">
  <advance width="1280"/>
  <unicode hex="00B0"/>
  <outline>
    <contour>
      <point x="778" y="1144" type="qcurve"/>
      <point x="651" y="1144"/>
      <point x="442" y="1268"/>
      <point x="318" y="1477"/>
      <point x="318" y="1604" type="qcurve"/>
      <point x="318" y="1731"/>
      <point x="442" y="1940"/>
      <point x="651" y="2064"/>
      <point x="778" y="2064" type="qcurve"/>
      <point x="905" y="2064"/>
      <point x="1114" y="1940"/>
      <point x="1238" y="1731"/>
      <point x="1238" y="1604" type="qcurve"/>
      <point x="1238" y="1477"/>
      <point x="1114" y="1268"/>
      <point x="905" y="1144"/>
    </contour>
    <contour>
      <point x="778" y="1344" type="qcurve"/>
      <point x="850" y="1344"/>
      <point x="968" y="1414"/>
      <point x="1038" y="1532"/>
      <point x="1038" y="1604" type="qcurve"/>
      <point x="1038" y="1676"/>
      <point x="968" y="1794"/>
      <point x="850" y="1864"/>
      <point x="778" y="1864" type="qcurve"/>
      <point x="706" y="1864"/>
      <point x="588" y="1794"/>
      <point x="518" y="1676"/>
      <point x="518" y="1604" type="qcurve"/>
      <point x="518" y="1532"/>
      <point x="588" y="1414"/>
      <point x="706" y="1344"/>
    </contour>
  </outline>
</glyph>
<glyph name="plusminus" format="2">
  <advance width="1856"/>
  <unicode hex="00B1"/>
  <outline>
    <contour>
      <point x="172" y="96" type="line"/>
      <point x="208" y="320" type="line"/>
      <point x="1496" y="320" type="line"/>
      <point x="1460" y="96" type="line"/>
    </contour>
    <contour>
      <point x="308" y="904" type="line"/>
      <point x="344" y="1128" type="line"/>
      <point x="1632" y="1128" type="line"/>
      <point x="1596" y="904" type="line"/>
    </contour>
    <contour>
      <point x="772" y="496" type="line"/>
      <point x="944" y="1536" type="line"/>
      <point x="1168" y="1536" type="line"/>
      <point x="996" y="496" type="line"/>
    </contour>
  </outline>
</glyph>
<glyph name="twosuperior" format="2">
  <advance width="1180"/>
  <unicode hex="00B2"/>
  <outline>
    <contour>
      <point x="180" y="1024" type="line"/>
      <point x="204" y="1180" type="line"/>
      <point x="744" y="1596" type="line"/>
      <point x="828" y="1660"/>
      <point x="941" y="1760"/>
      <point x="1004" y="1850"/>
      <point x="1012" y="1900" type="qcurve"/>
      <point x="1027" y="1990"/>
      <point x="909" y="2096"/>
      <point x="804" y="2096" type="qcurve"/>
      <point x="702" y="2096"/>
      <point x="543" y="1984"/>
      <point x="528" y="1888" type="qcurve"/>
      <point x="316" y="1888" type="line"/>
      <point x="343" y="2053"/>
      <point x="623" y="2268"/>
      <point x="824" y="2268" type="qcurve"/>
      <point x="960" y="2268"/>
      <point x="1143" y="2169"/>
      <point x="1224" y="2000"/>
      <point x="1208" y="1896" type="qcurve"/>
      <point x="1196" y="1820"/>
      <point x="1116" y="1686"/>
      <point x="956" y="1536"/>
      <point x="824" y="1436" type="qcurve"/>
      <point x="520" y="1208" type="line"/>
      <point x="520" y="1200" type="line"/>
      <point x="1132" y="1200" type="line"/>
      <point x="1104" y="1024" type="line"/>
    </contour>
  </outline>
</glyph>
<glyph name="threesuperior" format="2">
  <advance width="1208"/>
  <unicode hex="00B3"/>
  <outline>
    <contour>
      <point x="652" y="1008" type="qcurve"/>
      <point x="439" y="1008"/>
      <point x="196" y="1209"/>
      <point x="220" y="1368" type="qcurve"/>
      <point x="436" y="1368" type="line"/>
      <point x="424" y="1287"/>
      <point x="552" y="1188"/>
      <point x="660" y="1188" type="qcurve"/>
      <point x="780" y="1188"/>
      <point x="957" y="1304"/>
      <point x="972" y="1388" type="qcurve"/>
      <point x="987" y="1475"/>
      <point x="847" y="1572"/>
      <point x="712" y="1572" type="qcurve"/>
      <point x="612" y="1572" type="line"/>
      <point x="636" y="1732" type="line"/>
      <point x="732" y="1732" type="line"/>
      <point x="849" y="1732"/>
      <point x="1016" y="1844"/>
      <point x="1028" y="1916" type="qcurve"/>
      <point x="1043" y="2000"/>
      <point x="951" y="2096"/>
      <point x="840" y="2096" type="qcurve"/>
      <point x="741" y="2096"/>
      <point x="563" y="1996"/>
      <point x="548" y="1912" type="qcurve"/>
      <point x="340" y="1912" type="line"/>
      <point x="360" y="2020"/>
      <point x="507" y="2180"/>
      <point x="722" y="2268"/>
      <point x="844" y="2268" type="qcurve"/>
      <point x="982" y="2268"/>
      <point x="1168" y="2174"/>
      <point x="1252" y="2014"/>
      <point x="1236" y="1916" type="qcurve"/>
      <point x="1218" y="1808"/>
      <point x="1062" y="1685"/>
      <point x="936" y="1664" type="qcurve"/>
      <point x="936" y="1656" type="line"/>
      <point x="1071" y="1635"/>
      <point x="1210" y="1473"/>
      <point x="1192" y="1356" type="qcurve"/>
      <point x="1174" y="1250"/>
      <point x="1022" y="1094"/>
      <point x="790" y="1008"/>
    </contour>
  </outline>
</glyph>
<glyph name="acute" format="2">
  <advance width="1400"/>
  <unicode hex="00B4"/>
  <outline>
    <contour>
      <point x="722" y="1744" type="line"/>
      <point x="1042" y="2208" type="line"/>
      <point x="1318" y="2208" type="line"/>
      <point x="930" y="1744" type="line"/>
    </contour>
  </outline>
</glyph>
<glyph name="mu" format="2">
  <advance width="1752"/>
  <unicode hex="00B5"/>
  <outline>
    <contour>
      <point x="-8" y="-576" type="line"/>
      <point x="344" y="1536" type="line"/>
      <point x="580" y="1536" type="line"/>
      <point x="428" y="628" type="line"/>
      <point x="408" y="504"/>
      <point x="483" y="315"/>
      <point x="656" y="208"/>
      <point x="784" y="208" type="qcurve"/>
      <point x="912" y="208"/>
      <point x="1120" y="315"/>
      <point x="1256" y="504"/>
      <point x="1276" y="628" type="qcurve"/>
      <point x="1428" y="1536" type="line"/>
      <point x="1664" y="1536" type="line"/>
      <point x="1408" y="0" type="line"/>
      <point x="1172" y="0" type="line"/>
      <point x="1212" y="228" type="line"/>
      <point x="1200" y="228" type="line"/>
      <point x="1116" y="108"/>
      <point x="873" y="-20"/>
      <point x="744" y="-20" type="qcurve"/>
      <point x="618" y="-20"/>
      <point x="418" y="108"/>
      <point x="376" y="228" type="qcurve"/>
      <point x="364" y="228" type="line"/>
      <point x="228" y="-576" type="line"/>
    </contour>
  </outline>
</glyph>
<glyph name="paragraph" format="2">
  <advance width="1688"/>
  <unicode hex="00B6"/>
  <outline>
    <contour>
      <point x="1612" y="1828" type="line"/>
      <point x="1120" y="1828" type="line"/>
      <point x="944" y="760" type="line"/>
      <point x="828" y="760" type="line"/>
      <point x="610" y="760"/>
      <point x="335" y="927"/>
      <point x="226" y="1218"/>
      <point x="256" y="1404" type="qcurve"/>
      <point x="288" y="1588"/>
      <point x="493" y="1879"/>
      <point x="822" y="2048"/>
      <point x="1040" y="2048" type="qcurve"/>
      <point x="1648" y="2048" type="line"/>
    </contour>
    <contour>
      <point x="1064" y="0" type="line"/>
      <point x="1404" y="2048" type="line"/>
      <point x="1652" y="2048" type="line"/>
      <point x="1312" y="0" type="line"/>
    </contour>
  </outline>
</glyph>
<glyph name="cedilla" format="2">
  <advance width="752"/>
  <unicode hex="00B8"/>
  <outline>
    <contour>
      <point x="156" y="8" type="line"/>
      <point x="352" y="8" type="line"/>
      <point x="320" y="-72" type="line"/>
      <point x="398" y="-84"/>
      <point x="509" y="-191"/>
      <point x="488" y="-308" type="qcurve"/>
      <point x="467" y="-437"/>
      <point x="227" y="-600"/>
      <point x="20" y="-600" type="qcurve"/>
      <point x="40" y="-444" type="line"/>
      <point x="133" y="-444"/>
      <point x="264" y="-385"/>
      <point x="276" y="-316" type="qcurve"/>
      <point x="288" y="-247"/>
      <point x="194" y="-197"/>
      <point x="80" y="-188" type="qcurve"/>
    </contour>
  </outline>
</glyph>
<glyph name="onesuperior" format="2">
  <advance width="882"/>
  <unicode hex="00B9"/>
  <outline>
    <contour>
      <point x="480" y="1024" type="line"/>
      <point x="648" y="2034" type="line"/>
      <point x="638" y="2034" type="line"/>
      <point x="286" y="1824" type="line"/>
      <point x="322" y="2036" type="line"/>
      <point x="684" y="2252" type="line"/>
      <point x="892" y="2252" type="line"/>
      <point x="688" y="1024" type="line"/>
    </contour>
  </outline>
</glyph>
<glyph name="ordmasculine" format="2">
  <advance width="1264"/>
  <unicode hex="00BA"/>
  <outline>
    <contour>
      <point x="268" y="1436" type="qcurve"/>
      <point x="284" y="1544" type="line"/>
      <point x="308" y="1686"/>
      <point x="460" y="1906"/>
      <point x="694" y="2032"/>
      <point x="840" y="2032" type="qcurve"/>
      <point x="1062" y="2032"/>
      <point x="1272" y="1757"/>
      <point x="1236" y="1544" type="qcurve"/>
      <point x="1220" y="1436" type="line"/>
      <point x="1196" y="1294"/>
      <point x="1046" y="1076"/>
      <point x="814" y="952"/>
      <point x="668" y="952" type="qcurve"/>
      <point x="446" y="952"/>
      <point x="232" y="1223"/>
    </contour>
    <contour>
      <point x="524" y="1544" type="qcurve"/>
      <point x="508" y="1436" type="line"/>
      <point x="487" y="1313"/>
      <point x="580" y="1152"/>
      <point x="700" y="1152" type="qcurve"/>
      <point x="817" y="1152"/>
      <point x="959" y="1313"/>
      <point x="980" y="1436" type="qcurve"/>
      <point x="996" y="1544" type="line"/>
      <point x="1017" y="1664"/>
      <point x="928" y="1828"/>
      <point x="808" y="1828" type="qcurve"/>
      <point x="691" y="1828"/>
      <point x="545" y="1664"/>
    </contour>
  </outline>
</glyph>
<glyph name="questiondown" format="2">
  <advance width="1428"/>
  <unicode hex="00BF"/>
  <outline>
    <contour>
      <point x="936" y="956" type="line"/>
      <point x="932" y="932" type="line"/>
      <point x="899" y="746"/>
      <point x="784" y="523"/>
      <point x="622" y="387"/>
      <point x="516" y="328" type="qcurve"/>
      <point x="452" y="292"/>
      <point x="341" y="193"/>
      <point x="264" y="64"/>
      <point x="252" y="-16" type="qcurve"/>
      <point x="228" y="-163"/>
      <point x="395" y="-336"/>
      <point x="536" y="-336" type="qcurve"/>
      <point x="618" y="-336"/>
      <point x="783" y="-268"/>
      <point x="910" y="-122"/>
      <point x="936" y="-4" type="qcurve"/>
      <point x="1188" y="-4" type="line"/>
      <point x="1152" y="-174"/>
      <point x="951" y="-416"/>
      <point x="666" y="-544"/>
      <point x="504" y="-544" type="qcurve"/>
      <point x="328" y="-544"/>
      <point x="90" y="-404"/>
      <point x="-14" y="-160"/>
      <point x="12" y="-4" type="qcurve"/>
      <point x="30" y="106"/>
      <point x="127" y="284"/>
      <point x="276" y="424"/>
      <point x="372" y="476" type="qcurve"/>
      <point x="468" y="530"/>
      <point x="594" y="649"/>
      <point x="670" y="812"/>
      <point x="692" y="932" type="qcurve"/>
      <point x="696" y="956" type="line"/>
    </contour>
    <contour>
      <point x="876" y="1548" type="qcurve"/>
      <point x="953" y="1548"/>
      <point x="1055" y="1443"/>
      <point x="1056" y="1368" type="qcurve"/>
      <point x="1058" y="1293"/>
      <point x="950" y="1192"/>
      <point x="876" y="1192" type="qcurve"/>
      <point x="803" y="1192"/>
      <point x="695" y="1296"/>
      <point x="696" y="1368" type="qcurve"/>
      <point x="697" y="1418"/>
      <point x="746" y="1500"/>
      <point x="827" y="1548"/>
    </contour>
  </outline>
</glyph>
<glyph name="Adieresis" format="2">
  <advance width="1904"/>
  <unicode hex="00C4"/>
  <outline>
    <contour>
      <point x="204" y="0" type="line"/>
      <point x="-56" y="0" type="line"/>
      <point x="1036" y="2048" type="line"/>
      <point x="1292" y="2048" type="line"/>
      <point x="1704" y="0" type="line"/>
      <point x="1444" y="0" type="line"/>
      <point x="1120" y="1724" type="line"/>
      <point x="1104" y="1724" type="line"/>
    </contour>
    <contour>
      <point x="432" y="800" type="line"/>
      <point x="1480" y="800" type="line"/>
      <point x="1444" y="580" type="line"/>
      <point x="396" y="580" type="line"/>
    </contour>
    <contour>
      <point x="934" y="2304" type="qcurve"/>
      <point x="868" y="2304"/>
      <point x="780" y="2411"/>
      <point x="790" y="2480" type="qcurve"/>
      <point x="799" y="2543"/>
      <point x="901" y="2624"/>
      <point x="958" y="2624" type="qcurve"/>
      <point x="1033" y="2624"/>
      <point x="1118" y="2523"/>
      <point x="1106" y="2448" type="qcurve"/>
      <point x="1097" y="2391"/>
      <point x="1000" y="2304"/>
    </contour>
    <contour>
      <point x="1510" y="2304" type="qcurve"/>
      <point x="1444" y="2304"/>
      <point x="1354" y="2408"/>
      <point x="1366" y="2480" type="qcurve"/>
      <point x="1377" y="2543"/>
      <point x="1477" y="2624"/>
      <point x="1534" y="2624" type="qcurve"/>
      <point x="1609" y="2624"/>
      <point x="1694" y="2523"/>
      <point x="1682" y="2448" type="qcurve"/>
      <point x="1673" y="2391"/>
      <point x="1576" y="2304"/>
    </contour>
  </outline>
</glyph>
<glyph name="Aring" format="2">
  <advance width="1904"/>
  <unicode hex="00C5"/>
  <outline>
    <contour>
      <point x="204" y="0" type="line"/>
      <point x="-56" y="0" type="line"/>
      <point x="1036" y="2048" type="line"/>
      <point x="1292" y="2048" type="line"/>
      <point x="1704" y="0" type="line"/>
      <point x="1444" y="0" type="line"/>
      <point x="1120" y="1724" type="line"/>
      <point x="1104" y="1724" type="line"/>
    </contour>
    <contour>
      <point x="432" y="800" type="line"/>
      <point x="1480" y="800" type="line"/>
      <point x="1444" y="580" type="line"/>
      <point x="396" y="580" type="line"/>
    </contour>
    <contour>
      <point x="1202" y="2188" type="qcurve"/>
      <point x="1073" y="2188"/>
      <point x="918" y="2373"/>
      <point x="938" y="2500" type="qcurve"/>
      <point x="950" y="2578"/>
      <point x="1041" y="2699"/>
      <point x="1175" y="2768"/>
      <point x="1252" y="2768" type="qcurve"/>
      <point x="1339" y="2768"/>
      <point x="1468" y="2682"/>
      <point x="1531" y="2540"/>
      <point x="1518" y="2456" type="qcurve"/>
      <point x="1506" y="2379"/>
      <point x="1414" y="2258"/>
      <point x="1279" y="2188"/>
    </contour>
    <contour>
      <point x="1202" y="2332" type="qcurve"/>
      <point x="1263" y="2332"/>
      <point x="1362" y="2415"/>
      <point x="1372" y="2478" type="qcurve"/>
      <point x="1382" y="2538"/>
      <point x="1314" y="2624"/>
      <point x="1252" y="2624" type="qcurve"/>
      <point x="1192" y="2624"/>
      <point x="1094" y="2542"/>
      <point x="1084" y="2478" type="qcurve"/>
      <point x="1074" y="2417"/>
      <point x="1141" y="2332"/>
    </contour>
  </outline>
</glyph>
<glyph name="AE" format="2">
  <advance width="2788"/>
  <unicode hex="00C6"/>
  <outline>
    <contour>
      <point x="-56" y="0" type="line"/>
      <point x="1276" y="2048" type="line"/>
      <point x="2800" y="2048" type="line"/>
      <point x="2764" y="1828" type="line"/>
      <point x="1776" y="1828" type="line"/>
      <point x="1660" y="1136" type="line"/>
      <point x="2584" y="1136" type="line"/>
      <point x="2548" y="916" type="line"/>
      <point x="1624" y="916" type="line"/>
      <point x="1508" y="220" type="line"/>
      <point x="2512" y="220" type="line"/>
      <point x="2476" y="0" type="line"/>
      <point x="1224" y="0" type="line"/>
      <point x="1528" y="1828" type="line"/>
      <point x="1380" y="1828" type="line"/>
      <point x="216" y="0" type="line"/>
    </contour>
    <contour>
      <point x="480" y="580" type="line"/>
      <point x="516" y="800" type="line"/>
      <point x="1484" y="800" type="line"/>
      <point x="1448" y="580" type="line"/>
    </contour>
  </outline>
</glyph>
<glyph name="Odieresis" format="2">
  <advance width="2144"/>
  <unicode hex="00D6"/>
  <outline>
    <contour>
      <point x="2016" y="1008" type="qcurve"/>
      <point x="1962" y="688"/>
      <point x="1656" y="223"/>
      <point x="1214" y="-28"/>
      <point x="956" y="-28" type="qcurve"/>
      <point x="690" y="-28"/>
      <point x="317" y="233"/>
      <point x="158" y="712"/>
      <point x="212" y="1040" type="qcurve"/>
      <point x="266" y="1360"/>
      <point x="572" y="1825"/>
      <point x="1016" y="2076"/>
      <point x="1276" y="2076" type="qcurve"/>
      <point x="1540" y="2076"/>
      <point x="1911" y="1815"/>
      <point x="2070" y="1336"/>
    </contour>
    <contour>
      <point x="1780" y="1040" type="qcurve"/>
      <point x="1824" y="1302"/>
      <point x="1710" y="1660"/>
      <point x="1446" y="1844"/>
      <point x="1264" y="1844" type="qcurve"/>
      <point x="1074" y="1844"/>
      <point x="734" y="1651"/>
      <point x="492" y="1278"/>
      <point x="448" y="1008" type="qcurve"/>
      <point x="404" y="746"/>
      <point x="518" y="388"/>
      <point x="782" y="204"/>
      <point x="964" y="204" type="qcurve"/>
      <point x="1154" y="204"/>
      <point x="1494" y="397"/>
      <point x="1736" y="770"/>
    </contour>
    <contour>
      <point x="1050" y="2304" type="qcurve"/>
      <point x="984" y="2304"/>
      <point x="896" y="2411"/>
      <point x="906" y="2480" type="qcurve"/>
      <point x="915" y="2543"/>
      <point x="1017" y="2624"/>
      <point x="1074" y="2624" type="qcurve"/>
      <point x="1149" y="2624"/>
      <point x="1234" y="2523"/>
      <point x="1222" y="2448" type="qcurve"/>
      <point x="1213" y="2391"/>
      <point x="1116" y="2304"/>
    </contour>
    <contour>
      <point x="1626" y="2304" type="qcurve"/>
      <point x="1560" y="2304"/>
      <point x="1470" y="2408"/>
      <point x="1482" y="2480" type="qcurve"/>
      <point x="1493" y="2543"/>
      <point x="1593" y="2624"/>
      <point x="1650" y="2624" type="qcurve"/>
      <point x="1725" y="2624"/>
      <point x="1810" y="2523"/>
      <point x="1798" y="2448" type="qcurve"/>
      <point x="1789" y="2391"/>
      <point x="1692" y="2304"/>
    </contour>
  </outline>
</glyph>
<glyph name="multiply" format="2">
  <advance width="1856"/>
  <unicode hex="00D7"/>
  <outline>
    <contour>
      <point x="1316" y="160" type="line"/>
      <point x="376" y="1288" type="line"/>
      <point x="540" y="1428" type="line"/>
      <point x="1480" y="300" type="line"/>
    </contour>
    <contour>
      <point x="362" y="164" type="line"/>
      <point x="222" y="328" type="line"/>
      <point x="1506" y="1424" type="line"/>
      <point x="1646" y="1260" type="line"/>
    </contour>
  </outline>
</glyph>
<glyph name="Oslash" format="2">
  <advance width="2148"/>
  <unicode hex="00D8"/>
  <outline>
    <contour>
      <point x="480" y="-84" type="line"/>
      <point x="328" y="20" type="line"/>
      <point x="1752" y="2128" type="line"/>
      <point x="1904" y="2024" type="line"/>
    </contour>
    <contour>
      <point x="2016" y="1004" type="qcurve"/>
      <point x="1962" y="684"/>
      <point x="1656" y="219"/>
      <point x="1214" y="-32"/>
      <point x="956" y="-32" type="qcurve"/>
      <point x="690" y="-32"/>
      <point x="317" y="229"/>
      <point x="158" y="708"/>
      <point x="212" y="1036" type="qcurve"/>
      <point x="266" y="1356"/>
      <point x="572" y="1821"/>
      <point x="1016" y="2072"/>
      <point x="1276" y="2072" type="qcurve"/>
      <point x="1540" y="2072"/>
      <point x="1911" y="1811"/>
      <point x="2070" y="1332"/>
    </contour>
    <contour>
      <point x="1780" y="1036" type="qcurve"/>
      <point x="1824" y="1298"/>
      <point x="1710" y="1656"/>
      <point x="1446" y="1840"/>
      <point x="1264" y="1840" type="qcurve"/>
      <point x="1074" y="1840"/>
      <point x="734" y="1647"/>
      <point x="492" y="1274"/>
      <point x="448" y="1004" type="qcurve"/>
      <point x="404" y="742"/>
      <point x="518" y="384"/>
      <point x="782" y="200"/>
      <point x="964" y="200" type="qcurve"/>
      <point x="1154" y="200"/>
      <point x="1494" y="393"/>
      <point x="1736" y="766"/>
    </contour>
  </outline>
</glyph>
<glyph name="Thorn" format="2">
  <advance width="1776"/>
  <unicode hex="00DE"/>
  <outline>
    <contour>
      <point x="444" y="2048" type="line"/>
      <point x="692" y="2048" type="line"/>
      <point x="352" y="0" type="line"/>
      <point x="104" y="0" type="line"/>
    </contour>
    <contour>
      <point x="488" y="1624" type="line"/>
      <point x="1016" y="1624" type="line"/>
      <point x="1234" y="1624"/>
      <point x="1511" y="1465"/>
      <point x="1624" y="1198"/>
      <point x="1596" y="1036" type="qcurve"/>
      <point x="1570" y="874"/>
      <point x="1370" y="607"/>
      <point x="1042" y="448"/>
      <point x="824" y="448" type="qcurve"/>
      <point x="296" y="448" type="line"/>
      <point x="332" y="668" type="line"/>
      <point x="860" y="668" type="line"/>
      <point x="1002" y="668"/>
      <point x="1212" y="753"/>
      <point x="1340" y="916"/>
      <point x="1360" y="1032" type="qcurve"/>
      <point x="1380" y="1148"/>
      <point x="1305" y="1315"/>
      <point x="1122" y="1404"/>
      <point x="980" y="1404" type="qcurve"/>
      <point x="452" y="1404" type="line"/>
    </contour>
  </outline>
</glyph>
<glyph name="germandbls" format="2">
  <advance width="1716"/>
  <unicode hex="00DF"/>
  <outline>
    <contour>
      <point x="120" y="0" type="line"/>
      <point x="372" y="1524" type="line"/>
      <point x="401" y="1696"/>
      <point x="593" y="1943"/>
      <point x="883" y="2076"/>
      <point x="1056" y="2076" type="qcurve"/>
      <point x="1227" y="2076"/>
      <point x="1472" y="1949"/>
      <point x="1589" y="1713"/>
      <point x="1564" y="1548" type="qcurve"/>
      <point x="1537" y="1365"/>
      <point x="1316" y="1134"/>
      <point x="1164" y="1084" type="qcurve"/>
      <point x="1160" y="1064" type="line"/>
      <point x="1353" y="1045"/>
      <point x="1560" y="781"/>
      <point x="1524" y="564" type="qcurve"/>
      <point x="1497" y="399"/>
      <point x="1306" y="145"/>
      <point x="1013" y="0"/>
      <point x="832" y="0" type="qcurve"/>
      <point x="608" y="0" type="line"/>
      <point x="644" y="220" type="line"/>
      <point x="872" y="220" type="line"/>
      <point x="1036" y="220"/>
      <point x="1264" y="413"/>
      <point x="1288" y="564" type="qcurve"/>
      <point x="1313" y="722"/>
      <point x="1133" y="928"/>
      <point x="952" y="928" type="qcurve"/>
      <point x="772" y="928" type="line"/>
      <point x="808" y="1152" type="line"/>
      <point x="936" y="1152" type="line"/>
      <point x="1037" y="1152"/>
      <point x="1201" y="1255"/>
      <point x="1309" y="1420"/>
      <point x="1324" y="1512" type="qcurve"/>
      <point x="1347" y="1656"/>
      <point x="1189" y="1856"/>
      <point x="1024" y="1856" type="qcurve"/>
      <point x="867" y="1856"/>
      <point x="632" y="1671"/>
      <point x="608" y="1524" type="qcurve"/>
      <point x="356" y="0" type="line"/>
    </contour>
  </outline>
</glyph>
<glyph name="adieresis" format="2">
  <advance width="1588"/>
  <unicode hex="00E4"/>
  <outline>
    <contour>
      <point x="536" y="-36" type="qcurve"/>
      <point x="390" y="-36"/>
      <point x="170" y="75"/>
      <point x="64" y="286"/>
      <point x="88" y="436" type="qcurve"/>
      <point x="111" y="568"/>
      <point x="243" y="733"/>
      <point x="432" y="828"/>
      <point x="651" y="875"/>
      <point x="760" y="888" type="qcurve"/>
      <point x="902" y="906"/>
      <point x="1080" y="926"/>
      <point x="1170" y="972"/>
      <point x="1180" y="1028" type="qcurve"/>
      <point x="1180" y="1036" type="line"/>
      <point x="1204" y="1183"/>
      <point x="1000" y="1348"/>
      <point x="838" y="1348" type="qcurve"/>
      <point x="670" y="1348"/>
      <point x="492" y="1200"/>
      <point x="468" y="1116" type="qcurve"/>
      <point x="260" y="1116" type="line"/>
      <point x="304" y="1256"/>
      <point x="499" y="1453"/>
      <point x="742" y="1556"/>
      <point x="858" y="1556" type="qcurve"/>
      <point x="917" y="1556"/>
      <point x="1078" y="1535"/>
      <point x="1243" y="1474"/>
      <point x="1374" y="1355"/>
      <point x="1436" y="1158"/>
      <point x="1412" y="1012" type="qcurve"/>
      <point x="1244" y="0" type="line"/>
      <point x="1008" y="0" type="line"/>
      <point x="1044" y="208" type="line"/>
      <point x="1032" y="208" type="line"/>
      <point x="1000" y="158"/>
      <point x="869" y="44"/>
      <point x="670" y="-36"/>
    </contour>
    <contour>
      <point x="604" y="176" type="qcurve"/>
      <point x="744" y="176"/>
      <point x="955" y="286"/>
      <point x="1084" y="460"/>
      <point x="1100" y="556" type="qcurve"/>
      <point x="1136" y="772" type="line"/>
      <point x="1118" y="754"/>
      <point x="1012" y="725"/>
      <point x="879" y="704"/>
      <point x="754" y="689"/>
      <point x="716" y="684" type="qcurve"/>
      <point x="622" y="672"/>
      <point x="453" y="619"/>
      <point x="338" y="514"/>
      <point x="324" y="424" type="qcurve"/>
      <point x="303" y="301"/>
      <point x="463" y="176"/>
    </contour>
    <contour>
      <point x="714" y="1792" type="qcurve"/>
      <point x="648" y="1792"/>
      <point x="560" y="1899"/>
      <point x="570" y="1968" type="qcurve"/>
      <point x="579" y="2031"/>
      <point x="681" y="2112"/>
      <point x="738" y="2112" type="qcurve"/>
      <point x="813" y="2112"/>
      <point x="898" y="2011"/>
      <point x="886" y="1936" type="qcurve"/>
      <point x="877" y="1879"/>
      <point x="780" y="1792"/>
    </contour>
    <contour>
      <point x="1290" y="1792" type="qcurve"/>
      <point x="1224" y="1792"/>
      <point x="1134" y="1896"/>
      <point x="1146" y="1968" type="qcurve"/>
      <point x="1157" y="2031"/>
      <point x="1257" y="2112"/>
      <point x="1314" y="2112" type="qcurve"/>
      <point x="1389" y="2112"/>
      <point x="1474" y="2011"/>
      <point x="1462" y="1936" type="qcurve"/>
      <point x="1453" y="1879"/>
      <point x="1356" y="1792"/>
    </contour>
  </outline>
</glyph>
<glyph name="aring" format="2">
  <advance width="1588"/>
  <unicode hex="00E5"/>
  <outline>
    <contour>
      <point x="536" y="-36" type="qcurve"/>
      <point x="390" y="-36"/>
      <point x="170" y="75"/>
      <point x="64" y="286"/>
      <point x="88" y="436" type="qcurve"/>
      <point x="111" y="568"/>
      <point x="243" y="733"/>
      <point x="432" y="828"/>
      <point x="651" y="875"/>
      <point x="760" y="888" type="qcurve"/>
      <point x="902" y="906"/>
      <point x="1080" y="926"/>
      <point x="1170" y="972"/>
      <point x="1180" y="1028" type="qcurve"/>
      <point x="1180" y="1036" type="line"/>
      <point x="1204" y="1183"/>
      <point x="1000" y="1348"/>
      <point x="838" y="1348" type="qcurve"/>
      <point x="670" y="1348"/>
      <point x="492" y="1200"/>
      <point x="468" y="1116" type="qcurve"/>
      <point x="260" y="1116" type="line"/>
      <point x="304" y="1256"/>
      <point x="499" y="1453"/>
      <point x="742" y="1556"/>
      <point x="858" y="1556" type="qcurve"/>
      <point x="917" y="1556"/>
      <point x="1078" y="1535"/>
      <point x="1243" y="1474"/>
      <point x="1374" y="1355"/>
      <point x="1436" y="1158"/>
      <point x="1412" y="1012" type="qcurve"/>
      <point x="1244" y="0" type="line"/>
      <point x="1008" y="0" type="line"/>
      <point x="1044" y="208" type="line"/>
      <point x="1032" y="208" type="line"/>
      <point x="1000" y="158"/>
      <point x="869" y="44"/>
      <point x="670" y="-36"/>
    </contour>
    <contour>
      <point x="604" y="176" type="qcurve"/>
      <point x="744" y="176"/>
      <point x="955" y="286"/>
      <point x="1084" y="460"/>
      <point x="1100" y="556" type="qcurve"/>
      <point x="1136" y="772" type="line"/>
      <point x="1118" y="754"/>
      <point x="1012" y="725"/>
      <point x="879" y="704"/>
      <point x="754" y="689"/>
      <point x="716" y="684" type="qcurve"/>
      <point x="622" y="672"/>
      <point x="453" y="619"/>
      <point x="338" y="514"/>
      <point x="324" y="424" type="qcurve"/>
      <point x="303" y="301"/>
      <point x="463" y="176"/>
    </contour>
    <contour>
      <point x="992" y="1708" type="qcurve"/>
      <point x="890" y="1708"/>
      <point x="737" y="1798"/>
      <point x="658" y="1952"/>
      <point x="668" y="2048" type="qcurve"/>
      <point x="678" y="2144"/>
      <point x="793" y="2304"/>
      <point x="970" y="2400"/>
      <point x="1072" y="2400" type="qcurve"/>
      <point x="1174" y="2400"/>
      <point x="1325" y="2304"/>
      <point x="1402" y="2144"/>
      <point x="1392" y="2048" type="qcurve"/>
      <point x="1382" y="1952"/>
      <point x="1269" y="1798"/>
      <point x="1094" y="1708"/>
    </contour>
    <contour>
      <point x="1012" y="1860" type="qcurve"/>
      <point x="1096" y="1860"/>
      <point x="1215" y="1976"/>
      <point x="1224" y="2048" type="qcurve"/>
      <point x="1233" y="2123"/>
      <point x="1136" y="2244"/>
      <point x="1052" y="2244" type="qcurve"/>
      <point x="968" y="2244"/>
      <point x="849" y="2123"/>
      <point x="840" y="2048" type="qcurve"/>
      <point x="831" y="1976"/>
      <point x="928" y="1860"/>
    </contour>
  </outline>
</glyph>
<glyph name="ae" format="2">
  <advance width="2604"/>
  <unicode hex="00E6"/>
  <outline>
    <contour>
      <point x="1692" y="-32" type="qcurve"/>
      <point x="1437" y="-32"/>
      <point x="1142" y="219"/>
      <point x="1136" y="420" type="qcurve"/>
      <point x="1304" y="1184" type="line"/>
      <point x="1409" y="1358"/>
      <point x="1728" y="1556"/>
      <point x="1932" y="1556" type="qcurve"/>
      <point x="2052" y="1556"/>
      <point x="2273" y="1476"/>
      <point x="2435" y="1297"/>
      <point x="2500" y="1003"/>
      <point x="2464" y="788" type="qcurve"/>
      <point x="2448" y="688" type="line"/>
      <point x="1264" y="688" type="line"/>
      <point x="1296" y="892" type="line"/>
      <point x="2240" y="892" type="line"/>
      <point x="2262" y="1022"/>
      <point x="2193" y="1226"/>
      <point x="2024" y="1344"/>
      <point x="1896" y="1344" type="qcurve"/>
      <point x="1754" y="1344"/>
      <point x="1526" y="1205"/>
      <point x="1380" y="982"/>
      <point x="1360" y="856" type="qcurve"/>
      <point x="1336" y="720" type="line"/>
      <point x="1308" y="546"/>
      <point x="1390" y="305"/>
      <point x="1586" y="180"/>
      <point x="1728" y="180" type="qcurve"/>
      <point x="1820" y="180"/>
      <point x="1980" y="233"/>
      <point x="2108" y="340"/>
      <point x="2152" y="420" type="qcurve"/>
      <point x="2388" y="420" type="line"/>
      <point x="2312" y="240"/>
      <point x="2113" y="65"/>
      <point x="1848" y="-32"/>
    </contour>
    <contour>
      <point x="604" y="176" type="qcurve"/>
      <point x="744" y="176"/>
      <point x="955" y="286"/>
      <point x="1084" y="460"/>
      <point x="1100" y="556" type="qcurve"/>
      <point x="1136" y="772" type="line"/>
      <point x="1118" y="754"/>
      <point x="1012" y="725"/>
      <point x="879" y="704"/>
      <point x="754" y="689"/>
      <point x="716" y="684" type="qcurve"/>
      <point x="622" y="672"/>
      <point x="453" y="619"/>
      <point x="338" y="514"/>
      <point x="324" y="424" type="qcurve"/>
      <point x="303" y="301"/>
      <point x="463" y="176"/>
    </contour>
    <contour>
      <point x="536" y="-36" type="qcurve"/>
      <point x="390" y="-36"/>
      <point x="170" y="75"/>
      <point x="64" y="286"/>
      <point x="88" y="436" type="qcurve"/>
      <point x="111" y="568"/>
      <point x="243" y="733"/>
      <point x="432" y="828"/>
      <point x="651" y="875"/>
      <point x="760" y="888" type="qcurve"/>
      <point x="902" y="906"/>
      <point x="1080" y="926"/>
      <point x="1170" y="972"/>
      <point x="1180" y="1028" type="qcurve"/>
      <point x="1180" y="1036" type="line"/>
      <point x="1204" y="1183"/>
      <point x="1070" y="1348"/>
      <point x="908" y="1348" type="qcurve"/>
      <point x="740" y="1348"/>
      <point x="522" y="1200"/>
      <point x="488" y="1116" type="qcurve"/>
      <point x="270" y="1116" type="line"/>
      <point x="342" y="1336"/>
      <point x="570" y="1493"/>
      <point x="820" y="1556"/>
      <point x="936" y="1556" type="qcurve"/>
      <point x="998" y="1556"/>
      <point x="1150" y="1533"/>
      <point x="1296" y="1465"/>
      <point x="1404" y="1331"/>
      <point x="1420" y="1220" type="qcurve"/>
      <point x="1172" y="280" type="line"/>
      <point x="1152" y="280" type="line"/>
      <point x="1108" y="194"/>
      <point x="919" y="50"/>
      <point x="670" y="-36"/>
    </contour>
  </outline>
</glyph>
<glyph name="edieresis" format="2">
  <advance width="1644"/>
  <unicode hex="00EB"/>
  <outline>
    <contour>
      <point x="728" y="-32" type="qcurve"/>
      <point x="507" y="-32"/>
      <point x="219" y="165"/>
      <point x="105" y="520"/>
      <point x="144" y="756" type="qcurve"/>
      <point x="183" y="992"/>
      <point x="415" y="1353"/>
      <point x="761" y="1556"/>
      <point x="968" y="1556" type="qcurve"/>
      <point x="1088" y="1556"/>
      <point x="1310" y="1476"/>
      <point x="1472" y="1297"/>
      <point x="1536" y="1003"/>
      <point x="1500" y="788" type="qcurve"/>
      <point x="1484" y="688" type="line"/>
      <point x="300" y="688" type="line"/>
      <point x="332" y="892" type="line"/>
      <point x="1276" y="892" type="line"/>
      <point x="1299" y="1022"/>
      <point x="1230" y="1226"/>
      <point x="1061" y="1344"/>
      <point x="932" y="1344" type="qcurve"/>
      <point x="799" y="1344"/>
      <point x="569" y="1201"/>
      <point x="415" y="984"/>
      <point x="396" y="872" type="qcurve"/>
      <point x="368" y="696" type="line"/>
      <point x="338" y="505"/>
      <point x="417" y="279"/>
      <point x="615" y="180"/>
      <point x="764" y="180" type="qcurve"/>
      <point x="859" y="180"/>
      <point x="1019" y="233"/>
      <point x="1145" y="340"/>
      <point x="1188" y="420" type="qcurve"/>
      <point x="1404" y="356" type="line"/>
      <point x="1349" y="240"/>
      <point x="1150" y="65"/>
      <point x="885" y="-32"/>
    </contour>
    <contour>
      <point x="718" y="1792" type="qcurve"/>
      <point x="652" y="1792"/>
      <point x="564" y="1899"/>
      <point x="574" y="1968" type="qcurve"/>
      <point x="583" y="2031"/>
      <point x="685" y="2112"/>
      <point x="742" y="2112" type="qcurve"/>
      <point x="817" y="2112"/>
      <point x="902" y="2011"/>
      <point x="890" y="1936" type="qcurve"/>
      <point x="881" y="1879"/>
      <point x="784" y="1792"/>
    </contour>
    <contour>
      <point x="1294" y="1792" type="qcurve"/>
      <point x="1228" y="1792"/>
      <point x="1138" y="1896"/>
      <point x="1150" y="1968" type="qcurve"/>
      <point x="1161" y="2031"/>
      <point x="1261" y="2112"/>
      <point x="1318" y="2112" type="qcurve"/>
      <point x="1393" y="2112"/>
      <point x="1478" y="2011"/>
      <point x="1466" y="1936" type="qcurve"/>
      <point x="1457" y="1879"/>
      <point x="1360" y="1792"/>
    </contour>
  </outline>
</glyph>
<glyph name="idieresis" format="2">
  <advance width="668"/>
  <unicode hex="00EF"/>
  <outline>
    <contour>
      <point x="88" y="0" type="line"/>
      <point x="344" y="1536" type="line"/>
      <point x="580" y="1536" type="line"/>
      <point x="324" y="0" type="line"/>
    </contour>
    <contour>
      <point x="234" y="1796" type="qcurve"/>
      <point x="168" y="1796"/>
      <point x="80" y="1903"/>
      <point x="90" y="1972" type="qcurve"/>
      <point x="99" y="2035"/>
      <point x="201" y="2116"/>
      <point x="258" y="2116" type="qcurve"/>
      <point x="333" y="2116"/>
      <point x="418" y="2015"/>
      <point x="406" y="1940" type="qcurve"/>
      <point x="397" y="1883"/>
      <point x="300" y="1796"/>
    </contour>
    <contour>
      <point x="810" y="1796" type="qcurve"/>
      <point x="744" y="1796"/>
      <point x="654" y="1900"/>
      <point x="666" y="1972" type="qcurve"/>
      <point x="677" y="2035"/>
      <point x="777" y="2116"/>
      <point x="834" y="2116" type="qcurve"/>
      <point x="909" y="2116"/>
      <point x="994" y="2015"/>
      <point x="982" y="1940" type="qcurve"/>
      <point x="973" y="1883"/>
      <point x="876" y="1796"/>
    </contour>
  </outline>
</glyph>
<glyph name="eth" format="2">
  <advance width="1632"/>
  <unicode hex="00F0"/>
  <outline>
    <contour>
      <point x="1526" y="1948" type="line"/>
      <point x="638" y="1552" type="line"/>
      <point x="598" y="1700" type="line"/>
      <point x="1482" y="2096" type="line"/>
    </contour>
    <contour>
      <point x="686" y="-32" type="qcurve"/>
      <point x="480" y="-32"/>
      <point x="210" y="158"/>
      <point x="100" y="490"/>
      <point x="134" y="704" type="qcurve"/>
      <point x="170" y="922"/>
      <point x="390" y="1254"/>
      <point x="700" y="1440"/>
      <point x="870" y="1440" type="qcurve"/>
      <point x="986" y="1440"/>
      <point x="1147" y="1360"/>
      <point x="1246" y="1240"/>
      <point x="1270" y="1180" type="qcurve"/>
      <point x="1290" y="1180" type="line"/>
      <point x="1266" y="1304"/>
      <point x="1138" y="1596"/>
      <point x="880" y="1886"/>
      <point x="662" y="2008" type="qcurve"/>
      <point x="794" y="2176" type="line"/>
      <point x="949" y="2089"/>
      <point x="1233" y="1819"/>
      <point x="1443" y="1460"/>
      <point x="1530" y="1015"/>
      <point x="1486" y="752" type="qcurve"/>
      <point x="1446" y="504"/>
      <point x="1221" y="153"/>
      <point x="888" y="-32"/>
    </contour>
    <contour>
      <point x="722" y="180" type="qcurve"/>
      <point x="868" y="180"/>
      <point x="1088" y="316"/>
      <point x="1226" y="546"/>
      <point x="1250" y="688" type="qcurve"/>
      <point x="1270" y="818"/>
      <point x="1222" y="1074"/>
      <point x="1056" y="1244"/>
      <point x="898" y="1244" type="qcurve"/>
      <point x="752" y="1244"/>
      <point x="532" y="1094"/>
      <point x="394" y="848"/>
      <point x="370" y="704" type="qcurve"/>
      <point x="348" y="568"/>
      <point x="399" y="329"/>
      <point x="568" y="180"/>
    </contour>
  </outline>
</glyph>
<glyph name="odieresis" format="2">
  <advance width="1680"/>
  <unicode hex="00F6"/>
  <outline>
    <contour>
      <point x="722" y="-32" type="qcurve"/>
      <point x="510" y="-32"/>
      <point x="224" y="170"/>
      <point x="107" y="534"/>
      <point x="146" y="776" type="qcurve"/>
      <point x="184" y="1012"/>
      <point x="411" y="1363"/>
      <point x="750" y="1556"/>
      <point x="954" y="1556" type="qcurve"/>
      <point x="1166" y="1556"/>
      <point x="1451" y="1353"/>
      <point x="1569" y="988"/>
      <point x="1530" y="744" type="qcurve"/>
      <point x="1492" y="510"/>
      <point x="1263" y="161"/>
      <point x="926" y="-32"/>
    </contour>
    <contour>
      <point x="726" y="180" type="qcurve"/>
      <point x="888" y="180"/>
      <point x="1127" y="346"/>
      <point x="1276" y="618"/>
      <point x="1302" y="776" type="qcurve"/>
      <point x="1326" y="926"/>
      <point x="1274" y="1185"/>
      <point x="1104" y="1344"/>
      <point x="950" y="1344" type="qcurve"/>
      <point x="788" y="1344"/>
      <point x="547" y="1176"/>
      <point x="399" y="902"/>
      <point x="374" y="744" type="qcurve"/>
      <point x="350" y="594"/>
      <point x="401" y="337"/>
      <point x="572" y="180"/>
    </contour>
    <contour>
      <point x="736" y="1792" type="qcurve"/>
      <point x="670" y="1792"/>
      <point x="582" y="1899"/>
      <point x="592" y="1968" type="qcurve"/>
      <point x="601" y="2031"/>
      <point x="703" y="2112"/>
      <point x="760" y="2112" type="qcurve"/>
      <point x="835" y="2112"/>
      <point x="920" y="2011"/>
      <point x="908" y="1936" type="qcurve"/>
      <point x="899" y="1879"/>
      <point x="802" y="1792"/>
    </contour>
    <contour>
      <point x="1312" y="1792" type="qcurve"/>
      <point x="1246" y="1792"/>
      <point x="1156" y="1896"/>
      <point x="1168" y="1968" type="qcurve"/>
      <point x="1179" y="2031"/>
      <point x="1279" y="2112"/>
      <point x="1336" y="2112" type="qcurve"/>
      <point x="1411" y="2112"/>
      <point x="1496" y="2011"/>
      <point x="1484" y="1936" type="qcurve"/>
      <point x="1475" y="1879"/>
      <point x="1378" y="1792"/>
    </contour>
  </outline>
</glyph>
<glyph name="divide" format="2">
  <advance width="1856"/>
  <unicode hex="00F7"/>
  <outline>
    <contour>
      <point x="1592" y="912" type="line"/>
      <point x="1556" y="688" type="line"/>
      <point x="276" y="688" type="line"/>
      <point x="312" y="912" type="line"/>
    </contour>
    <contour>
      <point x="832" y="104" type="qcurve"/>
      <point x="751" y="104"/>
      <point x="661" y="218"/>
      <point x="672" y="300" type="qcurve"/>
      <point x="681" y="366"/>
      <point x="792" y="460"/>
      <point x="864" y="460" type="qcurve"/>
      <point x="939" y="460"/>
      <point x="1031" y="347"/>
      <point x="1020" y="268" type="qcurve"/>
      <point x="1011" y="199"/>
      <point x="898" y="104"/>
    </contour>
    <contour>
      <point x="1004" y="1140" type="qcurve"/>
      <point x="950" y="1140"/>
      <point x="869" y="1193"/>
      <point x="831" y="1283"/>
      <point x="840" y="1336" type="qcurve"/>
      <point x="852" y="1402"/>
      <point x="964" y="1496"/>
      <point x="1036" y="1496" type="qcurve"/>
      <point x="1111" y="1496"/>
      <point x="1206" y="1382"/>
      <point x="1192" y="1304" type="qcurve"/>
      <point x="1180" y="1235"/>
      <point x="1070" y="1140"/>
    </contour>
  </outline>
</glyph>
<glyph name="oslash" format="2">
  <advance width="1680"/>
  <unicode hex="00F8"/>
  <outline>
    <contour>
      <point x="240" y="-84" type="line"/>
      <point x="104" y="20" type="line"/>
      <point x="1440" y="1608" type="line"/>
      <point x="1572" y="1504" type="line"/>
    </contour>
    <contour>
      <point x="722" y="-32" type="qcurve"/>
      <point x="510" y="-32"/>
      <point x="224" y="170"/>
      <point x="107" y="534"/>
      <point x="146" y="776" type="qcurve"/>
      <point x="184" y="1012"/>
      <point x="411" y="1363"/>
      <point x="750" y="1556"/>
      <point x="954" y="1556" type="qcurve"/>
      <point x="1166" y="1556"/>
      <point x="1451" y="1353"/>
      <point x="1569" y="988"/>
      <point x="1530" y="744" type="qcurve"/>
      <point x="1492" y="510"/>
      <point x="1263" y="161"/>
      <point x="926" y="-32"/>
    </contour>
    <contour>
      <point x="726" y="180" type="qcurve"/>
      <point x="888" y="180"/>
      <point x="1127" y="346"/>
      <point x="1276" y="618"/>
      <point x="1302" y="776" type="qcurve"/>
      <point x="1326" y="926"/>
      <point x="1274" y="1185"/>
      <point x="1104" y="1344"/>
      <point x="950" y="1344" type="qcurve"/>
      <point x="788" y="1344"/>
      <point x="547" y="1176"/>
      <point x="399" y="902"/>
      <point x="374" y="744" type="qcurve"/>
      <point x="350" y="594"/>
      <point x="401" y="337"/>
      <point x="572" y="180"/>
    </contour>
  </outline>
</glyph>
<glyph name="thorn" format="2">
  <advance width="1716"/>
  <unicode hex="00FE"/>
  <outline>
    <contour>
      <point x="428" y="2048" type="line"/>
      <point x="664" y="2048" type="line"/>
      <point x="520" y="1172" type="line"/>
      <point x="396" y="784" type="line"/>
      <point x="372" y="288" type="line"/>
      <point x="228" y="-576" type="line"/>
      <point x="-8" y="-576" type="line"/>
    </contour>
    <contour>
      <point x="444" y="1292" type="line"/>
      <point x="560" y="1292" type="line"/>
      <point x="592" y="1332"/>
      <point x="706" y="1457"/>
      <point x="898" y="1556"/>
      <point x="1048" y="1556" type="qcurve"/>
      <point x="1242" y="1556"/>
      <point x="1505" y="1362"/>
      <point x="1612" y="1006"/>
      <point x="1572" y="764" type="qcurve"/>
      <point x="1532" y="520"/>
      <point x="1307" y="163"/>
      <point x="980" y="-32"/>
      <point x="788" y="-32" type="qcurve"/>
      <point x="640" y="-32"/>
      <point x="479" y="67"/>
      <point x="404" y="194"/>
      <point x="384" y="236" type="qcurve"/>
      <point x="268" y="236" type="line"/>
    </contour>
    <contour>
      <point x="1336" y="768" type="qcurve"/>
      <point x="1362" y="930"/>
      <point x="1307" y="1191"/>
      <point x="1134" y="1344"/>
      <point x="984" y="1344" type="qcurve"/>
      <point x="840" y="1344"/>
      <point x="619" y="1199"/>
      <point x="476" y="940"/>
      <point x="448" y="768" type="qcurve"/>
      <point x="420" y="594"/>
      <point x="478" y="329"/>
      <point x="650" y="180"/>
      <point x="792" y="180" type="qcurve"/>
      <point x="940" y="180"/>
      <point x="1164" y="337"/>
      <point x="1308" y="604"/>
    </contour>
  </outline>
</glyph>
<glyph name="ydieresis" format="2">
  <advance width="1568"/>
  <unicode hex="00FF"/>
  <outline>
    <contour>
      <point x="146" y="-576" type="qcurve"/>
      <point x="86" y="-576"/>
      <point x="-5" y="-557"/>
      <point x="-22" y="-548" type="qcurve"/>
      <point x="74" y="-340" type="line"/>
      <point x="156" y="-362"/>
      <point x="285" y="-345"/>
      <point x="402" y="-236"/>
      <point x="466" y="-120" type="qcurve"/>
      <point x="532" y="0" type="line"/>
      <point x="224" y="1536" type="line"/>
      <point x="470" y="1536" type="line"/>
      <point x="690" y="308" type="line"/>
      <point x="706" y="308" type="line"/>
      <point x="1334" y="1536" type="line"/>
      <point x="1600" y="1536" type="line"/>
      <point x="658" y="-222" type="line"/>
      <point x="592" y="-345"/>
      <point x="434" y="-501"/>
      <point x="250" y="-576"/>
    </contour>
    <contour>
      <point x="680" y="1792" type="qcurve"/>
      <point x="614" y="1792"/>
      <point x="526" y="1899"/>
      <point x="536" y="1968" type="qcurve"/>
      <point x="545" y="2031"/>
      <point x="647" y="2112"/>
      <point x="704" y="2112" type="qcurve"/>
      <point x="779" y="2112"/>
      <point x="864" y="2011"/>
      <point x="852" y="1936" type="qcurve"/>
      <point x="843" y="1879"/>
      <point x="746" y="1792"/>
    </contour>
    <contour>
      <point x="1256" y="1792" type="qcurve"/>
      <point x="1190" y="1792"/>
      <point x="1100" y="1896"/>
      <point x="1112" y="1968" type="qcurve"/>
      <point x="1123" y="2031"/>
      <point x="1223" y="2112"/>
      <point x="1280" y="2112" type="qcurve"/>
      <point x="1355" y="2112"/>
      <point x="1440" y="2011"/>
      <point x="1428" y="1936" type="qcurve"/>
      <point x="1419" y="1879"/>
      <point x="1322" y="1792"/>
    </contour>
  </outline>
</glyph>
<glyph name="Hbar" format="2">
  <advance width="2188"/>
  <unicode hex="0126"/>
  <outline>
    <contour>
      <point x="2192" y="1616" type="line"/>
      <point x="2160" y="1408" type="line"/>
      <point x="244" y="1408" type="line"/>
      <point x="276" y="1616" type="line"/>
    </contour>
    <contour>
      <point x="172" y="0" type="line"/>
      <point x="512" y="2048" type="line"/>
      <point x="760" y="2048" type="line"/>
      <point x="608" y="1136" type="line"/>
      <point x="1700" y="1136" type="line"/>
      <point x="1852" y="2048" type="line"/>
      <point x="2100" y="2048" type="line"/>
      <point x="1760" y="0" type="line"/>
      <point x="1512" y="0" type="line"/>
      <point x="1664" y="916" type="line"/>
      <point x="572" y="916" type="line"/>
      <point x="420" y="0" type="line"/>
    </contour>
  </outline>
</glyph>
<glyph name="hbar" format="2">
  <advance width="1664"/>
  <unicode hex="0127"/>
  <outline>
    <contour>
      <point x="476" y="924" type="qcurve"/>
      <point x="324" y="0" type="line"/>
      <point x="88" y="0" type="line"/>
      <point x="428" y="2048" type="line"/>
      <point x="664" y="2048" type="line"/>
      <point x="540" y="1296" type="line"/>
      <point x="560" y="1296" type="line"/>
      <point x="632" y="1416"/>
      <point x="873" y="1556"/>
      <point x="1056" y="1556" type="qcurve"/>
      <point x="1212" y="1556"/>
      <point x="1427" y="1431"/>
      <point x="1516" y="1174"/>
      <point x="1484" y="976" type="qcurve"/>
      <point x="1320" y="0" type="line"/>
      <point x="1084" y="0" type="line"/>
      <point x="1244" y="960" type="line"/>
      <point x="1274" y="1143"/>
      <point x="1117" y="1344"/>
      <point x="952" y="1344" type="qcurve"/>
      <point x="836" y="1344"/>
      <point x="637" y="1246"/>
      <point x="500" y="1058"/>
    </contour>
    <contour>
      <point x="48" y="1700" type="line"/>
      <point x="80" y="1884" type="line"/>
      <point x="960" y="1884" type="line"/>
      <point x="928" y="1700" type="line"/>
    </contour>
  </outline>
</glyph>
<glyph name="dotlessi" format="2">
  <advance width="668"/>
  <unicode hex="0131"/>
  <outline>
    <contour>
      <point x="88" y="0" type="line"/>
      <point x="344" y="1536" type="line"/>
      <point x="580" y="1536" type="line"/>
      <point x="324" y="0" type="line"/>
    </contour>
  </outline>
</glyph>
<glyph name="kgreenlandic" format="2">
  <advance width="1776"/>
  <unicode hex="0138"/>
  <outline>
    <contour>
      <point x="644" y="1536" type="line"/>
      <point x="388" y="0" type="line"/>
      <point x="112" y="0" type="line"/>
      <point x="368" y="1536" type="line"/>
    </contour>
    <contour>
      <point x="1662" y="1536" type="line"/>
      <point x="760" y="658" type="line"/>
      <point x="406" y="658" type="line"/>
      <point x="400" y="894" type="line"/>
      <point x="674" y="894" type="line"/>
      <point x="1330" y="1536" type="line"/>
    </contour>
    <contour>
      <point x="1060" y="0" type="line"/>
      <point x="600" y="668" type="line"/>
      <point x="808" y="864" type="line"/>
      <point x="1408" y="0" type="line"/>
    </contour>
  </outline>
</glyph>
<glyph name="Lslash" format="2">
  <advance width="1584"/>
  <unicode hex="0141"/>
  <outline>
    <contour>
      <point x="872" y="1280" type="line"/>
      <point x="872" y="1100" type="line"/>
      <point x="60" y="844" type="line"/>
      <point x="60" y="1024" type="line"/>
    </contour>
    <contour>
      <point x="120" y="0" type="line"/>
      <point x="460" y="2048" type="line"/>
      <point x="708" y="2048" type="line"/>
      <point x="404" y="220" type="line"/>
      <point x="1356" y="220" type="line"/>
      <point x="1320" y="0" type="line"/>
    </contour>
  </outline>
</glyph>
<glyph name="lslash" format="2">
  <advance width="728"/>
  <unicode hex="0142"/>
  <unicode hex="E051"/>
  <outline>
    <contour>
      <point x="756" y="1280" type="line"/>
      <point x="728" y="1104" type="line"/>
      <point x="8" y="848" type="line"/>
      <point x="40" y="1024" type="line"/>
    </contour>
    <contour>
      <point x="428" y="2048" type="line"/>
      <point x="664" y="2048" type="line"/>
      <point x="392" y="400" type="line"/>
      <point x="374" y="289"/>
      <point x="406" y="197"/>
      <point x="484" y="200" type="qcurve"/>
      <point x="529" y="203"/>
      <point x="570" y="210"/>
      <point x="588" y="216" type="qcurve"/>
      <point x="604" y="12" type="line"/>
      <point x="571" y="3"/>
      <point x="475" y="-12"/>
      <point x="424" y="-12" type="qcurve"/>
      <point x="256" y="-12"/>
      <point x="117" y="171"/>
      <point x="144" y="336" type="qcurve"/>
    </contour>
  </outline>
</glyph>
<glyph name="Eng" format="2">
  <advance width="2120"/>
  <unicode hex="014A"/>
  <outline>
    <contour>
      <point x="1504" y="0" type="line"/>
      <point x="1744" y="0" type="line"/>
      <point x="1712" y="-164" type="line"/>
      <point x="1687" y="-295"/>
      <point x="1547" y="-479"/>
      <point x="1349" y="-576"/>
      <point x="1236" y="-576" type="qcurve"/>
      <point x="1201" y="-576"/>
      <point x="1129" y="-573"/>
      <point x="1104" y="-564" type="qcurve"/>
      <point x="1136" y="-360" type="line"/>
      <point x="1151" y="-363"/>
      <point x="1191" y="-368"/>
      <point x="1212" y="-368" type="qcurve"/>
      <point x="1308" y="-368"/>
      <point x="1448" y="-279"/>
      <point x="1472" y="-160" type="qcurve"/>
    </contour>
    <contour>
      <point x="2084" y="2048" type="line"/>
      <point x="1744" y="0" type="line"/>
      <point x="1504" y="0" type="line"/>
      <point x="656" y="1608" type="line"/>
      <point x="636" y="1608" type="line"/>
      <point x="368" y="0" type="line"/>
      <point x="120" y="0" type="line"/>
      <point x="460" y="2048" type="line"/>
      <point x="700" y="2048" type="line"/>
      <point x="1552" y="436" type="line"/>
      <point x="1572" y="436" type="line"/>
      <point x="1840" y="2048" type="line"/>
    </contour>
  </outline>
</glyph>
<glyph name="eng" format="2">
  <advance width="1648"/>
  <unicode hex="014B"/>
  <outline>
    <contour>
      <point x="1068" y="0" type="line"/>
      <point x="1304" y="0" type="line"/>
      <point x="1276" y="-164" type="line"/>
      <point x="1254" y="-296"/>
      <point x="1117" y="-480"/>
      <point x="920" y="-576"/>
      <point x="808" y="-576" type="qcurve"/>
      <point x="772" y="-576"/>
      <point x="700" y="-573"/>
      <point x="676" y="-564" type="qcurve"/>
      <point x="708" y="-364" type="line"/>
      <point x="723" y="-367"/>
      <point x="763" y="-372"/>
      <point x="784" y="-372" type="qcurve"/>
      <point x="880" y="-372"/>
      <point x="1020" y="-283"/>
      <point x="1040" y="-164" type="qcurve"/>
    </contour>
    <contour>
      <point x="476" y="924" type="qcurve"/>
      <point x="324" y="0" type="line"/>
      <point x="88" y="0" type="line"/>
      <point x="344" y="1536" type="line"/>
      <point x="572" y="1536" type="line"/>
      <point x="532" y="1296" type="line"/>
      <point x="552" y="1296" type="line"/>
      <point x="624" y="1413"/>
      <point x="870" y="1556"/>
      <point x="1044" y="1556" type="qcurve"/>
      <point x="1198" y="1556"/>
      <point x="1411" y="1429"/>
      <point x="1500" y="1172"/>
      <point x="1468" y="976" type="qcurve"/>
      <point x="1304" y="0" type="line"/>
      <point x="1068" y="0" type="line"/>
      <point x="1228" y="960" type="line"/>
      <point x="1258" y="1140"/>
      <point x="1105" y="1344"/>
      <point x="940" y="1344" type="qcurve"/>
      <point x="826" y="1344"/>
      <point x="633" y="1246"/>
      <point x="500" y="1058"/>
    </contour>
  </outline>
</glyph>
<glyph name="OE" format="2">
  <advance width="2684"/>
  <unicode hex="0152"/>
  <outline>
    <contour>
      <point x="940" y="0" type="line"/>
      <point x="671" y="0"/>
      <point x="307" y="257"/>
      <point x="157" y="718"/>
      <point x="208" y="1024" type="qcurve"/>
      <point x="259" y="1332"/>
      <point x="562" y="1793"/>
      <point x="1010" y="2048"/>
      <point x="1280" y="2048" type="qcurve"/>
      <point x="2692" y="2048" type="line"/>
      <point x="2656" y="1828" type="line"/>
      <point x="1668" y="1828" type="line"/>
      <point x="1552" y="1136" type="line"/>
      <point x="2476" y="1136" type="line"/>
      <point x="2440" y="916" type="line"/>
      <point x="1516" y="916" type="line"/>
      <point x="1400" y="220" type="line"/>
      <point x="2404" y="220" type="line"/>
      <point x="2368" y="0" type="line"/>
    </contour>
    <contour>
      <point x="1153" y="220" type="line"/>
      <point x="1419" y="1828" type="line"/>
      <point x="1244" y="1828" type="line"/>
      <point x="1046" y="1828"/>
      <point x="714" y="1628"/>
      <point x="488" y="1266"/>
      <point x="448" y="1024" type="qcurve"/>
      <point x="408" y="784"/>
      <point x="515" y="422"/>
      <point x="781" y="220"/>
      <point x="980" y="220" type="qcurve"/>
    </contour>
  </outline>
</glyph>
<glyph name="tbar" format="2">
  <advance width="1024"/>
  <unicode hex="0167"/>
  <outline>
    <contour>
      <point x="104" y="840" type="line"/>
      <point x="136" y="1024" type="line"/>
      <point x="932" y="1024" type="line"/>
      <point x="900" y="840" type="line"/>
    </contour>
    <contour>
      <point x="1012" y="1536" type="line"/>
      <point x="980" y="1336" type="line"/>
      <point x="184" y="1336" type="line"/>
      <point x="216" y="1536" type="line"/>
    </contour>
    <contour>
      <point x="508" y="1904" type="line"/>
      <point x="744" y="1904" type="line"/>
      <point x="500" y="440" type="line"/>
      <point x="484" y="340"/>
      <point x="527" y="241"/>
      <point x="616" y="208"/>
      <point x="668" y="208" type="qcurve"/>
      <point x="707" y="208"/>
      <point x="757" y="217"/>
      <point x="772" y="220" type="qcurve"/>
      <point x="788" y="8" type="line"/>
      <point x="761" y="-1"/>
      <point x="670" y="-20"/>
      <point x="604" y="-20" type="qcurve"/>
      <point x="504" y="-20"/>
      <point x="328" y="66"/>
      <point x="234" y="242"/>
      <point x="256" y="376" type="qcurve"/>
    </contour>
  </outline>
</glyph>
<glyph name="Ydieresis" format="2">
  <advance width="1872"/>
  <unicode hex="0178"/>
  <outline>
    <contour>
      <point x="284" y="2048" type="line"/>
      <point x="568" y="2048" type="line"/>
      <point x="980" y="1092" type="line"/>
      <point x="1004" y="1092" type="line"/>
      <point x="1728" y="2048" type="line"/>
      <point x="2012" y="2048" type="line"/>
      <point x="1072" y="844" type="line"/>
      <point x="932" y="0" type="line"/>
      <point x="684" y="0" type="line"/>
      <point x="824" y="844" type="line"/>
    </contour>
    <contour>
      <point x="918" y="2304" type="qcurve"/>
      <point x="852" y="2304"/>
      <point x="764" y="2411"/>
      <point x="774" y="2480" type="qcurve"/>
      <point x="783" y="2543"/>
      <point x="885" y="2624"/>
      <point x="942" y="2624" type="qcurve"/>
      <point x="1017" y="2624"/>
      <point x="1102" y="2523"/>
      <point x="1090" y="2448" type="qcurve"/>
      <point x="1081" y="2391"/>
      <point x="984" y="2304"/>
    </contour>
    <contour>
      <point x="1494" y="2304" type="qcurve"/>
      <point x="1428" y="2304"/>
      <point x="1338" y="2408"/>
      <point x="1350" y="2480" type="qcurve"/>
      <point x="1361" y="2543"/>
      <point x="1461" y="2624"/>
      <point x="1518" y="2624" type="qcurve"/>
      <point x="1593" y="2624"/>
      <point x="1678" y="2523"/>
      <point x="1666" y="2448" type="qcurve"/>
      <point x="1657" y="2391"/>
      <point x="1560" y="2304"/>
    </contour>
  </outline>
</glyph>
<glyph name="zcaron" format="2">
  <advance width="1524"/>
  <unicode hex="017E"/>
  <outline>
    <contour>
      <point x="44" y="0" type="line"/>
      <point x="76" y="180" type="line"/>
      <point x="1132" y="1300" type="line"/>
      <point x="1136" y="1316" type="line"/>
      <point x="292" y="1316" type="line"/>
      <point x="328" y="1536" type="line"/>
      <point x="1476" y="1536" type="line"/>
      <point x="1444" y="1348" type="line"/>
      <point x="412" y="236" type="line"/>
      <point x="408" y="220" type="line"/>
      <point x="1284" y="220" type="line"/>
      <point x="1248" y="0" type="line"/>
    </contour>
    <contour>
      <point x="778" y="2152" type="line"/>
      <point x="940" y="1872" type="line"/>
      <point x="1194" y="2152" type="line"/>
      <point x="1418" y="2152" type="line"/>
      <point x="1416" y="2136" type="line"/>
      <point x="1024" y="1720" type="line"/>
      <point x="808" y="1720" type="line"/>
      <point x="552" y="2136" type="line"/>
      <point x="554" y="2152" type="line"/>
    </contour>
  </outline>
</glyph>
<glyph name="longs" format="2">
  <advance width="752"/>
  <unicode hex="017F"/>
  <outline>
    <contour>
      <point x="188" y="0" type="line"/>
      <point x="-88" y="0" type="line"/>
      <point x="184" y="1642" type="line"/>
      <point x="211" y="1804"/>
      <point x="363" y="2027"/>
      <point x="596" y="2142"/>
      <point x="744" y="2142" type="qcurve"/>
      <point x="792" y="2142"/>
      <point x="888" y="2126"/>
      <point x="936" y="2114" type="qcurve"/>
      <point x="868" y="1910" type="line"/>
      <point x="847" y="1916"/>
      <point x="788" y="1922"/>
      <point x="752" y="1922" type="qcurve"/>
      <point x="632" y="1922"/>
      <point x="482" y="1774"/>
      <point x="460" y="1642" type="qcurve"/>
    </contour>
  </outline>
</glyph>
<glyph name="Bhook" format="2">
  <advance width="2260"/>
  <unicode hex="0181"/>
  <outline>
    <contour>
      <point x="920" y="1828" type="line"/>
      <point x="724" y="1828" type="line"/>
      <point x="645" y="1828"/>
      <point x="556" y="1757"/>
      <point x="514" y="1644"/>
      <point x="504" y="1580" type="qcurve"/>
      <point x="492" y="1504" type="line"/>
      <point x="260" y="1504" type="line"/>
      <point x="280" y="1640" type="line"/>
      <point x="297" y="1753"/>
      <point x="422" y="1938"/>
      <point x="625" y="2048"/>
      <point x="756" y="2048" type="qcurve"/>
      <point x="956" y="2048" type="line"/>
    </contour>
    <contour>
      <point x="548" y="0" type="line"/>
      <point x="888" y="2048" type="line"/>
      <point x="1604" y="2048" type="line"/>
      <point x="1818" y="2048"/>
      <point x="2072" y="1901"/>
      <point x="2166" y="1654"/>
      <point x="2140" y="1504" type="qcurve"/>
      <point x="2107" y="1306"/>
      <point x="1875" y="1112"/>
      <point x="1740" y="1076" type="qcurve"/>
      <point x="1736" y="1056" type="line"/>
      <point x="1828" y="1050"/>
      <point x="1998" y="930"/>
      <point x="2090" y="706"/>
      <point x="2064" y="544" type="qcurve"/>
      <point x="2038" y="390"/>
      <point x="1856" y="144"/>
      <point x="1530" y="0"/>
      <point x="1288" y="0" type="qcurve"/>
    </contour>
    <contour>
      <point x="832" y="220" type="line"/>
      <point x="1324" y="220" type="line"/>
      <point x="1567" y="220"/>
      <point x="1804" y="409"/>
      <point x="1828" y="544" type="qcurve"/>
      <point x="1844" y="648"/>
      <point x="1767" y="825"/>
      <point x="1590" y="932"/>
      <point x="1456" y="932" type="qcurve"/>
      <point x="952" y="932" type="line"/>
    </contour>
    <contour>
      <point x="988" y="1148" type="line"/>
      <point x="1448" y="1148" type="line"/>
      <point x="1560" y="1148"/>
      <point x="1756" y="1236"/>
      <point x="1888" y="1396"/>
      <point x="1904" y="1504" type="qcurve"/>
      <point x="1928" y="1639"/>
      <point x="1772" y="1828"/>
      <point x="1568" y="1828" type="qcurve"/>
      <point x="1100" y="1828" type="line"/>
    </contour>
  </outline>
</glyph>
<glyph name="Btopbar" format="2">
  <advance width="1840"/>
  <unicode hex="0182"/>
  <outline>
    <contour>
      <point x="120" y="0" type="line"/>
      <point x="460" y="2048" type="line"/>
      <point x="1696" y="2048" type="line"/>
      <point x="1660" y="1828" type="line"/>
      <point x="672" y="1828" type="line"/>
      <point x="564" y="1188" type="line"/>
      <point x="1084" y="1188" type="line"/>
      <point x="1305" y="1188"/>
      <point x="1585" y="1044"/>
      <point x="1698" y="782"/>
      <point x="1668" y="604" type="qcurve"/>
      <point x="1639" y="426"/>
      <point x="1438" y="154"/>
      <point x="1109" y="0"/>
      <point x="888" y="0" type="qcurve"/>
    </contour>
    <contour>
      <point x="404" y="216" type="line"/>
      <point x="924" y="216" type="line"/>
      <point x="1065" y="216"/>
      <point x="1278" y="329"/>
      <point x="1408" y="508"/>
      <point x="1424" y="608" type="qcurve"/>
      <point x="1450" y="755"/>
      <point x="1259" y="968"/>
      <point x="1048" y="968" type="qcurve"/>
      <point x="528" y="968" type="line"/>
    </contour>
  </outline>
</glyph>
<glyph name="Tonesix" format="2">
  <advance width="2012"/>
  <unicode hex="0184"/>
  <outline>
    <contour>
      <point x="968" y="2048" type="line"/>
      <point x="932" y="1828" type="line"/>
      <point x="204" y="1828" type="line"/>
      <point x="240" y="2048" type="line"/>
    </contour>
    <contour>
      <point x="760" y="1188" type="line"/>
      <point x="1344" y="1188" type="line"/>
      <point x="1564" y="1188"/>
      <point x="1844" y="1044"/>
      <point x="1958" y="782"/>
      <point x="1928" y="604" type="qcurve"/>
      <point x="1898" y="426"/>
      <point x="1696" y="154"/>
      <point x="1368" y="0"/>
      <point x="1148" y="0" type="qcurve"/>
      <point x="380" y="0" type="line"/>
      <point x="720" y="2048" type="line"/>
      <point x="968" y="2048" type="line"/>
      <point x="664" y="216" type="line"/>
      <point x="1184" y="216" type="line"/>
      <point x="1324" y="216"/>
      <point x="1537" y="329"/>
      <point x="1668" y="508"/>
      <point x="1684" y="608" type="qcurve"/>
      <point x="1708" y="755"/>
      <point x="1518" y="968"/>
      <point x="1308" y="968" type="qcurve"/>
      <point x="724" y="968" type="line"/>
    </contour>
  </outline>
</glyph>
<glyph name="tonesix" format="2">
  <advance width="1776"/>
  <unicode hex="0185"/>
  <outline>
    <contour>
      <point x="552" y="2112" type="line"/>
      <point x="616" y="2112" type="line"/>
      <point x="504" y="1440" type="line"/>
      <point x="440" y="1440" type="line"/>
      <point x="260" y="1720" type="line"/>
      <point x="280" y="1832" type="line"/>
    </contour>
    <contour>
      <point x="576" y="1292" type="line"/>
      <point x="692" y="1292" type="line"/>
      <point x="724" y="1332"/>
      <point x="838" y="1457"/>
      <point x="1030" y="1556"/>
      <point x="1180" y="1556" type="qcurve"/>
      <point x="1374" y="1556"/>
      <point x="1637" y="1362"/>
      <point x="1744" y="1006"/>
      <point x="1704" y="764" type="qcurve"/>
      <point x="1664" y="520"/>
      <point x="1439" y="163"/>
      <point x="1112" y="-32"/>
      <point x="920" y="-32" type="qcurve"/>
      <point x="772" y="-32"/>
      <point x="611" y="67"/>
      <point x="536" y="194"/>
      <point x="516" y="236" type="qcurve"/>
      <point x="400" y="236" type="line"/>
    </contour>
    <contour>
      <point x="1468" y="768" type="qcurve"/>
      <point x="1494" y="930"/>
      <point x="1439" y="1191"/>
      <point x="1266" y="1344"/>
      <point x="1116" y="1344" type="qcurve"/>
      <point x="972" y="1344"/>
      <point x="751" y="1199"/>
      <point x="608" y="940"/>
      <point x="580" y="768" type="qcurve"/>
      <point x="552" y="594"/>
      <point x="610" y="329"/>
      <point x="782" y="180"/>
      <point x="924" y="180" type="qcurve"/>
      <point x="1072" y="180"/>
      <point x="1296" y="337"/>
      <point x="1440" y="604"/>
    </contour>
    <contour>
      <point x="560" y="2048" type="line"/>
      <point x="796" y="2048" type="line"/>
      <point x="652" y="1172" type="line"/>
      <point x="508" y="784" type="line"/>
      <point x="496" y="288" type="line"/>
      <point x="448" y="0" type="line"/>
      <point x="220" y="0" type="line"/>
    </contour>
  </outline>
</glyph>
<glyph name="Oopen" format="2">
  <advance width="2048"/>
  <unicode hex="0186"/>
  <outline>
    <contour>
      <point x="132" y="640" type="qcurve"/>
      <point x="376" y="640" type="line"/>
      <point x="381" y="534"/>
      <point x="460" y="371"/>
      <point x="595" y="260"/>
      <point x="769" y="204"/>
      <point x="868" y="204" type="qcurve"/>
      <point x="1058" y="204"/>
      <point x="1398" y="397"/>
      <point x="1640" y="770"/>
      <point x="1684" y="1040" type="qcurve"/>
      <point x="1728" y="1302"/>
      <point x="1614" y="1660"/>
      <point x="1350" y="1844"/>
      <point x="1168" y="1844" type="qcurve"/>
      <point x="1063" y="1844"/>
      <point x="860" y="1788"/>
      <point x="683" y="1677"/>
      <point x="545" y="1515"/>
      <point x="504" y="1408" type="qcurve"/>
      <point x="256" y="1408" type="line"/>
      <point x="312" y="1566"/>
      <point x="498" y="1813"/>
      <point x="742" y="1986"/>
      <point x="1025" y="2076"/>
      <point x="1176" y="2076" type="qcurve"/>
      <point x="1442" y="2076"/>
      <point x="1815" y="1815"/>
      <point x="1974" y="1336"/>
      <point x="1920" y="1008" type="qcurve"/>
      <point x="1866" y="688"/>
      <point x="1560" y="223"/>
      <point x="1116" y="-28"/>
      <point x="856" y="-28" type="qcurve"/>
      <point x="700" y="-28"/>
      <point x="438" y="62"/>
      <point x="244" y="235"/>
      <point x="135" y="483"/>
    </contour>
  </outline>
</glyph>
<glyph name="Chook" format="2">
  <advance width="2172"/>
  <unicode hex="0187"/>
  <outline>
    <contour>
      <point x="2000" y="1408" type="line"/>
      <point x="1764" y="1408" type="line"/>
      <point x="1808" y="1664" type="line"/>
      <point x="1831" y="1796"/>
      <point x="1967" y="1980"/>
      <point x="2164" y="2076"/>
      <point x="2276" y="2076" type="qcurve"/>
      <point x="2311" y="2076"/>
      <point x="2383" y="2073"/>
      <point x="2408" y="2064" type="qcurve"/>
      <point x="2376" y="1864" type="line"/>
      <point x="2362" y="1867"/>
      <point x="2323" y="1872"/>
      <point x="2300" y="1872" type="qcurve"/>
      <point x="2237" y="1872"/>
      <point x="2131" y="1835"/>
      <point x="2058" y="1744"/>
      <point x="2044" y="1664" type="qcurve"/>
    </contour>
    <contour>
      <point x="2000" y="1408" type="qcurve"/>
      <point x="1756" y="1408" type="line"/>
      <point x="1752" y="1515"/>
      <point x="1672" y="1677"/>
      <point x="1537" y="1788"/>
      <point x="1363" y="1844"/>
      <point x="1264" y="1844" type="qcurve"/>
      <point x="1074" y="1844"/>
      <point x="734" y="1651"/>
      <point x="492" y="1278"/>
      <point x="448" y="1008" type="qcurve"/>
      <point x="404" y="746"/>
      <point x="518" y="388"/>
      <point x="782" y="204"/>
      <point x="964" y="204" type="qcurve"/>
      <point x="1069" y="204"/>
      <point x="1272" y="260"/>
      <point x="1449" y="371"/>
      <point x="1588" y="534"/>
      <point x="1628" y="640" type="qcurve"/>
      <point x="1876" y="640" type="line"/>
      <point x="1821" y="483"/>
      <point x="1634" y="235"/>
      <point x="1390" y="62"/>
      <point x="1108" y="-28"/>
      <point x="956" y="-28" type="qcurve"/>
      <point x="690" y="-28"/>
      <point x="317" y="233"/>
      <point x="158" y="712"/>
      <point x="212" y="1040" type="qcurve"/>
      <point x="266" y="1360"/>
      <point x="572" y="1825"/>
      <point x="1016" y="2076"/>
      <point x="1276" y="2076" type="qcurve"/>
      <point x="1432" y="2076"/>
      <point x="1694" y="1986"/>
      <point x="1888" y="1813"/>
      <point x="1997" y="1566"/>
    </contour>
  </outline>
</glyph>
<glyph name="chook" format="2">
  <advance width="1720"/>
  <unicode hex="0188"/>
  <outline>
    <contour>
      <point x="1496" y="1076" type="line"/>
      <point x="1260" y="1076" type="line"/>
      <point x="1296" y="1276" type="line"/>
      <point x="1320" y="1408"/>
      <point x="1456" y="1592"/>
      <point x="1652" y="1688"/>
      <point x="1764" y="1688" type="qcurve"/>
      <point x="1799" y="1688"/>
      <point x="1871" y="1685"/>
      <point x="1896" y="1676" type="qcurve"/>
      <point x="1864" y="1476" type="line"/>
      <point x="1849" y="1479"/>
      <point x="1810" y="1484"/>
      <point x="1788" y="1484" type="qcurve"/>
      <point x="1693" y="1484"/>
      <point x="1554" y="1395"/>
      <point x="1532" y="1276" type="qcurve"/>
    </contour>
    <contour>
      <point x="708" y="-32" type="qcurve"/>
      <point x="491" y="-32"/>
      <point x="214" y="172"/>
      <point x="106" y="530"/>
      <point x="144" y="760" type="qcurve"/>
      <point x="182" y="994"/>
      <point x="414" y="1353"/>
      <point x="760" y="1556"/>
      <point x="968" y="1556" type="qcurve"/>
      <point x="1210" y="1556"/>
      <point x="1501" y="1292"/>
      <point x="1496" y="1076" type="qcurve"/>
      <point x="1260" y="1076" type="line"/>
      <point x="1250" y="1181"/>
      <point x="1091" y="1344"/>
      <point x="936" y="1344" type="qcurve"/>
      <point x="798" y="1344"/>
      <point x="566" y="1201"/>
      <point x="408" y="942"/>
      <point x="380" y="768" type="qcurve"/>
      <point x="350" y="590"/>
      <point x="420" y="326"/>
      <point x="604" y="180"/>
      <point x="744" y="180" type="qcurve"/>
      <point x="836" y="180"/>
      <point x="996" y="244"/>
      <point x="1120" y="364"/>
      <point x="1156" y="448" type="qcurve"/>
      <point x="1392" y="448" type="line"/>
      <point x="1348" y="312"/>
      <point x="1154" y="95"/>
      <point x="878" y="-32"/>
    </contour>
  </outline>
</glyph>
<glyph name="Dafrican" format="2">
  <advance width="2024"/>
  <unicode hex="0189"/>
  <outline>
    <contour>
      <point x="760" y="0" type="qcurve"/>
      <point x="260" y="0" type="line"/>
      <point x="296" y="220" type="line"/>
      <point x="768" y="220" type="line"/>
      <point x="1022" y="220"/>
      <point x="1391" y="420"/>
      <point x="1618" y="790"/>
      <point x="1660" y="1044" type="qcurve"/>
      <point x="1702" y="1288"/>
      <point x="1603" y="1639"/>
      <point x="1316" y="1828"/>
      <point x="1076" y="1828" type="qcurve"/>
      <point x="552" y="1828" type="line"/>
      <point x="588" y="2048" type="line"/>
      <point x="1112" y="2048" type="line"/>
      <point x="1410" y="2048"/>
      <point x="1797" y="1798"/>
      <point x="1950" y="1334"/>
      <point x="1896" y="1012" type="qcurve"/>
      <point x="1844" y="696"/>
      <point x="1545" y="243"/>
      <point x="1072" y="0"/>
    </contour>
    <contour>
      <point x="708" y="2048" type="line"/>
      <point x="368" y="0" type="line"/>
      <point x="120" y="0" type="line"/>
      <point x="460" y="2048" type="line"/>
    </contour>
    <contour>
      <point x="12" y="964" type="line"/>
      <point x="44" y="1148" type="line"/>
      <point x="924" y="1148" type="line"/>
      <point x="892" y="964" type="line"/>
    </contour>
  </outline>
</glyph>
<glyph name="Dhook" format="2">
  <advance width="2468"/>
  <unicode hex="018A"/>
  <outline>
    <contour>
      <point x="260" y="1504" type="line"/>
      <point x="280" y="1640" type="line"/>
      <point x="296" y="1752"/>
      <point x="421" y="1937"/>
      <point x="624" y="2048"/>
      <point x="756" y="2048" type="qcurve"/>
      <point x="956" y="2048" type="line"/>
      <point x="920" y="1828" type="line"/>
      <point x="724" y="1828" type="line"/>
      <point x="604" y="1828"/>
      <point x="519" y="1676"/>
      <point x="504" y="1580" type="qcurve"/>
      <point x="492" y="1504" type="line"/>
    </contour>
    <contour>
      <point x="1204" y="0" type="qcurve"/>
      <point x="564" y="0" type="line"/>
      <point x="904" y="2048" type="line"/>
      <point x="1556" y="2048" type="line"/>
      <point x="1854" y="2048"/>
      <point x="2241" y="1798"/>
      <point x="2394" y="1334"/>
      <point x="2340" y="1012" type="qcurve"/>
      <point x="2288" y="696"/>
      <point x="1989" y="243"/>
      <point x="1516" y="0"/>
    </contour>
    <contour>
      <point x="849" y="220" type="line"/>
      <point x="1212" y="220" type="line"/>
      <point x="1466" y="220"/>
      <point x="1835" y="420"/>
      <point x="2062" y="790"/>
      <point x="2104" y="1044" type="qcurve"/>
      <point x="2146" y="1288"/>
      <point x="2047" y="1639"/>
      <point x="1760" y="1828"/>
      <point x="1520" y="1828" type="qcurve"/>
      <point x="1115" y="1828" type="line"/>
    </contour>
  </outline>
</glyph>
<glyph name="Dtopbar" format="2">
  <advance width="1776"/>
  <unicode hex="018B"/>
  <outline>
    <contour>
      <point x="1484" y="0" type="line"/>
      <point x="720" y="0" type="line"/>
      <point x="500" y="0"/>
      <point x="220" y="154"/>
      <point x="106" y="426"/>
      <point x="136" y="604" type="qcurve"/>
      <point x="166" y="782"/>
      <point x="370" y="1048"/>
      <point x="700" y="1196"/>
      <point x="920" y="1196" type="qcurve"/>
      <point x="1400" y="1196" type="line"/>
      <point x="1496" y="1772" type="line"/>
      <point x="548" y="1772" type="line"/>
      <point x="584" y="2004" type="line"/>
      <point x="1816" y="2004" type="line"/>
    </contour>
    <contour>
      <point x="1240" y="228" type="line"/>
      <point x="1360" y="964" type="line"/>
      <point x="880" y="964" type="line"/>
      <point x="667" y="964"/>
      <point x="448" y="755"/>
      <point x="424" y="608" type="qcurve"/>
      <point x="408" y="508"/>
      <point x="460" y="335"/>
      <point x="618" y="228"/>
      <point x="760" y="228" type="qcurve"/>
    </contour>
  </outline>
</glyph>
<glyph name="dtopbar" format="2">
  <advance width="1750"/>
  <unicode hex="018C"/>
  <outline>
    <contour>
      <point x="562" y="2048" type="line"/>
      <point x="1510" y="2048" type="line"/>
      <point x="1474" y="1828" type="line"/>
      <point x="526" y="1828" type="line"/>
    </contour>
    <contour>
      <point x="1374" y="0" type="line"/>
      <point x="1146" y="0" type="line"/>
      <point x="1186" y="236" type="line"/>
      <point x="1158" y="236" type="line"/>
      <point x="1125" y="194"/>
      <point x="1008" y="67"/>
      <point x="814" y="-32"/>
      <point x="666" y="-32" type="qcurve"/>
      <point x="474" y="-32"/>
      <point x="212" y="163"/>
      <point x="106" y="520"/>
      <point x="146" y="764" type="qcurve"/>
      <point x="186" y="1006"/>
      <point x="410" y="1362"/>
      <point x="738" y="1556"/>
      <point x="932" y="1556" type="qcurve"/>
      <point x="1082" y="1556"/>
      <point x="1241" y="1457"/>
      <point x="1313" y="1332"/>
      <point x="1332" y="1292" type="qcurve"/>
      <point x="1352" y="1292" type="line"/>
      <point x="1478" y="2048" type="line"/>
      <point x="1714" y="2048" type="line"/>
    </contour>
    <contour>
      <point x="1270" y="768" type="qcurve"/>
      <point x="1299" y="940"/>
      <point x="1241" y="1199"/>
      <point x="1070" y="1344"/>
      <point x="926" y="1344" type="qcurve"/>
      <point x="776" y="1344"/>
      <point x="551" y="1191"/>
      <point x="409" y="930"/>
      <point x="382" y="768" type="qcurve"/>
      <point x="355" y="604"/>
      <point x="412" y="337"/>
      <point x="585" y="180"/>
      <point x="732" y="180" type="qcurve"/>
      <point x="875" y="180"/>
      <point x="1096" y="329"/>
      <point x="1241" y="594"/>
    </contour>
  </outline>
</glyph>
<glyph name="deltaturned" format="2">
  <advance width="1520"/>
  <unicode hex="018D"/>
  <outline>
    <contour>
      <point x="1024" y="-516" type="line"/>
      <point x="48" y="-516" type="line"/>
      <point x="84" y="-304" type="line"/>
      <point x="692" y="-304" type="line"/>
      <point x="678" y="-282"/>
      <point x="598" y="-188"/>
      <point x="502" y="-84"/>
      <point x="464" y="-48" type="qcurve"/>
      <point x="338" y="80"/>
      <point x="156" y="330"/>
      <point x="73" y="600"/>
      <point x="96" y="756" type="qcurve"/>
      <point x="100" y="784" type="line"/>
      <point x="134" y="1012"/>
      <point x="345" y="1360"/>
      <point x="674" y="1556"/>
      <point x="884" y="1556" type="qcurve"/>
      <point x="1094" y="1556"/>
      <point x="1361" y="1360"/>
      <point x="1466" y="1012"/>
      <point x="1432" y="784" type="qcurve"/>
      <point x="1428" y="756" type="line"/>
      <point x="1404" y="592"/>
      <point x="1211" y="313"/>
      <point x="900" y="128"/>
      <point x="700" y="104" type="qcurve"/>
      <point x="676" y="101"/>
      <point x="663" y="100"/>
      <point x="648" y="100" type="qcurve"/>
      <point x="699" y="45"/>
      <point x="807" y="-68"/>
      <point x="914" y="-181"/>
      <point x="1012" y="-295"/>
      <point x="1052" y="-352" type="qcurve"/>
    </contour>
    <contour>
      <point x="1152" y="756" type="qcurve"/>
      <point x="1156" y="784" type="line"/>
      <point x="1180" y="942"/>
      <point x="1137" y="1192"/>
      <point x="986" y="1336"/>
      <point x="848" y="1336" type="qcurve"/>
      <point x="712" y="1336"/>
      <point x="516" y="1192"/>
      <point x="396" y="942"/>
      <point x="372" y="784" type="qcurve"/>
      <point x="368" y="756" type="line"/>
      <point x="344" y="593"/>
      <point x="452" y="351"/>
      <point x="536" y="288" type="qcurve"/>
      <point x="563" y="279"/>
      <point x="616" y="272"/>
      <point x="652" y="272" type="qcurve"/>
      <point x="796" y="272"/>
      <point x="1004" y="407"/>
      <point x="1130" y="628"/>
    </contour>
  </outline>
</glyph>
<glyph name="Ereversed" format="2">
  <advance width="1684"/>
  <unicode hex="018E"/>
  <outline>
    <contour>
      <point x="1648" y="2048" type="line"/>
      <point x="1308" y="0" type="line"/>
      <point x="72" y="0" type="line"/>
      <point x="108" y="220" type="line"/>
      <point x="1096" y="220" type="line"/>
      <point x="1212" y="912" type="line"/>
      <point x="288" y="912" type="line"/>
      <point x="324" y="1132" type="line"/>
      <point x="1248" y="1132" type="line"/>
      <point x="1364" y="1828" type="line"/>
      <point x="360" y="1828" type="line"/>
      <point x="396" y="2048" type="line"/>
    </contour>
  </outline>
</glyph>
<glyph name="Schwa" format="2">
  <advance width="2032"/>
  <unicode hex="018F"/>
  <outline>
    <contour>
      <point x="854" y="-28" type="qcurve"/>
      <point x="616" y="-28"/>
      <point x="293" y="188"/>
      <point x="161" y="599"/>
      <point x="208" y="892" type="qcurve"/>
      <point x="236" y="1064" type="line"/>
      <point x="1720" y="1064" type="line"/>
      <point x="1684" y="848" type="line"/>
      <point x="484" y="848" type="line"/>
      <point x="478" y="804" type="line"/>
      <point x="451" y="607"/>
      <point x="531" y="339"/>
      <point x="733" y="204"/>
      <point x="888" y="204" type="qcurve"/>
      <point x="1074" y="204"/>
      <point x="1363" y="389"/>
      <point x="1553" y="721"/>
      <point x="1588" y="940" type="qcurve"/>
      <point x="1614" y="1100" type="line"/>
      <point x="1643" y="1276"/>
      <point x="1606" y="1551"/>
      <point x="1477" y="1741"/>
      <point x="1255" y="1840"/>
      <point x="1098" y="1840" type="qcurve"/>
      <point x="1024" y="1840"/>
      <point x="863" y="1818"/>
      <point x="695" y="1772"/>
      <point x="608" y="1736" type="qcurve"/>
      <point x="574" y="1944" type="line"/>
      <point x="624" y="1973"/>
      <point x="758" y="2021"/>
      <point x="911" y="2057"/>
      <point x="1073" y="2076"/>
      <point x="1152" y="2076" type="qcurve"/>
      <point x="1431" y="2076"/>
      <point x="1800" y="1838"/>
      <point x="1951" y="1401"/>
      <point x="1902" y="1100" type="qcurve"/>
      <point x="1876" y="940" type="line"/>
      <point x="1831" y="663"/>
      <point x="1548" y="225"/>
      <point x="1118" y="-28"/>
    </contour>
  </outline>
</glyph>
<glyph name="Eopen" format="2">
  <advance width="1776"/>
  <unicode hex="0190"/>
  <outline>
    <contour>
      <point x="1144" y="980" type="line"/>
      <point x="912" y="980" type="line"/>
      <point x="713" y="980"/>
      <point x="426" y="1107"/>
      <point x="291" y="1346"/>
      <point x="318" y="1514" type="qcurve"/>
      <point x="347" y="1690"/>
      <point x="573" y="1942"/>
      <point x="912" y="2076"/>
      <point x="1108" y="2076" type="qcurve"/>
      <point x="1310" y="2076"/>
      <point x="1599" y="1942"/>
      <point x="1735" y="1694"/>
      <point x="1706" y="1524" type="qcurve"/>
      <point x="1422" y="1524" type="line"/>
      <point x="1446" y="1665"/>
      <point x="1262" y="1844"/>
      <point x="1070" y="1844" type="qcurve"/>
      <point x="934" y="1844"/>
      <point x="736" y="1758"/>
      <point x="617" y="1605"/>
      <point x="600" y="1504" type="qcurve"/>
      <point x="585" y="1415"/>
      <point x="639" y="1256"/>
      <point x="802" y="1156"/>
      <point x="950" y="1156" type="qcurve"/>
      <point x="1174" y="1156" type="line"/>
    </contour>
    <contour>
      <point x="932" y="1100" type="qcurve"/>
      <point x="1164" y="1100" type="line"/>
      <point x="1136" y="928" type="line"/>
      <point x="912" y="928" type="line"/>
      <point x="768" y="928"/>
      <point x="561" y="848"/>
      <point x="436" y="686"/>
      <point x="416" y="564" type="qcurve"/>
      <point x="395" y="434"/>
      <point x="483" y="274"/>
      <point x="666" y="200"/>
      <point x="786" y="200" type="qcurve"/>
      <point x="1011" y="200"/>
      <point x="1266" y="409"/>
      <point x="1290" y="556" type="qcurve"/>
      <point x="1574" y="556" type="line"/>
      <point x="1541" y="352"/>
      <point x="1294" y="94"/>
      <point x="942" y="-28"/>
      <point x="750" y="-28" type="qcurve"/>
      <point x="560" y="-28"/>
      <point x="251" y="90"/>
      <point x="91" y="342"/>
      <point x="124" y="544" type="qcurve"/>
      <point x="171" y="823"/>
      <point x="597" y="1100"/>
    </contour>
  </outline>
</glyph>
<glyph name="Fhook" format="2">
  <advance width="1652"/>
  <unicode hex="0191"/>
  <outline>
    <contour>
      <point x="120" y="0" type="line"/>
      <point x="368" y="0" type="line"/>
      <point x="340" y="-164" type="line"/>
      <point x="323" y="-264"/>
      <point x="237" y="-417"/>
      <point x="104" y="-522"/>
      <point x="-71" y="-576"/>
      <point x="-176" y="-576" type="qcurve"/>
      <point x="-194" y="-576"/>
      <point x="-238" y="-573"/>
      <point x="-268" y="-564" type="qcurve"/>
      <point x="-236" y="-360" type="line"/>
      <point x="-221" y="-363"/>
      <point x="-179" y="-368"/>
      <point x="-152" y="-368" type="qcurve"/>
      <point x="-65" y="-368"/>
      <point x="77" y="-284"/>
      <point x="96" y="-160" type="qcurve"/>
    </contour>
    <contour>
      <point x="120" y="0" type="line"/>
      <point x="460" y="2048" type="line"/>
      <point x="1688" y="2048" type="line"/>
      <point x="1652" y="1828" type="line"/>
      <point x="672" y="1828" type="line"/>
      <point x="556" y="1136" type="line"/>
      <point x="1444" y="1136" type="line"/>
      <point x="1408" y="916" type="line"/>
      <point x="520" y="916" type="line"/>
      <point x="368" y="0" type="line"/>
    </contour>
  </outline>
</glyph>
<glyph name="florin" format="2">
  <advance width="1088"/>
  <unicode hex="0192"/>
  <outline>
    <contour>
      <point x="1032" y="1488" type="line"/>
      <point x="996" y="1284" type="line"/>
      <point x="716" y="1284" type="line"/>
      <point x="488" y="-100" type="line"/>
      <point x="450" y="-331"/>
      <point x="182" y="-576"/>
      <point x="-28" y="-576" type="qcurve"/>
      <point x="-70" y="-576"/>
      <point x="-141" y="-568"/>
      <point x="-180" y="-556" type="qcurve"/>
      <point x="-124" y="-340" type="line"/>
      <point x="-103" y="-349"/>
      <point x="-10" y="-356"/>
      <point x="8" y="-356" type="qcurve"/>
      <point x="89" y="-356"/>
      <point x="221" y="-220"/>
      <point x="240" y="-100" type="qcurve"/>
      <point x="468" y="1284" type="line"/>
      <point x="220" y="1284" type="line"/>
      <point x="256" y="1488" type="line"/>
      <point x="504" y="1488" type="line"/>
      <point x="528" y="1640" type="line"/>
      <point x="567" y="1883"/>
      <point x="854" y="2140"/>
      <point x="1040" y="2140" type="qcurve"/>
      <point x="1097" y="2140"/>
      <point x="1232" y="2119"/>
      <point x="1268" y="2104" type="qcurve"/>
      <point x="1172" y="1888" type="line"/>
      <point x="1154" y="1894"/>
      <point x="1100" y="1904"/>
      <point x="1064" y="1904" type="qcurve"/>
      <point x="944" y="1904"/>
      <point x="797" y="1772"/>
      <point x="776" y="1640" type="qcurve"/>
      <point x="752" y="1488" type="line"/>
    </contour>
  </outline>
</glyph>
<glyph name="Ghook" format="2">
  <advance width="2176"/>
  <unicode hex="0193"/>
  <unicode hex="E004"/>
  <outline>
    <contour>
      <point x="2032" y="1408" type="line"/>
      <point x="1780" y="1408" type="line"/>
      <point x="1828" y="1624" type="line"/>
      <point x="1850" y="1723"/>
      <point x="1931" y="1876"/>
      <point x="2049" y="1982"/>
      <point x="2204" y="2036"/>
      <point x="2300" y="2036" type="qcurve"/>
      <point x="2336" y="2036"/>
      <point x="2408" y="2033"/>
      <point x="2432" y="2024" type="qcurve"/>
      <point x="2400" y="1824" type="line"/>
      <point x="2387" y="1827"/>
      <point x="2348" y="1832"/>
      <point x="2328" y="1832" type="qcurve"/>
      <point x="2263" y="1832"/>
      <point x="2155" y="1795"/>
      <point x="2082" y="1704"/>
      <point x="2068" y="1624" type="qcurve"/>
    </contour>
    <contour>
      <point x="950" y="-28" type="qcurve"/>
      <point x="678" y="-28"/>
      <point x="310" y="228"/>
      <point x="159" y="700"/>
      <point x="212" y="1024" type="qcurve"/>
      <point x="252" y="1267"/>
      <point x="450" y="1656"/>
      <point x="739" y="1930"/>
      <point x="1094" y="2076"/>
      <point x="1290" y="2076" type="qcurve"/>
      <point x="1452" y="2076"/>
      <point x="1720" y="1979"/>
      <point x="1917" y="1802"/>
      <point x="2028" y="1557"/>
      <point x="2032" y="1408" type="qcurve"/>
      <point x="1776" y="1408" type="line"/>
      <point x="1762" y="1509"/>
      <point x="1684" y="1670"/>
      <point x="1557" y="1784"/>
      <point x="1383" y="1844"/>
      <point x="1272" y="1844" type="qcurve"/>
      <point x="1090" y="1844"/>
      <point x="747" y="1656"/>
      <point x="496" y="1290"/>
      <point x="452" y="1024" type="qcurve"/>
      <point x="408" y="758"/>
      <point x="515" y="392"/>
      <point x="778" y="204"/>
      <point x="968" y="204" type="qcurve"/>
      <point x="1151" y="204"/>
      <point x="1465" y="365"/>
      <point x="1678" y="648"/>
      <point x="1708" y="830" type="qcurve"/>
      <point x="1736" y="804" type="line"/>
      <point x="1144" y="804" type="line"/>
      <point x="1180" y="1024" type="line"/>
      <point x="1980" y="1024" type="line"/>
      <point x="1810" y="0" type="line"/>
      <point x="1602" y="0" type="line"/>
      <point x="1614" y="250" type="line"/>
      <point x="1604" y="250" type="line"/>
      <point x="1465" y="116"/>
      <point x="1153" y="-28"/>
    </contour>
  </outline>
</glyph>
<glyph name="Gamma" format="2">
  <advance width="1776"/>
  <unicode hex="0194"/>
  <outline>
    <contour>
      <point x="240" y="2048" type="line"/>
      <point x="508" y="2048" type="line"/>
      <point x="932" y="388" type="line"/>
      <point x="980" y="204"/>
      <point x="1059" y="-42"/>
      <point x="1099" y="-208"/>
      <point x="1088" y="-272" type="qcurve"/>
      <point x="1070" y="-380"/>
      <point x="956" y="-530"/>
      <point x="776" y="-608"/>
      <point x="660" y="-608" type="qcurve"/>
      <point x="486" y="-608"/>
      <point x="317" y="-434"/>
      <point x="344" y="-272" type="qcurve"/>
      <point x="351" y="-231"/>
      <point x="389" y="-141"/>
      <point x="451" y="-32"/>
      <point x="536" y="104"/>
      <point x="643" y="278"/>
      <point x="708" y="388" type="qcurve"/>
      <point x="1692" y="2048" type="line"/>
      <point x="1960" y="2048" type="line"/>
      <point x="832" y="156" type="line"/>
      <point x="762" y="40"/>
      <point x="660" y="-121"/>
      <point x="601" y="-232"/>
      <point x="596" y="-272" type="qcurve"/>
      <point x="590" y="-320"/>
      <point x="646" y="-384"/>
      <point x="700" y="-384" type="qcurve"/>
      <point x="754" y="-384"/>
      <point x="830" y="-317"/>
      <point x="836" y="-272" type="qcurve"/>
      <point x="842" y="-232"/>
      <point x="823" y="-125"/>
      <point x="780" y="36"/>
      <point x="748" y="156" type="qcurve"/>
    </contour>
  </outline>
</glyph>
<glyph name="hv" format="2">
  <advance width="2664"/>
  <unicode hex="0195"/>
  <outline>
    <contour>
      <point x="88" y="0" type="line"/>
      <point x="428" y="2048" type="line"/>
      <point x="664" y="2048" type="line"/>
      <point x="540" y="1296" type="line"/>
      <point x="560" y="1296" type="line"/>
      <point x="632" y="1416"/>
      <point x="873" y="1556"/>
      <point x="1056" y="1556" type="qcurve"/>
      <point x="1212" y="1556"/>
      <point x="1427" y="1431"/>
      <point x="1516" y="1174"/>
      <point x="1484" y="976" type="qcurve"/>
      <point x="1448" y="768" type="line"/>
      <point x="1212" y="768" type="line"/>
      <point x="1244" y="960" type="line"/>
      <point x="1274" y="1143"/>
      <point x="1117" y="1344"/>
      <point x="952" y="1344" type="qcurve"/>
      <point x="836" y="1344"/>
      <point x="637" y="1246"/>
      <point x="500" y="1058"/>
      <point x="476" y="924" type="qcurve"/>
      <point x="324" y="0" type="line"/>
    </contour>
    <contour>
      <point x="1592" y="-28" type="qcurve"/>
      <point x="1450" y="-28"/>
      <point x="1240" y="105"/>
      <point x="1148" y="386"/>
      <point x="1184" y="608" type="qcurve"/>
      <point x="1212" y="768" type="line"/>
      <point x="1448" y="768" type="line"/>
      <point x="1420" y="608" type="line"/>
      <point x="1390" y="428"/>
      <point x="1457" y="244"/>
      <point x="1584" y="180"/>
      <point x="1644" y="180" type="qcurve"/>
      <point x="1768" y="180"/>
      <point x="2019" y="401"/>
      <point x="2234" y="904"/>
      <point x="2304" y="1328" type="qcurve"/>
      <point x="2340" y="1536" type="line"/>
      <point x="2576" y="1536" type="line"/>
      <point x="2540" y="1328" type="line"/>
      <point x="2460" y="848"/>
      <point x="2169" y="250"/>
      <point x="1796" y="-28"/>
    </contour>
  </outline>
</glyph>
<glyph name="Khook" format="2">
  <advance width="1892"/>
  <unicode hex="0198"/>
  <outline>
    <contour>
      <point x="120" y="0" type="line"/>
      <point x="460" y="2048" type="line"/>
      <point x="708" y="2048" type="line"/>
      <point x="540" y="1032" type="line"/>
      <point x="564" y="1032" type="line"/>
      <point x="1524" y="1928" type="line"/>
      <point x="1665" y="2060"/>
      <point x="1964" y="2083"/>
      <point x="2072" y="1996" type="qcurve"/>
      <point x="1940" y="1812" type="line"/>
      <point x="1883" y="1854"/>
      <point x="1741" y="1834"/>
      <point x="1652" y="1752" type="qcurve"/>
      <point x="964" y="1124" type="line"/>
      <point x="1636" y="0" type="line"/>
      <point x="1336" y="0" type="line"/>
      <point x="784" y="952" type="line"/>
      <point x="480" y="664" type="line"/>
      <point x="368" y="0" type="line"/>
    </contour>
  </outline>
</glyph>
<glyph name="khook" format="2">
  <advance width="1500"/>
  <unicode hex="0199"/>
  <outline>
    <contour>
      <point x="1048" y="0" type="line"/>
      <point x="628" y="708" type="line"/>
      <point x="408" y="508" type="line"/>
      <point x="324" y="0" type="line"/>
      <point x="88" y="0" type="line"/>
      <point x="352" y="1600" type="line"/>
      <point x="588" y="1600" type="line"/>
      <point x="464" y="844" type="line"/>
      <point x="484" y="844" type="line"/>
      <point x="1224" y="1536" type="line"/>
      <point x="1524" y="1536" type="line"/>
      <point x="812" y="880" type="line"/>
      <point x="1332" y="0" type="line"/>
    </contour>
    <contour>
      <point x="568" y="1464" type="line"/>
      <point x="332" y="1464" type="line"/>
      <point x="364" y="1664" type="line"/>
      <point x="381" y="1763"/>
      <point x="467" y="1916"/>
      <point x="594" y="2022"/>
      <point x="748" y="2076"/>
      <point x="832" y="2076" type="qcurve"/>
      <point x="868" y="2076"/>
      <point x="941" y="2073"/>
      <point x="968" y="2064" type="qcurve"/>
      <point x="932" y="1864" type="line"/>
      <point x="920" y="1867"/>
      <point x="881" y="1872"/>
      <point x="860" y="1872" type="qcurve"/>
      <point x="764" y="1872"/>
      <point x="621" y="1784"/>
      <point x="600" y="1664" type="qcurve"/>
    </contour>
  </outline>
</glyph>
<glyph name="lambdastroke" format="2">
  <advance width="1776"/>
  <unicode hex="019B"/>
  <outline>
    <contour>
      <point x="1138" y="1952" type="line"/>
      <point x="1098" y="1716" type="line"/>
      <point x="380" y="1460" type="line"/>
      <point x="418" y="1692" type="line"/>
    </contour>
    <contour>
      <point x="898" y="1088" type="line"/>
      <point x="326" y="0" type="line"/>
      <point x="22" y="0" type="line"/>
      <point x="850" y="1516" type="line"/>
      <point x="1040" y="1504" type="line"/>
    </contour>
    <contour>
      <point x="688" y="2076" type="qcurve"/>
      <point x="840" y="2076"/>
      <point x="970" y="1956"/>
      <point x="994" y="1848" type="qcurve"/>
      <point x="1332" y="324" type="line"/>
      <point x="1342" y="280"/>
      <point x="1370" y="231"/>
      <point x="1412" y="212"/>
      <point x="1442" y="212" type="qcurve"/>
      <point x="1453" y="212"/>
      <point x="1480" y="212"/>
      <point x="1490" y="212" type="qcurve"/>
      <point x="1460" y="-8" type="line"/>
      <point x="1444" y="-14"/>
      <point x="1383" y="-24"/>
      <point x="1350" y="-24" type="qcurve"/>
      <point x="1268" y="-24"/>
      <point x="1154" y="11"/>
      <point x="1076" y="128"/>
      <point x="1048" y="252" type="qcurve"/>
      <point x="804" y="1344" type="line"/>
      <point x="714" y="1728" type="line"/>
      <point x="697" y="1803"/>
      <point x="630" y="1856"/>
      <point x="580" y="1856" type="qcurve"/>
      <point x="567" y="1856"/>
      <point x="526" y="1855"/>
      <point x="514" y="1852" type="qcurve"/>
      <point x="550" y="2060" type="line"/>
      <point x="568" y="2066"/>
      <point x="657" y="2076"/>
    </contour>
  </outline>
</glyph>
<glyph name="Mturned" format="2">
  <advance width="2544"/>
  <unicode hex="019C"/>
  <outline>
    <contour>
      <point x="1964" y="292" type="line"/>
      <point x="2256" y="2048" type="line"/>
      <point x="2528" y="2048" type="line"/>
      <point x="2188" y="0" type="line"/>
      <point x="1928" y="0" type="line"/>
    </contour>
    <contour>
      <point x="2052" y="692" type="qcurve"/>
      <point x="2180" y="696" type="line"/>
      <point x="2146" y="488"/>
      <point x="1978" y="161"/>
      <point x="1696" y="-28"/>
      <point x="1492" y="-28" type="qcurve"/>
      <point x="1346" y="-28"/>
      <point x="1147" y="90"/>
      <point x="1070" y="368"/>
      <point x="1108" y="608" type="qcurve"/>
      <point x="1348" y="2048" type="line"/>
      <point x="1620" y="2048" type="line"/>
      <point x="1380" y="608" type="line"/>
      <point x="1354" y="444"/>
      <point x="1401" y="267"/>
      <point x="1508" y="200"/>
      <point x="1572" y="200" type="qcurve"/>
      <point x="1720" y="200"/>
      <point x="1915" y="331"/>
      <point x="2028" y="554"/>
    </contour>
    <contour>
      <point x="1148" y="692" type="qcurve"/>
      <point x="1276" y="696" type="line"/>
      <point x="1242" y="488"/>
      <point x="1072" y="161"/>
      <point x="788" y="-28"/>
      <point x="584" y="-28" type="qcurve"/>
      <point x="436" y="-28"/>
      <point x="236" y="92"/>
      <point x="161" y="370"/>
      <point x="200" y="608" type="qcurve"/>
      <point x="440" y="2048" type="line"/>
      <point x="716" y="2048" type="line"/>
      <point x="476" y="608" type="line"/>
      <point x="449" y="444"/>
      <point x="494" y="267"/>
      <point x="600" y="200"/>
      <point x="664" y="200" type="qcurve"/>
      <point x="812" y="200"/>
      <point x="1009" y="331"/>
      <point x="1124" y="554"/>
    </contour>
  </outline>
</glyph>
<glyph name="Nhookleft" format="2">
  <advance width="2140"/>
  <unicode hex="019D"/>
  <outline>
    <contour>
      <point x="140" y="0" type="line"/>
      <point x="388" y="0" type="line"/>
      <point x="356" y="-164" type="line"/>
      <point x="335" y="-270"/>
      <point x="252" y="-427"/>
      <point x="136" y="-530"/>
      <point x="-8" y="-580"/>
      <point x="-92" y="-580" type="qcurve"/>
      <point x="-139" y="-580"/>
      <point x="-224" y="-571"/>
      <point x="-256" y="-564" type="qcurve"/>
      <point x="-224" y="-360" type="line"/>
      <point x="-207" y="-363"/>
      <point x="-167" y="-368"/>
      <point x="-148" y="-368" type="qcurve"/>
      <point x="-50" y="-368"/>
      <point x="90" y="-280"/>
      <point x="112" y="-160" type="qcurve"/>
    </contour>
    <contour>
      <point x="2104" y="2048" type="line"/>
      <point x="1764" y="0" type="line"/>
      <point x="1524" y="0" type="line"/>
      <point x="676" y="1608" type="line"/>
      <point x="656" y="1608" type="line"/>
      <point x="388" y="0" type="line"/>
      <point x="140" y="0" type="line"/>
      <point x="480" y="2048" type="line"/>
      <point x="720" y="2048" type="line"/>
      <point x="1572" y="436" type="line"/>
      <point x="1592" y="436" type="line"/>
      <point x="1860" y="2048" type="line"/>
    </contour>
  </outline>
</glyph>
